<svg height="512" viewBox="0 0 128 128" width="512" xmlns="http://www.w3.org/2000/svg"><g><g fill="#9b6e42"><path d="m44.7 6.306h38.6v97.849h-38.6z"/><path d="m83.3 23.844h38.394v97.849h-38.394z"/><path d="m6.306 15.075h38.394v97.849h-38.394z"/></g><g><path d="m121.693 22.094h-19.172a1.75 1.75 0 0 0 0 3.5h4.726v22.131a1.75 1.75 0 1 0 3.5 0v-22.131h9.2v94.349h-21.747v-15.787a1.75 1.75 0 0 0 -3.5 0v15.787h-9.65v-94.349h9.794a1.75 1.75 0 0 0 0-3.5h-9.794v-15.787a1.749 1.749 0 0 0 -1.75-1.75h-38.6a1.749 1.749 0 0 0 -1.75 1.75v7.018h-36.643a1.75 1.75 0 0 0 -1.75 1.75v46.525a1.75 1.75 0 0 0 3.5 0v-44.775h9.643v11.123a1.75 1.75 0 0 0 3.5 0v-11.123h9.052v51.235a1.75 1.75 0 0 0 3.5 0v-51.235h9.2v94.35h-21.752v-15.788a1.75 1.75 0 0 0 -3.5 0v15.788h-9.643v-28.175a1.75 1.75 0 0 0 -3.5 0v29.928a1.75 1.75 0 0 0 1.75 1.75h38.393a1.75 1.75 0 0 0 1.75-1.75v-7.019h35.1v15.787a1.749 1.749 0 0 0 1.75 1.75h38.393a1.749 1.749 0 0 0 1.75-1.75v-97.852a1.75 1.75 0 0 0 -1.75-1.75zm-75.243-14.037h9.134v19.891a1.75 1.75 0 1 0 3.5 0v-19.891h9.832v37.469a1.75 1.75 0 1 0 3.5 0v-37.469h9.134v94.349h-22.466v-36.406a1.75 1.75 0 0 0 -3.5 0v36.4h-9.134z"/><path d="m6.307 76.509a1.751 1.751 0 0 0 1.75-1.75v-4.5a1.75 1.75 0 0 0 -3.5 0v4.5a1.75 1.75 0 0 0 1.75 1.75z"/><path d="m57.334 50.406a1.75 1.75 0 0 0 1.75-1.75v-8.769a1.75 1.75 0 0 0 -3.5 0v8.769a1.75 1.75 0 0 0 1.75 1.75z"/><path d="m70.666 74.519a1.75 1.75 0 0 0 1.75-1.75v-17.134a1.75 1.75 0 1 0 -3.5 0v17.134a1.75 1.75 0 0 0 1.75 1.75z"/><path d="m70.666 93.279a1.749 1.749 0 0 0 1.75-1.75v-6.853a1.75 1.75 0 1 0 -3.5 0v6.853a1.749 1.749 0 0 0 1.75 1.75z"/><path d="m94.7 36.058v36.711a1.75 1.75 0 0 0 3.5 0v-36.711a1.75 1.75 0 1 0 -3.5 0z"/><path d="m110.747 110.145v-48.492a1.75 1.75 0 0 0 -3.5 0v48.492a1.75 1.75 0 0 0 3.5 0z"/><path d="m96.445 87.7a1.751 1.751 0 0 0 -1.75 1.75v4.709a1.75 1.75 0 0 0 3.5 0v-4.709a1.75 1.75 0 0 0 -1.75-1.75z"/><path d="m19.445 79.822a1.749 1.749 0 0 0 1.75-1.75v-35.691a1.75 1.75 0 0 0 -3.5 0v35.691a1.75 1.75 0 0 0 1.75 1.75z"/><path d="m33.747 94.668v-8.768a1.75 1.75 0 0 0 -3.5 0v8.769a1.75 1.75 0 0 0 3.5 0z"/></g></g></svg>