<svg viewBox="0 0 512 512" xmlns="http://www.w3.org/2000/svg"><path d="m512 256c0 141.386719-114.613281 256-256 256s-256-114.613281-256-256 114.613281-256 256-256 256 114.613281 256 256zm0 0" fill="#5c626b"/><path d="m0 256c0 140.292969 112.855469 254.207031 252.730469 255.960938-69.152344-1.734376-124.695313-58.316407-124.730469-127.890626-.039062-70.695312 57.238281-128.03125 127.929688-128.070312h.070312c70.691406 0 128-57.308594 128-128 0-69.589844-55.53125-126.207031-124.695312-127.9570312-1.101563-.015625-2.199219-.0429688-3.304688-.0429688-141.386719 0-256 114.613281-256 256zm0 0" fill="#dfe0e0"/><path d="m256 512h.035156c-.574218 0-1.144531-.011719-1.714844-.019531.5625 0 1.117188.019531 1.679688.019531zm0 0" fill="#dfe0e0"/><path d="m30.90625 256c0-135.324219 105-246.109375 237.972656-255.359375-3.160156-.316406-6.351562-.515625-9.574218-.5976562-1.101563-.015625-2.199219-.0429688-3.304688-.0429688-141.386719 0-256 114.613281-256 256 0 140.292969 112.855469 254.207031 252.730469 255.960938-24.269531-.609376-46.859375-7.984376-65.96875-20.296876-91.617188-38.980468-155.855469-129.816406-155.855469-235.664062zm0 0" fill="#c9caca"/><path d="m318.066406 128c0 34.277344-27.789062 62.066406-62.066406 62.066406s-62.066406-27.789062-62.066406-62.066406 27.789062-62.066406 62.066406-62.066406 62.066406 27.789062 62.066406 62.066406zm0 0" fill="#5c626b"/><path d="m224.835938 128c0-28.945312 19.8125-53.261719 46.617187-60.128906-4.941406-1.265625-10.117187-1.9375-15.453125-1.9375-34.277344 0-62.066406 27.789062-62.066406 62.066406s27.789062 62.066406 62.066406 62.066406c5.335938 0 10.511719-.671875 15.453125-1.9375-26.804687-6.867187-46.617187-31.183594-46.617187-60.128906zm0 0" fill="#535860"/><path d="m316.238281 384c0 33.269531-26.96875 60.238281-60.238281 60.238281s-60.238281-26.96875-60.238281-60.238281 26.96875-60.238281 60.238281-60.238281 60.238281 26.96875 60.238281 60.238281zm0 0" fill="#dfe0e0"/><path d="m226.664062 384.03125c-.011718-27.9375 18.996094-51.433594 44.785157-58.261719-4.941407-1.308593-10.128907-2.011719-15.480469-2.007812-33.269531.015625-60.226562 27-60.207031 60.269531.015625 33.269531 27 60.226562 60.269531 60.207031 5.332031-.003906 10.5-.707031 15.421875-2.007812-25.765625-6.820313-44.773437-30.28125-44.789063-58.199219zm0 0" fill="#c9caca"/></svg>