<svg viewBox="-24 0 512 512" xmlns="http://www.w3.org/2000/svg"><path d="m95.632812 232.457031c-23.910156 23.90625-38.476562 9.339844-62.386718 33.246094-23.90625 23.90625-9.339844 38.476563-33.246094 62.386719l28.46875-1.640625 9.410156 39.519531c23.90625-23.910156 9.339844-38.480469 33.246094-62.386719 23.910156-23.90625 38.476562-9.339843 62.386719-33.246093zm0 0" fill="#4aa2c8"/><path d="m154.289062 291.113281c-23.90625 23.90625-38.476562 9.339844-62.386718 33.246094-23.90625 23.910156-9.335938 38.476563-33.246094 62.386719l28.472656-1.640625 9.40625 39.519531c23.910156-23.910156 9.339844-38.476562 33.246094-62.386719 23.910156-23.90625 38.480469-9.339843 62.386719-33.246093zm0 0" fill="#4aa2c8"/><path d="m99.234375 512c0-94.734375 76.800781-171.535156 171.535156-171.535156 94.738281 0 171.535157 76.800781 171.535157 171.535156zm0 0" fill="#4392b4"/><path d="m99.234375 512h282.160156l-163.246093-163.300781c-68.992188 22.214843-118.914063 86.921875-118.914063 163.300781zm0 0" fill="#c9caca"/><path d="m442.304688 512h-282.160157l163.246094-163.300781c68.992187 22.214843 118.914063 86.921875 118.914063 163.300781zm0 0" fill="#dfe0e0"/><path d="m286.878906 341.222656c-5.304687-.492187-10.675781-.757812-16.109375-.757812-94.734375 0-171.535156 76.800781-171.535156 171.535156h32.214844c0-89.304688 68.246093-162.65625 155.429687-170.777344zm0 0" fill="#b7b7b7"/><path d="m455.054688 184.285156c0 101.777344-82.507813 184.28125-184.285157 184.28125-101.777343 0-184.285156-82.503906-184.285156-184.28125s82.507813-184.285156 184.285156-184.285156c101.777344 0 184.285157 82.507812 184.285157 184.285156zm0 0" fill="#dfe0e0"/><path d="m117.390625 184.285156c0-96.574218 74.285156-175.785156 168.832031-183.636718-5.09375-.421876-10.246094-.648438-15.453125-.648438-101.777343 0-184.285156 82.507812-184.285156 184.285156s82.507813 184.28125 184.285156 184.28125c5.207031 0 10.359375-.226562 15.453125-.648437-94.542968-7.851563-168.832031-87.0625-168.832031-183.632813zm0 0" fill="#c9caca"/><path d="m86.484375 184.285156c0 4.511719.171875 8.984375.492187 13.417969.703126.054687 1.410157.089844 2.121094.089844h363.34375c.710938 0 1.417969-.035157 2.121094-.089844.320312-4.433594.492188-8.90625.492188-13.417969 0-14.035156-1.578126-27.699218-4.550782-40.832031h-359.472656c-2.96875 13.132813-4.546875 26.796875-4.546875 40.832031zm0 0" fill="#c9caca"/><path d="m270.769531 333.265625c-57.464843 0-104.046875-46.585937-104.046875-104.050781v-46.871094h208.09375v46.871094c0 57.464844-46.582031 104.050781-104.046875 104.050781zm0 0" fill="#f7c2ad"/><path d="m374.816406 197.796875v-15.453125h-208.09375v46.871094c0 57.464844 46.582032 104.050781 104.046875 104.050781 3.476563 0 6.914063-.175781 10.300781-.507813-52.628906-5.171874-93.746093-49.554687-93.746093-103.542968v-26.355469c0-2.796875 2.269531-5.0625 5.066406-5.0625zm0 0" fill="#efb5a0"/><path d="m89.097656 182.34375h363.34375c7.164063 0 12.863282-6.097656 12.285156-13.238281-1.636718-20.109375-6.5-39.300781-14.074218-57.0625-1.933594-4.539063-6.398438-7.480469-11.332032-7.480469h-337.101562c-4.933594 0-9.398438 2.941406-11.332031 7.480469-7.574219 17.761719-12.4375 36.957031-14.074219 57.0625-.578125 7.140625 5.121094 13.238281 12.285156 13.238281zm0 0" fill="#52b4de"/><path d="m107.71875 169.105469c1.636719-20.109375 6.5-39.300781 14.070312-57.0625 1.9375-4.539063 6.402344-7.480469 11.335938-7.480469h-30.90625c-4.933594 0-9.398438 2.941406-11.332031 7.480469-7.574219 17.761719-12.433594 36.953125-14.070313 57.0625-.582031 7.136719 5.117188 13.234375 12.28125 13.234375h30.90625c-7.164062.003906-12.867187-6.09375-12.285156-13.234375zm0 0" fill="#4aa2c8"/><path d="m371.230469 256.378906-46.214844-15.996094c-35.148437-12.164062-73.371094-12.164062-108.519531.007813l-46.1875 15.988281c11.949218 44.292969 52.394531 76.886719 100.460937 76.886719 48.066407 0 88.511719-32.597656 100.460938-76.886719zm0 0" fill="#52b4de"/><path d="m189.363281 249.78125-19.050781 6.597656c11.945312 44.289063 52.390625 76.886719 100.457031 76.886719 3.449219 0 6.855469-.1875 10.21875-.515625-45.726562-4.53125-82.742187-38.664062-91.625-82.96875zm0 0" fill="#4aa2c8"/><g fill="#494f57"><path d="m336.382812 229.101562c-4.144531 0-7.5-3.355468-7.5-7.5v-11.695312c0-4.144531 3.355469-7.5 7.5-7.5 4.140626 0 7.5 3.355469 7.5 7.5v11.695312c0 4.144532-3.359374 7.5-7.5 7.5zm0 0"/><path d="m205.15625 229.101562c-4.140625 0-7.5-3.355468-7.5-7.5v-11.695312c0-4.144531 3.359375-7.5 7.5-7.5 4.144531 0 7.5 3.355469 7.5 7.5v11.695312c0 4.144532-3.355469 7.5-7.5 7.5zm0 0"/></g></svg>