<svg viewBox="0 -57 512.001 512" xmlns="http://www.w3.org/2000/svg"><path d="m486.144531 398.746094h-180.570312c-14.277344 0-25.851563-11.574219-25.851563-25.855469v-347.035156c0-14.28125 11.574219-25.855469 25.851563-25.855469h180.574219c14.277343 0 25.851562 11.574219 25.851562 25.855469v347.035156c0 14.28125-11.574219 25.855469-25.855469 25.855469zm0 0" fill="#e7ce5f"/><path d="m310.628906 372.890625v-347.035156c0-14.28125 11.574219-25.855469 25.851563-25.855469h-30.902344c-14.28125 0-25.855469 11.574219-25.855469 25.855469v347.035156c0 14.28125 11.574219 25.855469 25.855469 25.855469h30.902344c-14.277344 0-25.851563-11.574219-25.851563-25.855469zm0 0" fill="#d3ba50"/><path d="m206.425781 398.746094h-180.570312c-14.28125 0-25.855469-11.574219-25.855469-25.855469v-347.035156c0-14.28125 11.574219-25.855469 25.855469-25.855469h180.570312c14.277344 0 25.851563 11.574219 25.851563 25.855469v347.035156c0 14.28125-11.574219 25.855469-25.851563 25.855469zm0 0" fill="#fbe067"/><path d="m30.90625 372.890625v-347.035156c0-14.28125 11.574219-25.855469 25.851562-25.855469h-30.902343c-14.28125 0-25.855469 11.578125-25.855469 25.855469v347.035156c0 14.28125 11.574219 25.855469 25.855469 25.855469h30.902343c-14.277343 0-25.851562-11.574219-25.851562-25.855469zm0 0" fill="#e7ce5f"/><path d="m471.394531 172.113281h-151.066406c-8.890625 0-16.097656-7.207031-16.097656-16.097656v-73.160156c0-8.890625 7.207031-16.097657 16.097656-16.097657h151.066406c8.890625 0 16.097657 7.207032 16.097657 16.097657v73.160156c0 8.890625-7.207032 16.097656-16.097657 16.097656zm0 0" fill="#fbe067"/><path d="m471.394531 372.566406h-151.066406c-8.890625 0-16.097656-7.207031-16.097656-16.097656v-73.160156c0-8.890625 7.207031-16.097656 16.097656-16.097656h151.066406c8.890625 0 16.097657 7.207031 16.097657 16.097656v73.160156c0 8.890625-7.207032 16.097656-16.097657 16.097656zm0 0" fill="#fbe067"/><g fill="#d3ba50"><path d="m191.203125 293.308594c-.425781 0-.851563-.035156-1.285156-.109375-4.082031-.707031-6.816407-4.585938-6.113281-8.664063.179687-1.046875 17.535156-104.980468-20.660157-150.308594-11.664062-13.847656-27.042969-20.578124-47.003906-20.578124-19.972656 0-35.351563 6.734374-47.023437 20.589843-38.226563 45.398438-20.824219 149.25-20.644532 150.292969.707032 4.082031-2.03125 7.960938-6.113281 8.667969-4.078125.703125-7.960937-2.035157-8.667969-6.113281-.785156-4.542969-18.722656-111.828126 23.953125-162.507813 14.488281-17.207031 34.167969-25.929687 58.492188-25.929687s44.003906 8.722656 58.496093 25.929687c42.675782 50.679687 24.734376 157.964844 23.953126 162.507813-.632813 3.648437-3.800782 6.222656-7.382813 6.222656zm0 0"/><path d="m116.140625 113.648438c-4.144531 0-7.5-3.359376-7.5-7.5v-33.75c0-4.144532 3.355469-7.5 7.5-7.5 4.140625 0 7.5 3.355468 7.5 7.5v33.75c0 4.140624-3.359375 7.5-7.5 7.5zm0 0"/></g></svg>