<svg viewBox="0 -12 512.00277 512" xmlns="http://www.w3.org/2000/svg"><path d="m406.40625 487.625c-11.464844 0-22.242188-4.464844-30.347656-12.570312l-8.570313-8.566407c-2.929687-2.929687-2.929687-7.679687 0-10.609375 2.929688-2.929687 7.679688-2.929687 10.609375 0l8.570313 8.570313c10.882812 10.882812 28.597656 10.882812 39.480469 0l62.675781-62.675781c5.273437-5.273438 8.175781-12.285157 8.175781-19.742188s-2.902344-14.46875-8.175781-19.742188l-160.59375-160.589843c-5.273438-5.273438-12.285157-8.179688-19.742188-8.179688s-14.46875 2.90625-19.738281 8.179688l-192.066406 192.0625c-2.925782 2.925781-7.675782 2.925781-10.605469 0-2.929687-2.929688-2.929687-7.679688 0-10.609375l192.0625-192.0625c8.105469-8.105469 18.882813-12.570313 30.347656-12.570313 11.464844 0 22.242188 4.464844 30.351563 12.570313l160.59375 160.59375c8.105468 8.105468 12.570312 18.882812 12.570312 30.347656s-4.464844 22.242188-12.570312 30.351562l-62.675782 62.671876c-8.109374 8.105468-18.886718 12.570312-30.351562 12.570312zm0 0" fill="#494f57"/><path d="m76.414062 431.097656c-7.394531 0-14.339843-2.878906-19.566406-8.105468-5.226562-5.226563-8.105468-12.175782-8.105468-19.566407s2.878906-14.339843 8.105468-19.566406c5.226563-5.226563 12.175782-8.105469 19.566406-8.105469 7.390626 0 14.339844 2.878906 19.566407 8.105469 10.789062 10.789063 10.789062 28.34375 0 39.132813-5.226563 5.226562-12.175781 8.105468-19.566407 8.105468zm0-40.34375c-3.386718 0-6.566406 1.320313-8.960937 3.710938-2.390625 2.394531-3.710937 5.574218-3.710937 8.960937 0 3.382813 1.320312 6.5625 3.710937 8.957031 2.394531 2.394532 5.574219 3.710938 8.960937 3.710938 3.382813 0 6.5625-1.320312 8.957032-3.710938 4.9375-4.941406 4.9375-12.976562 0-17.917968-2.394532-2.390625-5.574219-3.710938-8.957032-3.710938zm0 0" fill="#d3ba50"/><path d="m45.871094 127.273438c5.65625-6.203126 11.507812-12.351563 17.578125-18.421876 175.640625-175.640624 315.132812-85.953124 315.132812-85.953124s-89.523437 1.25-220.441406 132.164062c-14.4375 14.441406-27.84375 29.269531-40.179687 44.300781zm0 0" fill="#dfe0e0"/><path d="m378.511719 22.898438c-2.84375.074218-91.574219 3.371093-220.371094 132.164062-14.4375 14.441406-27.84375 29.269531-40.179687 44.300781l-33.765626-33.765625 50.429688-46.234375c66.640625-61.097656 153.484375-95.449219 243.886719-96.464843zm0 0" fill="#c9caca"/><path d="m20.359375 105.175781c-11.546875 11.546875-11.546875 30.269531 0 41.820313l312.480469 312.480468c11.550781 11.546876 30.273437 11.546876 41.824218 0 11.546876-11.550781 11.546876-30.273437 0-41.820312l-312.480468-312.480469c-11.550782-11.550781-30.273438-11.550781-41.824219 0zm0 0" fill="#9b6a57"/><path d="m352.046875 440.269531-312.480469-312.480469c-8.085937-8.085937-10.5-19.683593-7.265625-29.878906-4.367187 1.386719-8.476562 3.800782-11.941406 7.265625-11.546875 11.546875-11.546875 30.269531 0 41.820313l312.480469 312.480468c11.550781 11.546876 30.273437 11.546876 41.824218 0 3.460938-3.464843 5.878907-7.574218 7.261719-11.941406-10.191406 3.238282-21.792969.820313-29.878906-7.265625zm0 0" fill="#8b5f4e"/><path d="m196.355469 322.992188 41.820312-41.820313 112.03125 112.03125-41.820312 41.820313zm0 0" fill="#5c626b"/><path d="m196.355469 322.992188 19.121093-19.121094 112.03125 112.03125-19.121093 19.121094zm0 0" fill="#535860"/><path d="m62.144531 417.683594c-14.214843-14.214844-37.265625-14.214844-51.480469 0-14.21875 14.21875-14.21875 37.269531 0 51.484375 14.214844 14.21875 37.265626 14.21875 51.480469 0 14.21875-14.214844 14.21875-37.265625 0-51.484375zm0 0" fill="#fbe067"/><path d="m31.539062 448.300781c-10.5-10.5-13.238281-25.816406-8.226562-38.839843-4.609375 1.773437-8.929688 4.511718-12.648438 8.226562-14.214843 14.21875-14.214843 37.265625 0 51.484375 14.21875 14.21875 37.269532 14.21875 51.484376 0 3.71875-3.714844 6.453124-8.039063 8.226562-12.648437-13.019531 5.011718-28.335938 2.277343-38.835938-8.222657zm0 0" fill="#e7ce5f"/><g fill="#494f57"><path d="m281.476562 324.46875-59.859374 23.78125-11.734376-11.734375 59.859376-23.78125zm0 0"/><path d="m309.484375 352.472656-59.859375 23.785156-11.726562-11.726562 59.847656-23.792969zm0 0"/><path d="m337.488281 380.480469-59.859375 23.78125-11.722656-11.722657 59.859375-23.785156zm0 0"/></g></svg>