<svg viewBox="-97 0 512 512" xmlns="http://www.w3.org/2000/svg"><path d="m184.929688 328.976562h-51.0625l15.617187-319.535156c.257813-5.285156 4.621094-9.441406 9.914063-9.441406 5.292968 0 9.65625 4.15625 9.917968 9.441406zm0 0" fill="#dfe0e0"/><path d="m159.398438 0c-5.292969 0-9.65625 4.15625-9.914063 9.441406l-15.617187 319.535156h25.53125zm0 0" fill="#c9caca"/><path d="m113.582031 336.558594-49.085937 14.070312-64.242188-280.59375c-1.179687-5.140625 1.871094-10.304687 6.9375-11.757812l.097656-.027344c5.070313-1.453125 10.390626 1.3125 12.117188 6.296875zm0 0" fill="#dfe0e0"/><path d="m7.242188 58.265625-.050782.011719c-5.066406 1.453125-8.117187 6.621094-6.9375 11.761718l64.242188 280.589844 24.542968-7.035156zm0 0" fill="#c9caca"/><path d="m205.21875 336.558594 49.082031 14.070312 64.246094-280.589844c1.175781-5.140624-1.871094-10.304687-6.941406-11.761718l-.097657-.023438c-5.070312-1.453125-10.390624 1.308594-12.117187 6.292969zm0 0" fill="#dfe0e0"/><path d="m311.507812 58.25c-5.070312-1.453125-10.390624 1.3125-12.117187 6.296875l-94.171875 272.007813 24.539062 7.039062 81.847657-285.316406zm0 0" fill="#c9caca"/><path d="m43.527344 469.007812v-42.964843h231.742187v42.964843zm0 0" fill="#535860"/><path d="m232.105469 468.023438v-40.996094c0-4.519532-3.664063-8.179688-8.179688-8.179688h-129.054687c-4.515625 0-8.179688 3.660156-8.179688 8.179688v40.996094c0 4.515624 3.664063 8.179687 8.179688 8.179687h129.054687c4.519531 0 8.179688-3.664063 8.179688-8.179687zm0 0" fill="#e15f76"/><path d="m94.871094 443.878906h129.054687c4.515625 0 8.179688 3.664063 8.179688 8.183594v-25.035156c0-4.519532-3.664063-8.179688-8.179688-8.179688h-129.054687c-4.515625 0-8.179688 3.660156-8.179688 8.179688v25.035156c0-4.519531 3.664063-8.183594 8.179688-8.183594zm0 0" fill="#cb556a"/><path d="m20.824219 447.070312v56.601563c0 4.597656 3.726562 8.328125 8.328125 8.328125 3.589844 0 6.773437-2.296875 7.90625-5.703125l12.390625-37.289063v-21.9375c0-60.722656 49.226562-109.949218 109.949219-109.949218 60.722656 0 109.949218 49.226562 109.949218 109.949218v21.9375l12.390625 37.289063c1.132813 3.40625 4.320313 5.703125 7.90625 5.703125 4.601563 0 8.332031-3.730469 8.332031-8.328125v-56.601563c0-76.535156-62.042968-138.578124-138.578124-138.578124-76.53125.003906-138.574219 62.042968-138.574219 138.578124zm0 0" fill="#5c626b"/><g fill="#bf5164"><path d="m140.917969 476.199219h-16.289063l-19.199218-57.347657h16.285156zm0 0"/><path d="m177.140625 476.199219h-16.289063l-19.191406-57.347657h16.285156zm0 0"/><path d="m213.371094 476.199219h-16.289063l-19.203125-57.347657h16.289063zm0 0"/></g></svg>