<svg viewBox="0 0 512 512.00072" xmlns="http://www.w3.org/2000/svg"><path d="m80.535156 189.171875-25.839844 4.886719c-4.105468.777344-8.328124-.523438-11.285156-3.480469l-41.582031-41.582031c-3.535156-3.535156-1.667969-9.585938 3.242187-10.511719l29.6875-5.617187 5.613282-29.6875c.929687-4.910157 6.980468-6.773438 10.511718-3.242188l41.585938 41.585938c2.953125 2.953124 4.257812 7.179687 3.480469 11.285156l-4.886719 25.835937c-1.011719 5.339844-5.1875 9.515625-10.527344 10.527344zm0 0" fill="#e15f76"/><path d="m54.695312 194.058594c-4.105468.777344-8.328124-.523438-11.285156-3.480469l-41.582031-41.582031c-3.535156-3.535156-1.667969-9.585938 3.242187-10.511719l29.6875-5.617187 52.664063 52.664062c-1.839844 1.839844-4.21875 3.132812-6.886719 3.640625zm0 0" fill="#cb556a"/><path d="m178.644531 91.058594-25.835937 4.890625c-4.109375.777343-8.332032-.527344-11.285156-3.480469l-41.585938-41.585938c-3.53125-3.535156-1.667969-9.582031 3.246094-10.511718l29.683594-5.617188 5.617187-29.683594c.925781-4.910156 6.976563-6.777343 10.511719-3.242187l41.582031 41.582031c2.957031 2.957032 4.257813 7.179688 3.480469 11.285156l-4.886719 25.839844c-1.011719 5.339844-5.1875 9.515625-10.527344 10.523438zm0 0" fill="#e15f76"/><path d="m152.808594 95.949219c-4.109375.777343-8.332032-.527344-11.285156-3.480469l-41.585938-41.585938c-3.53125-3.535156-1.667969-9.582031 3.246094-10.511718l29.683594-5.617188 52.664062 52.667969c-1.835938 1.835937-4.214844 3.132813-6.886719 3.636719zm0 0" fill="#cb556a"/><path d="m162.324219 172.851562-25.835938 4.886719c-4.105469.777344-8.332031-.523437-11.285156-3.480469l-41.585937-41.582031c-3.53125-3.535156-1.667969-9.585937 3.242187-10.511719l29.6875-5.617187 5.613281-29.683594c.929688-4.914062 6.980469-6.777343 10.515625-3.246093l41.582031 41.585937c2.957032 2.953125 4.257813 7.179687 3.480469 11.285156l-4.886719 25.835938c-1.011718 5.339843-5.1875 9.515625-10.527343 10.527343zm0 0" fill="#e15f76"/><path d="m136.488281 177.738281c-4.105469.777344-8.332031-.523437-11.285156-3.480469l-41.585937-41.582031c-3.53125-3.535156-1.667969-9.585937 3.242187-10.511719l29.6875-5.617187 52.664063 52.664063c-1.835938 1.839843-4.21875 3.132812-6.886719 3.640624zm0 0" fill="#cb556a"/><path d="m481.519531 481.519531c-40.636719 40.640625-106.527343 40.640625-147.164062 0l-184.875-184.875c-4.433594-4.429687-4.433594-11.613281 0-16.046875l131.117187-131.117187c4.429688-4.433594 11.617188-4.433594 16.046875 0l184.875 184.875c40.640625 40.636719 40.640625 106.527343 0 147.164062zm0 0" fill="#535860"/><path d="m359.996094 455.878906-184.875-184.875c-4.433594-4.429687-4.433594-11.617187 0-16.046875l-25.640625 25.640625c-4.433594 4.433594-4.433594 11.617188 0 16.046875l184.875 184.875c40.636719 40.640625 106.527343 40.640625 147.164062 0 4.375-4.375 8.25-9.058593 11.683594-13.957031-40.589844 28.457031-96.945313 24.582031-133.207031-11.683594zm0 0" fill="#494f57"/><path d="m200.8125 347.980469 147.164062-147.164063 100.855469 100.855469-147.167969 147.164063zm0 0" fill="#dfe0e0"/><path d="m200.808594 347.980469 25.640625-25.640625 100.855469 100.855468-25.640626 25.640626zm0 0" fill="#c9caca"/><path d="m163.136719 299.117188-26.011719-26.015626c-4.074219-4.070312-4.074219-10.675781 0-14.746093l-21.855469 21.851562c-4.070312 4.074219-4.070312 10.675781 0 14.746094l26.015625 26.015625c4.070313 4.070312 10.675782 4.070312 14.746094 0l21.855469-21.851562c-4.074219 4.070312-10.675781 4.070312-14.75 0zm0 0" fill="#535860"/><g fill="#494f57"><path d="m148.683594 254.296875c-1.917969 0-3.835938-.734375-5.300782-2.199219l-113.933593-113.929687c-2.925781-2.925781-2.925781-7.675781 0-10.605469 2.933593-2.929688 7.679687-2.929688 10.609375 0l113.929687 113.929688c2.929688 2.929687 2.929688 7.679687 0 10.605468-1.464843 1.464844-3.382812 2.199219-5.304687 2.199219zm0 0"/><path d="m246.796875 156.183594c-1.921875 0-3.839844-.730469-5.304687-2.195313l-113.929688-113.929687c-2.929688-2.929688-2.929688-7.675782 0-10.605469s7.679688-2.929687 10.609375 0l113.925781 113.929687c2.929688 2.929688 2.929688 7.675782 0 10.605469-1.464844 1.464844-3.382812 2.195313-5.300781 2.195313zm0 0"/><path d="m197.738281 205.238281c-1.921875 0-3.839843-.730469-5.304687-2.195312l-81.191406-81.195313c-2.929688-2.925781-2.929688-7.675781 0-10.605468 2.929687-2.929688 7.679687-2.925782 10.609374 0l81.191407 81.191406c2.925781 2.929687 2.925781 7.679687 0 10.609375-1.464844 1.464843-3.386719 2.195312-5.304688 2.195312zm0 0"/></g><path d="m245.773438 392.945312 147.167968-147.164062 10.925782 10.925781-147.164063 147.164063zm0 0" fill="#b7b7b7"/><path d="m320.96875 156.03125-164.9375 164.9375c-4.070312 4.074219-10.675781 4.074219-14.746094 0l-26.015625-26.011719c-4.070312-4.074219-4.070312-10.675781 0-14.746093l164.9375-164.941407c4.074219-4.070312 10.675781-4.070312 14.746094 0l26.015625 26.015625c4.074219 4.074219 4.074219 10.675782 0 14.746094zm0 0" fill="#5c626b"/></svg>