<svg viewBox="-60 0 512 512" xmlns="http://www.w3.org/2000/svg"><path d="m328.933594 283.167969c-.097656-.371094-.207032-.734375-.324219-1.097657-9.460937-29.027343-15.527344-59.050781-15.527344-89.582031v-139.660156h-235.15625v139.660156c0 30.53125-6.0625 60.558594-15.523437 89.582031-.121094.363282-.226563.730469-.324219 1.097657l-42.140625 159.46875h351.132812zm0 0" fill="#535860"/><path d="m195.503906 431.261719c-4.140625 0-7.5-3.359375-7.5-7.5v-339.964844c0-4.144531 3.359375-7.5 7.5-7.5 4.144532 0 7.5 3.355469 7.5 7.5v339.964844c0 4.140625-3.355468 7.5-7.5 7.5zm0 0" fill="#494f57"/><path d="m93.308594 282.070312c9.460937-29.023437 15.523437-59.050781 15.523437-89.582031v-139.660156h-30.902343v139.660156c0 30.53125-6.066407 60.558594-15.527344 89.582031-.117188.363282-.226563.726563-.324219 1.097657l-42.140625 159.46875h30.90625l42.140625-159.46875c.097656-.371094.203125-.734375.324219-1.097657zm0 0" fill="#494f57"/><path d="m321.644531 373.273438h-70.011719c-23.082031 0-43.519531 11.285156-56.128906 28.628906-12.609375-17.34375-33.042968-28.628906-56.128906-28.628906h-70.011719c-38.308593 0-69.363281 31.054687-69.363281 69.363281 0 38.308593 31.054688 69.363281 69.363281 69.363281h70.011719c23.085938 0 43.519531-11.285156 56.128906-28.628906 12.609375 17.34375 33.046875 28.628906 56.128906 28.628906h70.015626c38.304687 0 69.359374-31.054688 69.359374-69.363281 0-38.308594-31.054687-69.363281-69.363281-69.363281zm0 0" fill="#5c626b"/><path d="m30.90625 442.636719c0-38.308594 31.054688-69.363281 69.363281-69.363281h-30.90625c-38.308593 0-69.35937475 31.054687-69.35937475 69.363281 0 38.308593 31.05468775 69.363281 69.35937475 69.363281h30.90625c-38.308593 0-69.363281-31.054688-69.363281-69.363281zm0 0" fill="#535860"/><path d="m312.054688 105.652344h-233.101563c-7.707031 0-13.960937-6.25-13.960937-13.960938v-77.730468c.003906-7.710938 6.253906-13.960938 13.960937-13.960938h233.101563c7.710937 0 13.960937 6.25 13.960937 13.960938v77.730468c0 7.710938-6.25 13.960938-13.960937 13.960938zm0 0" fill="#494f57"/><path d="m248.332031 52.828125c0-29.175781-23.652343-52.828125-52.828125-52.828125h-116.550781c-7.710937 0-13.957031 6.25-13.957031 13.960938v77.730468c0 7.710938 6.25 13.960938 13.960937 13.960938h116.546875c29.175782 0 52.828125-23.648438 52.828125-52.824219zm0 0" fill="#5c626b"/><path d="m95.898438 91.691406v-77.730468c0-7.710938 6.25-13.960938 13.960937-13.960938h-30.90625c-7.710937 0-13.957031 6.25-13.957031 13.960938v77.730468c0 7.710938 6.25 13.960938 13.960937 13.960938h30.902344c-7.710937 0-13.960937-6.25-13.960937-13.960938zm0 0" fill="#535860"/></svg>