<svg viewBox="0 0 511.99969 511.99969" xmlns="http://www.w3.org/2000/svg"><path d="m11.121094 511.613281 153.007812-27.875c2.699219-.492187 5.054688-2.136719 6.441406-4.503906l77.296876-131.816406c3.644531-6.210938 12.621093-6.210938 16.265624 0l77.300782 131.824219c1.386718 2.363281 3.730468 4.007812 6.425781 4.503906l152.773437 28.09375c6.484376 1.191406 12.160157-4.472656 10.980469-10.960938l-27.875-153.007812c-.492187-2.703125-2.136719-5.054688-4.503906-6.441406l-131.816406-77.296876c-6.210938-3.644531-6.210938-12.621093 0-16.265624l131.824219-77.300782c2.363281-1.386718 4.007812-3.730468 4.503906-6.425781l28.09375-152.773437c1.191406-6.488282-4.472656-12.164063-10.960938-10.980469l-153.007812 27.875c-2.703125.488281-5.054688 2.136719-6.441406 4.503906l-77.296876 131.8125c-3.644531 6.210937-12.621093 6.210937-16.265624 0l-77.300782-131.820313c-1.386718-2.363281-3.730468-4.007812-6.425781-4.503906l-152.773437-28.09375c-6.488282-1.191406-12.160157 4.472656-10.980469 10.960938l27.875 153.007812c.488281 2.699219 2.136719 5.054688 4.503906 6.441406l131.8125 77.296876c6.210937 3.644531 6.210937 12.621093 0 16.265624l-131.820313 77.300782c-2.363281 1.386718-4.007812 3.730468-4.503906 6.425781l-28.09375 152.773437c-1.191406 6.484376 4.472656 12.160157 10.960938 10.980469zm0 0" fill="#c9caca"/><path d="m291.824219 220.175781c-19.785157-19.789062-51.863281-19.789062-71.648438 0l-217.289062-217.289062c2.085937-2.15625 5.175781-3.335938 8.480469-2.726563l152.773437 28.09375c2.695313.496094 5.039063 2.140625 6.425781 4.503906l77.300782 131.820313c3.644531 6.210937 12.621093 6.210937 16.265624 0l77.296876-131.8125c1.386718-2.367187 3.738281-4.015625 6.441406-4.503906l153.007812-27.875c3.179688-.578125 6.160156.496093 8.234375 2.5zm0 0" fill="#dfe0e0"/><path d="m220.175781 291.824219c19.785157 19.789062 51.863281 19.789062 71.648438 0l217.289062 217.289062c-2.085937 2.15625-5.175781 3.335938-8.480469 2.726563l-152.773437-28.09375c-2.695313-.496094-5.039063-2.140625-6.425781-4.503906l-77.300782-131.824219c-3.644531-6.210938-12.621093-6.210938-16.265624 0l-77.296876 131.816406c-1.386718 2.367187-3.738281 4.011719-6.441406 4.503906l-153.007812 27.875c-3.179688.578125-6.160156-.496093-8.234375-2.5zm0 0" fill="#b7b7b7"/><path d="m175.847656 336.152344c44.265625 44.269531 116.039063 44.269531 160.308594 0 44.265625-44.265625 44.265625-116.039063 0-160.308594-44.269531-44.265625-116.042969-44.265625-160.308594 0-44.269531 44.269531-44.269531 116.042969 0 160.308594zm0 0" fill="#dfe0e0"/><path d="m196.636719 336.152344c-44.269531-44.265625-44.269531-116.039063 0-160.308594 19.484375-19.484375 44.304687-30.390625 69.757812-32.722656-32.367187-2.960938-65.769531 7.941406-90.546875 32.722656-44.269531 44.269531-44.269531 116.042969 0 160.308594 24.777344 24.78125 58.179688 35.6875 90.546875 32.722656-25.453125-2.328125-50.273437-13.234375-69.757812-32.722656zm0 0" fill="#c9caca"/><g fill="#494f57"><path d="m256 277.117188c-9.875 0-17.878906-8.003907-17.878906-17.878907v-13.40625h35.753906v13.40625c.003906 9.875-8 17.878907-17.875 17.878907zm0 0"/><path d="m322.203125 254.1875c-4.140625 0-7.5-3.359375-7.5-7.5v-11.804688c0-4.144531 3.359375-7.5 7.5-7.5 4.144531 0 7.5 3.355469 7.5 7.5v11.804688c0 4.140625-3.355469 7.5-7.5 7.5zm0 0"/><path d="m189.796875 254.1875c-4.144531 0-7.5-3.359375-7.5-7.5v-11.804688c0-4.144531 3.355469-7.5 7.5-7.5 4.140625 0 7.5 3.355469 7.5 7.5v11.804688c0 4.140625-3.359375 7.5-7.5 7.5zm0 0"/></g><path d="m328.105469 276.5h-11.804688c-4.140625 0-7.5-3.359375-7.5-7.5 0-4.144531 3.359375-7.5 7.5-7.5h11.804688c4.140625 0 7.5 3.355469 7.5 7.5 0 4.140625-3.359375 7.5-7.5 7.5zm0 0" fill="#e15f76"/><path d="m195.699219 276.5h-11.804688c-4.144531 0-7.5-3.359375-7.5-7.5 0-4.144531 3.355469-7.5 7.5-7.5h11.804688c4.140625 0 7.5 3.355469 7.5 7.5 0 4.140625-3.359375 7.5-7.5 7.5zm0 0" fill="#e15f76"/></svg>