<svg viewBox="0 0 511.99925 511" xmlns="http://www.w3.org/2000/svg"><path d="m353.203125 51.589844-30.664063-30.664063c-1.824218-1.824219-1.824218-4.777343 0-6.601562l12.457032-12.457031c1.824218-1.8242192 4.777344-1.8242192 6.601562 0l30.664063 30.664062c1.820312 1.820312 1.820312 4.777344 0 6.597656l-12.460938 12.460938c-1.824219 1.820312-4.777343 1.820312-6.597656 0zm0 0" fill="#52b4de"/><path d="m343.070312 34.859375 12.460938-12.457031c1.820312-1.824219 4.777344-1.824219 6.597656 0l-20.53125-20.535156c-1.824218-1.820313-4.777344-1.820313-6.601562 0l-12.457032 12.457031c-1.824218 1.824219-1.824218 4.777343 0 6.601562l20.53125 20.535157c-1.820312-1.824219-1.820312-4.777344 0-6.601563zm0 0" fill="#4aa2c8"/><path d="m32.175781 372.800781-30.847656-30.851562c-1.769531-1.769531-1.769531-4.640625 0-6.414063l12.644531-12.640625c1.769532-1.773437 4.644532-1.773437 6.414063 0l30.847656 30.847657c1.769531 1.769531 1.769531 4.644531 0 6.414062l-12.644531 12.644531c-1.769532 1.769531-4.644532 1.769531-6.414063 0zm0 0" fill="#52b4de"/><path d="m21.859375 356.070312 12.644531-12.644531c1.769532-1.769531 4.644532-1.769531 6.414063 0l-20.53125-20.53125c-1.773438-1.773437-4.644531-1.773437-6.417969 0l-12.640625 12.640625c-1.769531 1.773438-1.769531 4.644532 0 6.414063l20.535156 20.535156c-1.773437-1.769531-1.773437-4.644531-.003906-6.414063zm0 0" fill="#4aa2c8"/><path d="m334.289062 211.300781-92.238281-92.242187c-1.824219-1.824219-1.824219-4.777344 0-6.597656l26.625-26.628907c1.824219-1.824219 4.777344-1.824219 6.601563 0l92.238281 92.238281c1.824219 1.824219 1.824219 4.777344 0 6.601563l-26.625 26.628906c-1.824219 1.820313-4.777344 1.820313-6.601563 0zm0 0" fill="#52b4de"/><path d="m325.738281 136.292969-50.460937-50.460938c-1.824219-1.824219-4.777344-1.824219-6.601563 0l-26.625 26.625c-1.824219 1.824219-1.824219 4.777344 0 6.601563l50.460938 50.460937zm0 0" fill="#4aa2c8"/><path d="m11.542969 315.746094 303.757812-303.753906c1.789063-1.792969 4.695313-1.792969 6.484375 0l40.351563 40.347656c1.789062 1.792968 1.789062 4.695312 0 6.488281l-303.753907 303.753906c-1.792968 1.792969-4.695312 1.792969-6.488281 0l-40.347656-40.351562c-1.792969-1.789063-1.792969-4.691407-.003906-6.484375zm0 0" fill="#5c626b"/><path d="m32.078125 336.277344 303.753906-303.753906c1.792969-1.789063 4.695313-1.789063 6.484375 0l-20.53125-20.53125c-1.792968-1.792969-4.695312-1.792969-6.488281 0l-303.753906 303.753906c-1.789063 1.792968-1.789063 4.695312 0 6.484375l20.535156 20.535156c-1.789063-1.789063-1.789063-4.695313 0-6.488281zm0 0" fill="#535860"/><path d="m189.460938 491.96875-30.664063-30.664062c-1.824219-1.824219-4.777344-1.824219-6.601563 0l-12.457031 12.457031c-1.820312 1.824219-1.820312 4.777343 0 6.597656l30.664063 30.664063c1.820312 1.824218 4.777344 1.824218 6.597656 0l12.460938-12.457032c1.820312-1.824218 1.820312-4.777344 0-6.597656zm0 0" fill="#52b4de"/><path d="m172.730469 481.839844-12.457031 12.457031c-1.824219 1.820313-1.824219 4.777344 0 6.597656l-20.535157-20.53125c-1.820312-1.824219-1.820312-4.777343 0-6.601562l12.457031-12.457031c1.824219-1.824219 4.777344-1.824219 6.601563 0l20.535156 20.535156c-1.824219-1.824219-4.777343-1.824219-6.601562 0zm0 0" fill="#4aa2c8"/><path d="m510.671875 170.941406-30.851563-30.847656c-1.769531-1.773438-4.640624-1.773438-6.414062 0l-12.640625 12.640625c-1.773437 1.773437-1.773437 4.644531 0 6.417969l30.847656 30.847656c1.769531 1.769531 4.644531 1.769531 6.414063 0l12.644531-12.644531c1.769531-1.769531 1.769531-4.644531 0-6.414063zm0 0" fill="#52b4de"/><path d="m493.941406 160.628906-12.640625 12.640625c-1.773437 1.773438-1.773437 4.644531 0 6.414063l-20.535156-20.53125c-1.769531-1.773438-1.769531-4.644532 0-6.417969l12.644531-12.640625c1.769532-1.773438 4.640625-1.773438 6.414063 0l20.53125 20.535156c-1.769531-1.773437-4.640625-1.773437-6.414063 0zm0 0" fill="#4aa2c8"/><path d="m177.707031 301.59375 92.242188 92.242188c1.820312 1.820312 1.820312 4.773437 0 6.597656l-26.628907 26.628906c-1.820312 1.820312-4.777343 1.820312-6.597656 0l-92.242187-92.242188c-1.820313-1.820312-1.820313-4.777343 0-6.597656l26.628906-26.628906c1.820313-1.824219 4.777344-1.824219 6.597656 0zm0 0" fill="#52b4de"/><path d="m165.015625 348.753906 26.625-26.625c1.824219-1.824218 4.777344-1.824218 6.601563 0l-20.535157-20.535156c-1.820312-1.824219-4.777343-1.824219-6.597656 0l-26.628906 26.628906c-1.820313 1.820313-1.820313 4.777344 0 6.597656l20.535156 20.535157c-1.824219-1.824219-1.824219-4.777344 0-6.601563zm0 0" fill="#4aa2c8"/><path d="m453.617188 150.308594-303.753907 303.753906c-1.792969 1.792969-1.792969 4.695312 0 6.488281l40.351563 40.347657c1.789062 1.792968 4.695312 1.792968 6.484375 0l303.753906-303.753907c1.792969-1.789062 1.792969-4.695312 0-6.484375l-40.347656-40.351562c-1.792969-1.789063-4.695313-1.789063-6.488281 0zm0 0" fill="#5c626b"/><path d="m474.152344 170.84375-303.753906 303.753906c-1.792969 1.792969-1.792969 4.695313 0 6.488282l-20.535157-20.535157c-1.792969-1.792969-1.792969-4.695312 0-6.488281l303.753907-303.753906c1.792968-1.789063 4.695312-1.789063 6.484374 0l20.535157 20.535156c-1.789063-1.792969-4.695313-1.792969-6.484375 0zm0 0" fill="#535860"/></svg>