<svg viewBox="0 -50 511.99975 511" xmlns="http://www.w3.org/2000/svg"><g fill="#494f57"><path d="m206.601562 411.058594c-1.8125 0-3.628906-.652344-5.070312-1.972656-3.050781-2.800782-3.253906-7.546876-.453125-10.597657l35.308594-38.464843c2.800781-3.050782 7.546875-3.253907 10.597656-.453126 3.050781 2.800782 3.253906 7.546876.453125 10.597657l-35.308594 38.464843c-1.480468 1.609376-3.5 2.425782-5.527344 2.425782zm0 0"/><path d="m305.394531 411.058594c-2.027343 0-4.046875-.816406-5.527343-2.425782l-35.308594-38.46875c-2.800782-3.050781-2.597656-7.792968.453125-10.59375 3.050781-2.800781 7.792969-2.601562 10.597656.453126l35.308594 38.464843c2.800781 3.050781 2.597656 7.796875-.453125 10.597657-1.441406 1.320312-3.257813 1.972656-5.070313 1.972656zm0 0"/><path d="m256 353.167969c-47.632812 0-88.890625-7.242188-122.632812-21.519531-27.355469-11.578126-49.867188-27.769532-66.90625-48.128907-29.234376-34.933593-32.109376-69.757812-32.21875-71.226562-.304688-4.128907 2.796874-7.726563 6.925781-8.027344 4.136719-.308594 7.71875 2.789063 8.03125 6.910156.046875.550781 2.925781 32.25 29.34375 63.402344 35.277343 41.601563 96.640625 63.589844 177.457031 63.589844 81.28125 0 142.84375-22.226563 178.035156-64.277344 26.167969-31.265625 28.738282-62.390625 28.761719-62.699219.304687-4.132812 3.90625-7.242187 8.03125-6.925781 4.132813.304687 7.234375 3.898437 6.929687 8.027344-.109374 1.46875-2.984374 36.292969-32.21875 71.226562-17.039062 20.359375-39.550781 36.550781-66.90625 48.128907-33.742187 14.277343-75.003906 21.519531-122.632812 21.519531zm0 0"/></g><path d="m22.96875 184.863281c-6.078125 0-9.84375-6.605469-6.746094-11.835937 24.121094-40.714844 112.070313-172.527344 239.777344-172.527344s215.65625 131.8125 239.777344 172.527344c3.097656 5.230468-.667969 11.835937-6.746094 11.835937zm0 0" fill="#fbe067"/><path d="m127.96875 166.964844c7.828125-21.703125 24.394531-63.339844 47.429688-98.3125 26.414062-40.09375 53.53125-60.425782 80.601562-60.425782s54.1875 20.332032 80.601562 60.425782c23.035157 34.972656 39.605469 76.609375 47.429688 98.3125l2.621094 7.269531 14.535156-5.242187-2.621094-7.265626c-8.054687-22.351562-25.144531-65.265624-49.0625-101.574218-16.921875-25.6875-34.507812-44.085938-52.589844-55.101563-13.132812-2.929687-26.777343-4.550781-40.914062-4.550781s-27.785156 1.621094-40.914062 4.550781c-18.082032 11.015625-35.667969 29.414063-52.589844 55.101563-23.917969 36.304687-41.003906 79.222656-49.0625 101.570312l-2.621094 7.269532 14.539062 5.242187zm0 0" fill="#e7ce5f"/><path d="m47.128906 173.027344c23.132813-39.050782 104.992188-161.882813 224.324219-171.859375-5.085937-.425781-10.234375-.667969-15.453125-.667969-127.707031 0-215.65625 131.8125-239.777344 172.527344-3.097656 5.230468.667969 11.835937 6.746094 11.835937h30.902344c-6.074219 0-9.839844-6.605469-6.742188-11.835937zm0 0" fill="#e7ce5f"/><path d="m493.484375 214.34375c0 11.503906-9.324219 20.832031-20.832031 20.832031-11.503906 0-20.832032-9.328125-20.832032-20.832031 0-11.507812 9.328126-20.832031 20.832032-20.832031 11.507812 0 20.832031 9.324219 20.832031 20.832031zm0 0" fill="#e15f76"/><path d="m60.175781 214.34375c0 11.503906-9.324219 20.832031-20.832031 20.832031-11.503906 0-20.832031-9.328125-20.832031-20.832031 0-11.507812 9.328125-20.832031 20.832031-20.832031 11.507812 0 20.832031 9.324219 20.832031 20.832031zm0 0" fill="#e15f76"/><path d="m276.832031 349.75c0 11.503906-9.328125 20.832031-20.832031 20.832031s-20.832031-9.328125-20.832031-20.832031 9.328125-20.832031 20.832031-20.832031 20.832031 9.328125 20.832031 20.832031zm0 0" fill="#e15f76"/><path d="m506.304688 214.34375h-500.609376c-4.058593 0-6.8125-4.132812-5.25-7.878906l15.574219-37.386719c1.195313-2.867187 3.996094-4.734375 7.101563-4.734375h465.757812c3.105469 0 5.90625 1.867188 7.097656 4.734375l15.578126 37.386719c1.5625 3.746094-1.191407 7.878906-5.25 7.878906zm0 0" fill="#e7ce5f"/><path d="m31.925781 206.464844 15.578125-37.386719c1.195313-2.867187 3.996094-4.734375 7.097656-4.734375h-31.480468c-3.105469 0-5.90625 1.867188-7.101563 4.734375l-15.574219 37.386719c-1.5625 3.746094 1.191407 7.878906 5.25 7.878906h31.480469c-4.058593 0-6.8125-4.132812-5.25-7.878906zm0 0" fill="#d3ba50"/><path d="m256 138.574219c-9.859375 0-19.039062-5.316407-23.957031-13.871094-2.066407-3.589844-.828125-8.175781 2.761719-10.242187 3.589843-2.0625 8.175781-.824219 10.242187 2.765624 2.25 3.914063 6.445313 6.347657 10.953125 6.347657 4.503906 0 8.703125-2.433594 10.953125-6.347657 2.066406-3.589843 6.652344-4.824218 10.238281-2.761718 3.59375 2.0625 4.828125 6.648437 2.765625 10.238281-4.917969 8.558594-14.097656 13.871094-23.957031 13.871094zm0 0" fill="#494f57"/><path d="m322.339844 108.078125c-4.144532 0-7.5-3.359375-7.5-7.5v-11.828125c0-4.140625 3.355468-7.5 7.5-7.5 4.140625 0 7.5 3.359375 7.5 7.5v11.828125c0 4.140625-3.359375 7.5-7.5 7.5zm0 0" fill="#494f57"/><path d="m189.660156 108.078125c-4.140625 0-7.5-3.359375-7.5-7.5v-11.828125c0-4.140625 3.359375-7.5 7.5-7.5s7.5 3.359375 7.5 7.5v11.828125c0 4.140625-3.359375 7.5-7.5 7.5zm0 0" fill="#494f57"/><path d="m328.253906 130.4375h-11.828125c-4.144531 0-7.5-3.359375-7.5-7.5 0-4.144531 3.355469-7.5 7.5-7.5h11.828125c4.140625 0 7.5 3.355469 7.5 7.5 0 4.140625-3.359375 7.5-7.5 7.5zm0 0" fill="#e15f76"/><path d="m195.574219 130.4375h-11.828125c-4.140625 0-7.5-3.359375-7.5-7.5 0-4.144531 3.359375-7.5 7.5-7.5h11.828125c4.140625 0 7.5 3.355469 7.5 7.5 0 4.140625-3.359375 7.5-7.5 7.5zm0 0" fill="#e15f76"/></svg>