<svg viewBox="0 -10 512.00017 512" xmlns="http://www.w3.org/2000/svg"><path d="m434.433594 49.863281 54.824218 54.828125-365.601562 365.601563-54.824219-54.828125zm0 0" fill="#5abc8b"/><path d="m68.828125 415.46875 365.601563-365.601562 24.003906 24.007812-365.601563 365.601562zm0 0" fill="#51af7e"/><path d="m351.386719 242.652344-54.914063-54.914063c-8.863281-8.863281-8.863281-23.230469 0-32.09375 8.863282-8.863281 23.234375-8.863281 32.097656 0l54.914063 54.914063c8.863281 8.863281 8.863281 23.234375 0 32.09375-8.863281 8.863281-23.234375 8.863281-32.097656 0zm0 0" fill="#64d19b"/><path d="m473.257812 120.785156-54.914062-54.914062c-8.863281-8.863282-8.863281-23.234375 0-32.097656 8.859375-8.863282 23.230469-8.863282 32.09375 0l54.914062 54.914062c8.863282 8.863281 8.863282 23.234375 0 32.097656-8.863281 8.863282-23.230468 8.863282-32.09375 0zm0 0" fill="#64d19b"/><path d="m229.519531 364.523438-54.914062-54.917969c-8.863281-8.863281-8.863281-23.230469 0-32.09375s23.234375-8.863281 32.09375 0l54.917969 54.914062c8.863281 8.863281 8.863281 23.234375 0 32.097657-8.863282 8.863281-23.234376 8.863281-32.097657 0zm0 0" fill="#64d19b"/><path d="m107.652344 486.390625-54.917969-54.914063c-8.863281-8.863281-8.863281-23.234374 0-32.097656 8.863281-8.863281 23.234375-8.863281 32.097656 0l54.914063 54.917969c8.863281 8.859375 8.863281 23.230469 0 32.09375-8.863282 8.863281-23.230469 8.863281-32.09375 0zm0 0" fill="#64d19b"/><g fill="#5abc8b"><path d="m442.347656 57.78125c8.863282-8.863281 23.234375-8.863281 32.097656 0l-24.007812-24.007812c-8.863281-8.863282-23.234375-8.863282-32.09375 0-8.863281 8.863281-8.863281 23.234374 0 32.097656l24.003906 24.003906c-8.863281-8.863281-8.863281-23.230469 0-32.09375zm0 0"/><path d="m320.480469 179.648438c8.863281-8.863282 23.230469-8.863282 32.09375 0l-24.003907-24.003907c-8.863281-8.863281-23.234374-8.863281-32.097656 0-8.863281 8.863281-8.863281 23.230469 0 32.09375l24.007813 24.007813c-8.863281-8.863282-8.863281-23.234375 0-32.097656zm0 0"/><path d="m198.609375 301.515625c8.863281-8.863281 23.234375-8.863281 32.097656 0l-24.007812-24.003906c-8.863281-8.863281-23.230469-8.863281-32.09375 0s-8.863281 23.230469 0 32.09375l24.003906 24.007812c-8.863281-8.863281-8.863281-23.234375 0-32.097656zm0 0"/><path d="m76.742188 423.386719c8.863281-8.863281 23.234374-8.863281 32.097656 0l-24.007813-24.007813c-8.863281-8.863281-23.234375-8.863281-32.097656 0-8.863281 8.863282-8.863281 23.234375 0 32.097656l24.007813 24.003907c-8.863282-8.863281-8.863282-23.230469 0-32.09375zm0 0"/></g><path d="m138.164062 218.980469-7.257812-7.261719-7.261719-7.257812-117.210937 80.453124c-11.953125 8.203126-6.148438 26.921876 8.351562 26.921876 8.835938 0 16.003906 7.164062 16.003906 16.003906 0 14.496094 18.71875 20.304687 26.921876 8.351562zm0 0" fill="#cb556a"/><path d="m338.742188.519531-196.222657 150.109375c-.375.289063-.65625.679688-.8125 1.128906l-24.050781 70.164063c-.648438 1.886719 1.160156 3.691406 3.046875 3.046875l70.164063-24.054688c.445312-.152343.839843-.4375 1.125-.8125l150.113281-196.21875c1.699219-2.226562-1.136719-5.066406-3.363281-3.363281zm0 0" fill="#dfe0e0"/><path d="m338.742188.519531-196.222657 150.109375c-.375.289063-.65625.679688-.8125 1.128906l-24.050781 70.164063c-.324219.941406-.035156 1.867187.574219 2.472656l223.664062-223.667969c-.773437-.773437-2.039062-1.058593-3.152343-.207031zm0 0" fill="#c9caca"/><path d="m126.066406 232.230469-15.675781-15.671875c-7-7-7-18.351563 0-25.351563s18.351563-7 25.351563 0l15.675781 15.675781c7 7 7 18.347657 0 25.347657s-18.351563 7-25.351563 0zm0 0" fill="#e15f76"/></svg>