<svg viewBox="0 0 512 512" xmlns="http://www.w3.org/2000/svg"><path d="m0 104.851562v131.367188c0 61.839844 50.132812 111.96875 111.972656 111.96875h33.253906c10.261719 0 18.585938 8.324219 18.585938 18.585938v13.289062c0 23.789062-7.578125 46.957031-21.628906 66.148438l-41.769532 57.046874c-2.65625 3.628907-.0625 8.742188 4.4375 8.742188h131.367188c61.839844 0 111.96875-50.132812 111.96875-111.972656v-33.253906c0-10.261719 8.324219-18.585938 18.585938-18.585938h13.289062c23.785156 0 46.957031 7.574219 66.148438 21.628906l57.046874 41.769532c3.628907 2.65625 8.742188.0625 8.742188-4.4375v-131.367188c0-61.839844-50.132812-111.96875-111.972656-111.96875h-33.253906c-10.265626 0-18.585938-8.324219-18.585938-18.585938v-13.289062c0-23.785156 7.574219-46.957031 21.628906-66.148438l41.769532-57.046874c2.65625-3.628907.0625-8.742188-4.4375-8.742188h-131.367188c-61.839844 0-111.96875 50.132812-111.96875 111.972656v33.253906c0 10.261719-8.324219 18.585938-18.585938 18.585938h-13.289062c-23.785156 0-46.957031-7.578125-66.148438-21.628906l-57.046874-41.769532c-3.628907-2.65625-8.742188-.0625-8.742188 4.4375zm0 0" fill="#c9caca"/><path d="m318.757812 257.851562c.015626-.617187.046876-1.230468.046876-1.851562 0-34.003906-27.03125-61.679688-60.777344-62.753906 10.960937-86.816406 69.785156-161.210938 153.394531-191.195313 1.453125 1.820313 1.753906 4.519531.164063 6.691407l-41.769532 57.046874c-14.050781 19.191407-21.628906 42.363282-21.628906 66.148438v13.289062c0 10.261719 8.324219 18.585938 18.585938 18.585938h33.253906c61.839844 0 111.972656 50.128906 111.972656 111.96875v131.367188c0 1.761718-.789062 3.222656-1.957031 4.199218-29.96875-83.671875-104.40625-142.550781-191.285157-153.496094zm0 0" fill="#dfe0e0"/><path d="m145.226562 348.1875h-33.253906c-61.839844 0-111.972656-50.128906-111.972656-111.96875v-131.367188c0-1.71875.746094-3.15625 1.867188-4.128906 30 83.675782 104.476562 142.535156 191.375 153.441406-.015626.609376-.046876 1.21875-.046876 1.835938 0 34.128906 27.230469 61.878906 61.144532 62.761719-10.890625 86.957031-69.800782 161.476562-153.539063 191.460937-1.648437-1.816406-2.054687-4.683594-.386719-6.964844l41.769532-57.046874c14.050781-19.191407 21.628906-42.363282 21.628906-66.148438v-13.289062c0-10.261719-8.324219-18.585938-18.585938-18.585938zm0 0" fill="#b7b7b7"/><path d="m256 144.769531c-61.429688 0-111.230469 49.800781-111.230469 111.230469s49.800781 111.230469 111.230469 111.230469 111.230469-49.800781 111.230469-111.230469-49.800781-111.230469-111.230469-111.230469zm0 0" fill="#dfe0e0"/><path d="m165.375 256c0-57.957031 44.328125-105.550781 100.925781-110.75-3.390625-.3125-6.828125-.480469-10.300781-.480469-61.429688 0-111.230469 49.800781-111.230469 111.230469s49.800781 111.230469 111.230469 111.230469c3.472656 0 6.910156-.167969 10.300781-.480469-56.597656-5.199219-100.925781-52.792969-100.925781-110.75zm0 0" fill="#c9caca"/><g fill="#494f57"><path d="m256 276.929688c-9.785156 0-17.71875-7.933594-17.71875-17.71875v-13.285157h35.4375v13.285157c0 9.785156-7.933594 17.71875-17.71875 17.71875zm0 0"/><path d="m321.609375 254.269531c-4.140625 0-7.5-3.359375-7.5-7.5v-11.699219c0-4.140624 3.359375-7.5 7.5-7.5 4.144531 0 7.5 3.359376 7.5 7.5v11.699219c0 4.140625-3.355469 7.5-7.5 7.5zm0 0"/><path d="m190.390625 254.269531c-4.144531 0-7.5-3.359375-7.5-7.5v-11.699219c0-4.140624 3.355469-7.5 7.5-7.5 4.140625 0 7.5 3.359376 7.5 7.5v11.699219c0 4.140625-3.359375 7.5-7.5 7.5zm0 0"/></g><path d="m327.460938 276.382812h-11.699219c-4.140625 0-7.5-3.359374-7.5-7.5 0-4.144531 3.359375-7.5 7.5-7.5h11.699219c4.144531 0 7.5 3.355469 7.5 7.5 0 4.140626-3.355469 7.5-7.5 7.5zm0 0" fill="#e15f76"/><path d="m196.238281 276.382812h-11.699219c-4.144531 0-7.5-3.359374-7.5-7.5 0-4.144531 3.355469-7.5 7.5-7.5h11.699219c4.140625 0 7.5 3.355469 7.5 7.5 0 4.140626-3.359375 7.5-7.5 7.5zm0 0" fill="#e15f76"/></svg>