<svg viewBox="0 0 512 512.00086" xmlns="http://www.w3.org/2000/svg"><path d="m59.785156 394.828125 57.390625 57.386719-47.902343 47.902344c-15.847657 15.84375-41.539063 15.84375-57.386719 0-15.847657-15.847657-15.847657-41.542969 0-57.390626zm0 0" fill="#fbe067"/><path d="m424.394531 11.476562 74.523438-11.34375c7.578125-1.152343 14.105469 5.371094 12.949219 12.949219l-11.339844 74.527344c-.613282 4.023437-2.496094 7.746094-5.375 10.625l-255.085938 255.085937-81.386718-81.382812 255.089843-255.089844c2.875-2.878906 6.597657-4.761718 10.625-5.371094zm0 0" fill="#dfe0e0"/><path d="m508.667969 3.332031c-2.433594-2.433593-5.960938-3.777343-9.75-3.199219l-74.523438 11.339844c-4.027343.613282-7.75 2.496094-10.625 5.375l-255.089843 255.089844 40.691406 40.691406zm0 0" fill="#c9caca"/><path d="m158.679688 271.9375 81.386718 81.382812-139.9375 139.9375c-6.820312 6.820313-17.878906 6.820313-24.699218 0l-56.6875-56.683593c-6.820313-6.824219-6.820313-17.878907 0-24.703125zm0 0" fill="#5c626b"/><path d="m50.046875 443.175781 139.9375-139.9375-31.304687-31.300781-139.9375 139.933594c-6.820313 6.824218-6.820313 17.878906 0 24.703125l31.300781 31.300781c-6.816407-6.820312-6.816407-17.878906.003906-24.699219zm0 0" fill="#535860"/><g fill="#494f57"><path d="m216.472656 376.914062-11.28125 11.28125-101.964844-60.800781 11.269532-11.273437zm0 0"/><path d="m179.851562 413.535156-11.273437 11.269532-101.976563-60.789063 11.28125-11.28125zm0 0"/><path d="m143.238281 450.148438-11.273437 11.269531-101.976563-60.789063 11.28125-11.28125zm0 0"/></g></svg>