<svg viewBox="-52 0 512 512" xmlns="http://www.w3.org/2000/svg"><path d="m370.484375 434.050781v-204.816406h-333.964844v204.816406c0 8.683594 7.039063 15.722657 15.722657 15.722657h302.519531c8.683593 0 15.722656-7.039063 15.722656-15.722657zm0 0" fill="#8b5f4e"/><path d="m38.9375 512c0-90.886719 73.679688-164.5625 164.566406-164.5625 90.882813 0 164.5625 73.675781 164.5625 164.5625zm0 0" fill="#f7c2ad"/><path d="m218.503906 348.125c-4.941406-.449219-9.945312-.6875-15-.6875-90.886718 0-164.566406 73.675781-164.566406 164.5625h30c0-85.828125 65.710938-156.296875 149.566406-163.875zm0 0" fill="#efb5a0"/><path d="m203.503906 347.4375c-48.566406 0-92.210937 21.039062-122.332031 54.5v110.0625h244.664063v-110.0625c-30.121094-33.460938-73.769532-54.5-122.332032-54.5zm0 0" fill="#5abc8b"/><path d="m218.5 348.125c-4.941406-.449219-9.941406-.6875-14.996094-.6875-48.566406 0-92.214844 21.039062-122.335937 54.5v47.722656c22.765625-55.566406 75.035156-95.90625 137.332031-101.535156zm0 0" fill="#4aa575"/><path d="m119.9375 370.214844c25.273438 12.28125 53.628906 19.183594 83.566406 19.183594 29.933594 0 58.289063-6.902344 83.5625-19.183594-24.492187-14.472656-53.054687-22.777344-83.5625-22.777344-30.507812 0-59.074218 8.304688-83.566406 22.777344zm0 0" fill="#4aa575"/><path d="m407.003906 207.441406c0 19.355469-15.691406 35.042969-35.046875 35.042969s-35.046875-15.6875-35.046875-35.042969c0-19.355468 15.691406-35.046875 35.046875-35.046875s35.046875 15.691407 35.046875 35.046875zm0 0" fill="#efb5a0"/><path d="m70.09375 207.441406c0 19.355469-15.691406 35.042969-35.046875 35.042969s-35.046875-15.6875-35.046875-35.042969c0-19.355468 15.691406-35.046875 35.046875-35.046875s35.046875 15.691407 35.046875 35.046875zm0 0" fill="#eaaa96"/><path d="m380.296875 197.601562c0 97.640626-79.152344 176.792969-176.792969 176.792969-97.644531 0-176.796875-79.152343-176.796875-176.792969 0-97.640624 79.152344-176.796874 176.796875-176.796874 97.640625 0 176.792969 79.15625 176.792969 176.796874zm0 0" fill="#f7c2ad"/><path d="m57.613281 197.601562c0-92.433593 70.9375-168.285156 161.339844-176.117187-5.09375-.441406-10.242187-.679687-15.449219-.679687-97.644531 0-176.796875 79.15625-176.796875 176.796874 0 97.640626 79.152344 176.796876 176.796875 176.796876 5.207032 0 10.355469-.242188 15.449219-.679688-90.402344-7.832031-161.339844-83.683594-161.339844-176.117188zm0 0" fill="#efb5a0"/><path d="m151.769531 355.742188-9.632812 156.257812h122.734375l-9.636719-156.257812c-16.265625-5.382813-33.65625-8.304688-51.730469-8.304688-18.074218 0-35.464844 2.921875-51.734375 8.304688zm0 0" fill="#f7c2ad"/><path d="m203.503906 389.394531c18.503906 0 36.398438-2.640625 53.339844-7.554687l-1.609375-26.097656c-16.269531-5.382813-33.660156-8.304688-51.730469-8.304688-18.074218 0-35.464844 2.921875-51.734375 8.304688l-1.609375 26.097656c16.941406 4.914062 34.835938 7.554687 53.34375 7.554687zm0 0" fill="#efb5a0"/><path d="m27.191406 184.5h352.621094c-2.320312-31.699219-13-61.078125-29.84375-85.941406h-292.933594c-16.84375 24.863281-27.523437 54.242187-29.84375 85.941406zm0 0" fill="#64d19b"/><path d="m57.035156 98.558594c-16.84375 24.863281-27.523437 54.242187-29.84375 85.941406h89.253906c23.328126-8.582031 41.289063-19.035156 54.539063-28.660156 14.609375-10.609375 25.207031-21.34375 32.519531-30.078125 7.308594 8.734375 17.90625 19.46875 32.515625 30.078125 13.25 9.625 31.210938 20.078125 54.539063 28.660156h89.253906c-2.320312-31.699219-13-61.078125-29.84375-85.941406zm0 0" fill="#5abc8b"/><path d="m203.503906 236.335938c-68.035156 0-122.40625 29.394531-152.660156 50.472656 30.683594 52.394531 87.554688 87.589844 152.660156 87.589844 65.101563 0 121.972656-35.195313 152.65625-87.589844-30.25-21.082032-84.625-50.472656-152.65625-50.472656zm0 0" fill="#64d19b"/><path d="m203.503906 0c-105.785156 0-192.152344 83.121094-197.351562 187.613281 152.914062 0 197.351562-87.820312 197.351562-87.820312s44.433594 87.820312 197.347656 87.820312c-5.199218-104.492187-91.566406-187.613281-197.347656-187.613281zm0 0" fill="#9b6a57"/><path d="m218.503906.5625c-4.953125-.371094-9.953125-.5625-15-.5625-105.785156 0-192.152344 83.121094-197.351562 187.613281 10.539062 0 20.542968-.429687 30.074218-1.207031 5.527344-98.945312 83.839844-178.453125 182.277344-185.84375zm0 0" fill="#8b5f4e"/><path d="m142.136719 512h122.730469l-6.144532-99.664062h-110.441406zm0 0" fill="#5c626b"/><path d="m73.359375 272.574219c-8.527344 4.878906-16.074219 9.746093-22.515625 14.234375 30.683594 52.394531 87.554688 87.589844 152.660156 87.589844 5.027344 0 10-.238282 14.921875-.648438-64.351562-5.433594-118.878906-45.332031-145.066406-101.175781zm0 0" fill="#5abc8b"/><g fill="#494f57"><path d="m267.191406 230.109375c-4.144531 0-7.5-3.355469-7.5-7.5v-11.351563c0-4.144531 3.355469-7.5 7.5-7.5 4.144532 0 7.5 3.355469 7.5 7.5v11.351563c0 4.144531-3.355468 7.5-7.5 7.5zm0 0"/><path d="m139.8125 230.109375c-4.140625 0-7.5-3.355469-7.5-7.5v-11.351563c0-4.144531 3.359375-7.5 7.5-7.5 4.144531 0 7.5 3.355469 7.5 7.5v11.351563c0 4.144531-3.359375 7.5-7.5 7.5zm0 0"/></g></svg>