<svg viewBox="0 0 511 511.99991" xmlns="http://www.w3.org/2000/svg"><path d="m202.804688 362.207031 14.300781-21.675781c15.117187-22.910156 12-53.628906-7.410157-73.039062l-16.246093-16.25c-6.757813-6.753907-6.757813-17.710938 0-24.46875l198.910156-198.914063c5.859375-5.859375 6.710937-15.292969 1.527344-21.761719-6.125-7.644531-17.328125-8.101562-24.058594-1.367187l-199.214844 199.210937c-6.757812 6.757813-17.710937 6.757813-24.46875 0l-16.246093-16.246094c-9.738282-9.742187-11.285157-24.988281-3.699219-36.484374l14.296875-21.671876c3.800781-5.761718 3.023437-13.398437-1.855469-18.277343-6.503906-6.507813-17.339844-5.40625-22.40625 2.269531l-14.300781 21.671875c-15.113282 22.914063-12 53.632813 7.410156 73.042969l16.25 16.246094c6.753906 6.757812 6.753906 17.714843 0 24.46875l-36.519531 36.519531 11.417969 11.414062 11.414062 11.417969 36.519531-36.519531c6.753907-6.753907 17.710938-6.753907 24.46875 0l16.246094 16.246093c9.738281 9.742188 11.285156 24.988282 3.699219 36.484376l-14.296875 21.675781c-3.796875 5.761719-3.023438 13.398437 1.855469 18.28125 6.507812 6.503906 17.34375 5.40625 22.40625-2.273438zm0 0" fill="#dfe0e0"/><path d="m393.886719 6.097656c-6.125-7.644531-17.328125-8.101562-24.058594-1.367187l-199.214844 199.210937c-6.757812 6.757813-17.710937 6.757813-24.46875 0l-16.246093-16.246094c-9.738282-9.742187-11.285157-24.988281-3.699219-36.484374l14.296875-21.671876c3.800781-5.757812 3.023437-13.398437-1.855469-18.277343-6.503906-6.507813-17.339844-5.40625-22.40625 2.269531l-14.300781 21.671875c-15.113282 22.914063-12 53.632813 7.410156 73.042969l16.25 16.246094c6.753906 6.757812 6.753906 17.714843 0 24.46875l-36.519531 36.519531 11.417969 11.414062 1.296874 1.300781zm0 0" fill="#c9caca"/><path d="m43.074219 354.976562c-9.742188-9.738281-25.53125-9.738281-35.269531 0-9.738282 9.738282-9.738282 25.527344 0 35.269532 9.738281 9.738281 25.527343 9.738281 35.269531 0 9.738281-9.742188 9.738281-25.53125 0-35.269532zm0 0" fill="#fbe067"/><path d="m22.347656 369.519531c-7.148437 7.144531-9.042968 17.546875-5.703125 26.429688-3.222656-1.214844-6.246093-3.109375-8.839843-5.703125-9.738282-9.738282-9.738282-25.527344 0-35.269532 9.742187-9.738281 25.53125-9.738281 35.269531 0 2.59375 2.59375 4.488281 5.617188 5.703125 8.839844-8.882813-3.339844-19.285156-1.445312-26.429688 5.703125zm0 0" fill="#e7ce5f"/><path d="m99.425781 263.355469 35.269531 35.269531-91.617187 91.617188-35.269531-35.265626zm0 0" fill="#e15f76"/><path d="m7.804688 354.976562 91.617187-91.617187 14.539063 14.539063-91.617188 91.617187zm0 0" fill="#cb556a"/><path d="m477.15625 317.492188-21.671875 14.296874c-22.914063 15.117188-53.632813 12-73.042969-7.40625l-16.246094-16.25c-6.757812-6.757812-17.714843-6.757812-24.46875 0l-198.914062 198.914063c-5.859375 5.859375-15.296875 6.710937-21.761719 1.527344-7.644531-6.125-8.101562-17.328125-1.371093-24.058594l199.214843-199.214844c6.757813-6.757812 6.757813-17.710937 0-24.46875l-16.246093-16.246093c-9.742188-9.742188-24.988282-11.285157-36.484376-3.703126l-21.671874 14.296876c-5.761719 3.800781-13.398438 3.027343-18.28125-1.851563-6.503907-6.507813-5.40625-17.34375 2.273437-22.410156l21.671875-14.296875c22.914062-15.117188 53.632812-12 73.042969 7.410156l16.246093 16.246094c6.757813 6.757812 17.714844 6.757812 24.46875 0l36.519532-36.515625 11.414062 11.417969 11.417969 11.414062-36.519531 36.515625c-6.753906 6.757813-6.753906 17.714844 0 24.46875l16.246094 16.246094c9.742187 9.742187 24.988281 11.289062 36.484374 3.703125l21.675782-14.296875c5.757812-3.800781 13.398437-3.027344 18.277344 1.855469 6.503906 6.507812 5.40625 17.339843-2.273438 22.40625zm0 0" fill="#dfe0e0"/><path d="m121.050781 508.574219c-7.648437-6.125-8.105469-17.328125-1.371093-24.058594l199.214843-199.214844c6.757813-6.757812 6.757813-17.710937 0-24.46875l-16.25-16.246093c-9.738281-9.738282-24.984375-11.285157-36.480469-3.699219l-21.671874 14.296875c-5.761719 3.800781-13.402344 3.023437-18.28125-1.855469-6.503907-6.503906-5.40625-17.339844 2.273437-22.40625l21.671875-14.300781c22.914062-15.113282 53.632812-12 73.042969 7.410156l16.246093 16.25c6.757813 6.753906 17.710938 6.753906 24.46875 0l36.515626-36.519531 12.714843 12.714843zm0 0" fill="#c9caca"/><path d="m505.195312 122.496094c-9.742187-9.738282-25.53125-9.738282-35.269531 0-9.738281 9.738281-9.738281 25.53125 0 35.269531s25.527344 9.738281 35.269531 0c9.738282-9.738281 9.738282-25.53125 0-35.269531zm0 0" fill="#fbe067"/><path d="m484.46875 137.035156c7.148438-7.148437 17.550781-9.042968 26.429688-5.703125-1.210938-3.222656-3.105469-6.246093-5.699219-8.839843-9.738281-9.738282-25.53125-9.738282-35.269531 0-9.738282 9.742187-9.738282 25.53125 0 35.269531 2.59375 2.59375 5.617187 4.488281 8.839843 5.703125-3.34375-8.882813-1.445312-19.285156 5.699219-26.429688zm0 0" fill="#e7ce5f"/><path d="m469.925781 122.492188 35.269531 35.265624-91.617187 91.617188-35.269531-35.265625zm0 0" fill="#e15f76"/><path d="m378.304688 214.113281 91.621093-91.617187 14.539063 14.539062-91.617188 91.617188zm0 0" fill="#cb556a"/><g fill="#bf5164"><path d="m113.5625 319.757812-11.421875 11.425782-46.082031-24.46875 11.4375-11.425782zm0 0"/><path d="m93.21875 340.105469-11.425781 11.421875-46.078125-24.457032 11.421875-11.421874zm0 0"/><path d="m72.863281 360.460938-11.425781 11.425781-46.070312-24.46875 11.425781-11.425781zm0 0"/><path d="m446.136719 216.820312-11.421875 11.4375-24.46875-46.082031 11.425781-11.421875zm0 0"/><path d="m466.484375 196.476562-11.425781 11.433594-24.464844-46.078125 11.421875-11.425781zm0 0"/><path d="m486.832031 176.128906-11.425781 11.4375-24.457031-46.089844 11.425781-11.425781zm0 0"/></g></svg>