<svg viewBox="-2 0 512 512" xmlns="http://www.w3.org/2000/svg"><path d="m496.175781 241.234375c0-12.078125-4.195312-23.171875-11.199219-31.921875 15.09375-21.585938 23.953126-47.847656 23.953126-76.183594 0-73.527344-59.605469-133.128906-133.128907-133.128906-73.527343 0-133.128906 59.601562-133.128906 133.128906 0 23.828125 6.269531 46.195313 17.234375 65.542969-31.933594 24.320313-52.554688 62.738281-52.554688 105.976563 0 73.523437 59.601563 133.128906 133.128907 133.128906 6.851562 0 13.582031-.519532 20.15625-1.519532-.464844 3.15625-.710938 6.382813-.710938 9.667969 0 36.492188 29.582031 66.074219 66.074219 66.074219 36.488281 0 66.074219-29.582031 66.074219-66.074219 0-28.878906-18.535157-53.410156-44.347657-62.398437 16.261719-22.078125 25.882813-49.351563 25.882813-78.878906 0-6.808594-.515625-13.496094-1.5-20.027344 14.449219-9.039063 24.066406-25.085938 24.066406-43.386719zm0 0" fill="#c9caca"/><path d="m82.929688 512c0-94.734375 76.796874-171.535156 171.535156-171.535156 94.734375 0 171.53125 76.800781 171.53125 171.535156zm0 0" fill="#535860"/><path d="m270.570312 341.222656c-5.304687-.492187-10.671874-.757812-16.105468-.757812-94.738282 0-171.535156 76.800781-171.535156 171.535156h32.214843c0-89.304688 68.246094-162.65625 155.425781-170.777344zm0 0" fill="#535860"/><path d="m211.121094 357.984375-9.277344-9.285156c-13.808594 4.449219-26.851562 10.601562-38.882812 18.203125l13.59375 13.59375c10.523437-8.820313 22.121093-16.394532 34.566406-22.511719zm0 0" fill="#cb556a"/><path d="m438.746094 184.285156c0 101.777344-82.503906 184.28125-184.28125 184.28125s-184.285156-82.503906-184.285156-184.28125 82.507812-184.285156 184.285156-184.285156 184.28125 82.507812 184.28125 184.285156zm0 0" fill="#5c626b"/><path d="m101.085938 184.285156c0-96.574218 74.285156-175.785156 168.828124-183.636718-5.09375-.421876-10.246093-.648438-15.449218-.648438-101.777344 0-184.285156 82.507812-184.285156 184.285156s82.507812 184.28125 184.285156 184.28125c5.203125 0 10.355468-.226562 15.453125-.648437-94.546875-7.851563-168.832031-87.0625-168.832031-183.632813zm0 0" fill="#535860"/><path d="m70.179688 184.285156c0 4.511719.171874 8.984375.488281 13.417969.703125.054687 1.410156.089844 2.121093.089844h363.347657c.710937 0 1.417969-.035157 2.121093-.089844.320313-4.433594.488282-8.90625.488282-13.417969 0-14.035156-1.574219-27.699218-4.546875-40.832031h-359.472657c-2.96875 13.132813-4.546874 26.796875-4.546874 40.832031zm0 0" fill="#535860"/><path d="m321.992188 262.648438-22.976563-9.566407c-28.515625-11.871093-60.589844-11.871093-89.101563 0l-22.980468 9.566407c-27.503906 11.453124-57.808594-8.753907-57.808594-38.546876 0-23.066406 18.695312-41.757812 41.757812-41.757812h167.160157c23.0625 0 41.757812 18.695312 41.757812 41.757812.003907 29.792969-30.304687 50-57.808593 38.546876zm0 0" fill="#f7c2ad"/><path d="m338.042969 182.34375h-167.160157c-23.0625 0-41.757812 18.695312-41.757812 41.757812 0 29.570313 29.859375 49.683594 57.199219 38.78125-15.023438-6.039062-26.292969-20.621093-26.292969-38.78125 0-.101562 0-.199218 0-.300781.101562-14.445312 12.078125-26.007812 26.523438-26.007812h183.914062c-7.65625-9.425781-19.335938-15.449219-32.425781-15.449219zm0 0" fill="#efb5a0"/><path d="m72.789062 182.34375h363.347657c7.164062 0 12.863281-6.097656 12.28125-13.238281-1.636719-20.109375-6.496094-39.300781-14.070313-57.0625-1.933594-4.539063-6.398437-7.480469-11.332031-7.480469h-337.105469c-4.929687 0-9.394531 2.941406-11.332031 7.480469-7.574219 17.761719-12.433594 36.957031-14.070313 57.0625-.582031 7.140625 5.121094 13.238281 12.28125 13.238281zm0 0" fill="#e15f76"/><path d="m91.414062 169.105469c1.636719-20.109375 6.496094-39.300781 14.070313-57.0625 1.9375-4.539063 6.398437-7.480469 11.332031-7.480469h-30.90625c-4.929687 0-9.394531 2.941406-11.332031 7.480469-7.574219 17.761719-12.433594 36.953125-14.070313 57.0625-.582031 7.136719 5.121094 13.234375 12.28125 13.234375h30.90625c-7.164062.003906-12.863281-6.09375-12.28125-13.234375zm0 0" fill="#cb556a"/><path d="m284.917969 512c36.492187 0 66.074219-29.582031 66.074219-66.074219 0-34.980469-27.1875-63.589843-61.578126-65.90625-6.984374-32.449219-28.414062-59.523437-57.230468-74.164062 4.257812-8.414063 6.671875-17.921875 6.671875-27.996094 0-10.835937-2.78125-21.015625-7.65625-29.882813 28.949219-17.015624 50.894531-44.65625 60.476562-77.570312 1.75.140625 3.515625.230469 5.300781.230469 36.492188 0 66.074219-29.582031 66.074219-66.074219s-29.582031-66.074219-66.074219-66.074219c-11.566406 0-22.433593 2.980469-31.886718 8.199219-24.417969-28.570312-60.710938-46.6875-101.242188-46.6875-73.523437 0-133.128906 59.601562-133.128906 133.128906 0 36.21875 14.472656 69.054688 37.9375 93.054688-25.6875 9.054687-44.105469 33.53125-44.105469 62.320312 0 25.996094 15.019531 48.476563 36.847657 59.261719-35.390626 9.734375-61.398438 42.128906-61.398438 80.613281 0 46.183594 37.4375 83.621094 83.621094 83.621094zm0 0" fill="#dfe0e0"/><path d="m350.992188 445.925781c0-34.980469-27.1875-63.589843-61.578126-65.90625-6.984374-32.449219-28.414062-59.523437-57.230468-74.164062 4.257812-8.414063 6.671875-17.921875 6.671875-27.996094 0-10.835937-2.78125-21.015625-7.65625-29.882813 28.949219-17.015624 50.894531-44.65625 60.476562-77.570312 1.75.140625 3.515625.230469 5.300781.230469 36.492188 0 66.074219-29.582031 66.074219-66.074219s-29.582031-66.074219-66.074219-66.074219c-11.566406 0-22.433593 2.980469-31.886718 8.199219-15.679688-18.34375-36.261719-32.371094-59.710938-40.066406-77.945312 21.488281-135.199218 92.882812-135.199218 177.660156 0 77.253906 47.539062 143.390625 114.953124 170.785156-60.191406 26.632813-102.195312 86.863282-102.203124 156.914063.230468.003906.460937.019531.691406.019531h201.296875c36.492187 0 66.074219-29.582031 66.074219-66.074219zm0 0" fill="#c9caca"/><path d="m320.074219 229.101562c-4.140625 0-7.5-3.355468-7.5-7.5v-11.695312c0-4.144531 3.359375-7.5 7.5-7.5 4.144531 0 7.5 3.355469 7.5 7.5v11.695312c0 4.144532-3.355469 7.5-7.5 7.5zm0 0" fill="#494f57"/></svg>