<svg viewBox="0 -6 511.99771 511" xmlns="http://www.w3.org/2000/svg"><path d="m48.386719 326.570312c-11.070313-11.066406-29.015625-11.066406-40.085938 0-11.066406 11.070313-11.066406 29.015626 0 40.085938 11.070313 11.066406 29.015625 11.066406 40.085938 0 11.066406-11.070312 11.066406-29.015625 0-40.085938zm0 0" fill="#fbe067"/><path d="m24.828125 343.097656c-8.121094 8.121094-10.277344 19.945313-6.476563 30.039063-3.664062-1.378907-7.101562-3.53125-10.046874-6.480469-11.070313-11.066406-11.070313-29.015625 0-40.082031 11.070312-11.070313 29.015624-11.070313 40.085937 0 2.945313 2.945312 5.101563 6.382812 6.476563 10.042969-10.09375-3.796876-21.914063-1.640626-30.039063 6.480468zm0 0" fill="#e7ce5f"/><path d="m112.433594 222.441406 40.085937 40.082032-104.128906 104.132812-40.085937-40.085938zm0 0" fill="#e15f76"/><path d="m8.300781 326.570312 104.132813-104.128906 16.523437 16.523438-104.128906 104.132812zm0 0" fill="#cb556a"/><path d="m114.023438 260.9375c-29.542969-29.542969-29.542969-77.441406 0-106.980469l49.699218-49.699219c.953125-.953124 2.496094-.953124 3.453125 0 .855469.859376.964844 2.222657.234375 3.191407-22.59375 29.960937-49.195312 66.40625-37.703125 99.945312l235.925781-205.585937c2.113282-1.839844 5.289063-1.730469 7.269532.25 1.980468 1.980468 2.089844 5.15625.25 7.269531l-205.585938 235.929687c33.539063 11.492188 69.984375-15.109374 99.945313-37.703124.96875-.730469 2.332031-.625 3.191406.234374.953125.953126.953125 2.496094 0 3.453126l-49.699219 49.695312c-29.539062 29.542969-77.4375 29.542969-106.980468 0zm0 0" fill="#dfe0e0"/><path d="m114.023438 260.9375c-29.542969-29.542969-29.542969-77.441406 0-106.980469l49.699218-49.699219c.953125-.953124 2.496094-.953124 3.453125 0 .855469.859376.964844 2.222657.234375 3.191407-22.59375 29.960937-49.195312 66.40625-37.703125 99.945312l235.925781-205.585937c2.113282-1.839844 5.289063-1.730469 7.269532.25zm0 0" fill="#c9caca"/><path d="m503.695312 132.859375c-11.066406-11.066406-29.015624-11.066406-40.082031 0-11.070312 11.070313-11.070312 29.015625 0 40.085937 11.066407 11.070313 29.015625 11.070313 40.082031 0 11.070313-11.070312 11.070313-29.015624 0-40.085937zm0 0" fill="#fbe067"/><path d="m480.140625 149.382812c8.121094-8.121093 19.945313-10.277343 30.039063-6.480468-1.378907-3.660156-3.53125-7.097656-6.480469-10.042969-11.066407-11.070313-29.015625-11.070313-40.082031 0-11.070313 11.066406-11.070313 29.015625 0 40.082031 2.945312 2.949219 6.382812 5.101563 10.042968 6.480469-3.796875-10.09375-1.640625-21.914063 6.480469-30.039063zm0 0" fill="#e7ce5f"/><path d="m463.613281 132.855469 40.085938 40.085937-104.128907 104.128906-40.085937-40.085937zm0 0" fill="#e15f76"/><path d="m503.699219 172.949219-33.078125 33.078125-11.695313 11.691406-59.359375 59.359375-40.082031-40.09375 104.128906-104.132813zm0 0" fill="#e15f76"/><path d="m359.480469 236.988281 104.128906-104.128906 16.527344 16.527344-104.128907 104.128906zm0 0" fill="#cb556a"/><path d="m397.980469 238.578125c-29.542969-29.542969-77.441407-29.542969-106.980469 0l-49.699219 49.695313c-.953125.953124-.953125 2.5 0 3.453124.859375.859376 2.222657.964844 3.191407.234376 29.960937-22.59375 66.40625-49.195313 99.945312-37.703126l-205.585938 235.929688c-1.839843 2.113281-1.730468 5.289062.25 7.269531 1.980469 1.980469 5.15625 2.089844 7.269532.246094l235.929687-205.582031c11.492188 33.539062-15.109375 69.984375-37.703125 99.945312-.730468.96875-.625 2.332032.234375 3.191406.953125.953126 2.5.953126 3.453125 0l49.695313-49.699218c29.542969-29.539063 29.542969-77.4375 0-106.980469zm0 0" fill="#dfe0e0"/><path d="m397.980469 238.578125c-29.542969-29.542969-77.441407-29.542969-106.980469 0l-49.699219 49.695313c-.953125.953124-.953125 2.5 0 3.453124.859375.859376 2.222657.964844 3.191407.234376 29.960937-22.59375 66.40625-49.195313 99.945312-37.703126l-205.585938 235.929688c-1.839843 2.113281-1.730468 5.289062.25 7.269531zm0 0" fill="#c9caca"/><g fill="#bf5164"><path d="m127.734375 287.316406-11.433594 11.4375-52.375-27.804687 11.433594-11.433594zm0 0"/><path d="m104.605469 310.445312-11.433594 11.4375-52.375-27.808593 11.433594-11.433594zm0 0"/><path d="m81.480469 333.574219-11.4375 11.433593-52.371094-27.804687 11.433594-11.433594zm0 0"/><path d="m435.789062 240.855469-11.425781 11.425781-27.804687-52.375 11.4375-11.433594zm0 0"/><path d="m458.925781 217.71875-11.433593 11.433594-27.804688-52.371094 11.433594-11.4375zm0 0"/><path d="m482.054688 194.59375-11.433594 11.433594-27.804688-52.375 11.433594-11.433594zm0 0"/></g></svg>