<svg viewBox="0 -3 512 512" xmlns="http://www.w3.org/2000/svg"><path d="m3.066406 462.105469 55.011719 31.101562v-72.714843l-55.011719 31.101562c-4.089844 2.308594-4.089844 8.199219 0 10.511719zm0 0" fill="#dfe0e0"/><path d="m0 456.847656c0 2.050782 1.023438 4.101563 3.066406 5.257813l55.011719 31.101562v-36.355469h-58.078125zm0 0" fill="#c9caca"/><path d="m3.066406 402.648438 55.011719 31.105468v-72.71875l-55.011719 31.101563c-4.089844 2.3125-4.089844 8.203125 0 10.511719zm0 0" fill="#dfe0e0"/><path d="m0 397.394531c0 2.046875 1.023438 4.097657 3.066406 5.253907l55.011719 31.105468v-36.359375zm0 0" fill="#c9caca"/><path d="m3.066406 343.191406 55.011719 31.105469v-72.71875l-55.011719 31.101563c-4.089844 2.3125-4.089844 8.203124 0 10.511718zm0 0" fill="#dfe0e0"/><path d="m0 337.9375c0 2.046875 1.023438 4.097656 3.066406 5.253906l55.011719 31.105469v-36.359375zm0 0" fill="#c9caca"/><path d="m3.066406 283.738281 55.011719 31.101563v-72.71875l-55.011719 31.101562c-4.089844 2.3125-4.089844 8.203125 0 10.515625zm0 0" fill="#dfe0e0"/><path d="m0 278.480469c0 2.050781 1.023438 4.101562 3.066406 5.257812l55.011719 31.101563v-36.359375zm0 0" fill="#c9caca"/><path d="m3.066406 224.28125 55.011719 31.101562v-72.71875l-55.011719 31.101563c-4.089844 2.3125-4.089844 8.203125 0 10.515625zm0 0" fill="#dfe0e0"/><path d="m0 219.023438c0 2.050781 1.023438 4.101562 3.066406 5.257812l55.011719 31.101562v-36.359374zm0 0" fill="#c9caca"/><path d="m203.578125 479.21875h-52.390625v-282.566406h52.390625zm0 0" fill="#dfe0e0"/><path d="m202.378906 249.28125h-49.988281c-5.507813 0-9.976563 4.46875-9.976563 9.976562v157.359376c0 5.507812 4.46875 9.972656 9.976563 9.972656h49.988281c5.507813 0 9.972656-4.464844 9.972656-9.972656v-157.359376c0-5.507812-4.464843-9.976562-9.972656-9.976562zm0 0" fill="#64d19b"/><path d="m172.941406 416.613281v-157.355469c0-5.511718 4.464844-9.976562 9.972656-9.976562h-30.523437c-5.507813 0-9.976563 4.464844-9.976563 9.976562v157.355469c0 5.511719 4.46875 9.976563 9.976563 9.976563h30.523437c-5.507812 0-9.972656-4.464844-9.972656-9.976563zm0 0" fill="#5abc8b"/><path d="m85.117188 506.90625h160.726562c5.609375 0 10.15625-4.546875 10.15625-10.160156 0-4.375-2.800781-8.257813-6.953125-9.636719l-45.46875-15.109375h-103.085937c-9.121094 0-16.519532-7.394531-16.519532-16.519531v-235.085938c0-9.125 7.398438-16.523437 16.519532-16.523437h103.085937l45.46875-15.109375c4.152344-1.378907 6.953125-5.261719 6.953125-9.636719 0-5.609375-4.546875-10.15625-10.15625-10.15625h-160.726562c-19.910157 0-36.050782 16.136719-36.050782 36.046875v265.839844c0 19.910156 16.140625 36.050781 36.050782 36.050781zm0 0" fill="#5c626b"/><path d="m508.933594 293.136719-55.011719 31.101562v-72.714843l55.011719 31.101562c4.089844 2.3125 4.089844 8.199219 0 10.511719zm0 0" fill="#dfe0e0"/><path d="m512 287.882812c0 2.046876-1.023438 4.097657-3.066406 5.253907l-55.011719 31.101562v-36.355469zm0 0" fill="#c9caca"/><path d="m508.933594 233.679688-55.011719 31.101562v-72.714844l55.011719 31.101563c4.089844 2.3125 4.089844 8.199219 0 10.511719zm0 0" fill="#dfe0e0"/><path d="m512 228.425781c0 2.046875-1.023438 4.097657-3.066406 5.253907l-55.011719 31.101562v-36.355469zm0 0" fill="#c9caca"/><path d="m508.933594 174.222656-55.011719 31.101563v-72.714844l55.011719 31.101563c4.089844 2.3125 4.089844 8.203124 0 10.511718zm0 0" fill="#dfe0e0"/><path d="m512 168.96875c0 2.050781-1.023438 4.101562-3.066406 5.257812l-55.011719 31.101563v-36.359375zm0 0" fill="#c9caca"/><path d="m508.933594 114.769531-55.011719 31.101563v-72.71875l55.011719 31.101562c4.089844 2.3125 4.089844 8.203125 0 10.515625zm0 0" fill="#dfe0e0"/><path d="m512 109.511719c0 2.050781-1.023438 4.101562-3.066406 5.257812l-55.011719 31.101563v-36.359375zm0 0" fill="#c9caca"/><path d="m508.933594 55.3125-55.011719 31.101562v-72.71875l55.011719 31.101563c4.089844 2.3125 4.089844 8.203125 0 10.515625zm0 0" fill="#dfe0e0"/><path d="m512 50.054688c0 2.050781-1.023438 4.101562-3.066406 5.257812l-55.011719 31.101562v-36.359374zm0 0" fill="#c9caca"/><path d="m308.421875 27.683594h52.390625v282.566406h-52.390625zm0 0" fill="#dfe0e0"/><path d="m359.609375 80.3125h-49.988281c-5.507813 0-9.972656 4.46875-9.972656 9.976562v157.359376c0 5.507812 4.464843 9.972656 9.972656 9.972656h49.988281c5.507813 0 9.976563-4.464844 9.976563-9.972656v-157.359376c0-5.507812-4.46875-9.976562-9.976563-9.976562zm0 0" fill="#64d19b"/><path d="m330.171875 247.648438v-157.359376c0-5.507812 4.464844-9.976562 9.976563-9.976562h-30.527344c-5.507813 0-9.972656 4.46875-9.972656 9.976562v157.359376c0 5.507812 4.464843 9.972656 9.972656 9.972656h30.527344c-5.511719 0-9.976563-4.464844-9.976563-9.972656zm0 0" fill="#5abc8b"/><path d="m426.882812 337.9375h-160.726562c-5.609375 0-10.15625-4.546875-10.15625-10.160156 0-4.375 2.800781-8.257813 6.953125-9.636719l45.46875-15.109375h103.085937c9.125 0 16.519532-7.394531 16.519532-16.519531v-235.085938c0-9.125-7.394532-16.519531-16.519532-16.519531h-103.085937l-45.46875-15.109375c-4.152344-1.382813-6.953125-5.265625-6.953125-9.640625 0-5.609375 4.546875-10.15625 10.15625-10.15625h160.726562c19.910157 0 36.046876 16.140625 36.046876 36.046875v265.84375c.003906 19.90625-16.136719 36.046875-36.046876 36.046875zm0 0" fill="#5c626b"/><g fill="#4aa575"><path d="m212.351562 362.25v16.296875l-69.941406 23.417969v-16.300782zm0 0"/><path d="m212.351562 318.074219v16.308593l-69.941406 23.417969v-16.308593zm0 0"/><path d="m212.351562 273.910156v16.300782l-69.941406 23.414062v-16.308594zm0 0"/><path d="m369.589844 216.695312v16.296876l-69.941406-23.40625v-16.308594zm0 0"/><path d="m369.589844 172.519531v16.308594l-69.941406-23.414063v-16.308593zm0 0"/><path d="m369.589844 128.355469v16.300781l-69.941406-23.417969v-16.296875zm0 0"/></g></svg>