<svg viewBox="-75 0 512 512" xmlns="http://www.w3.org/2000/svg"><path d="m209.828125 164.023438h-57.054687v-151.617188c0-6.851562 5.554687-12.40625 12.40625-12.40625h32.242187c6.851563 0 12.40625 5.554688 12.40625 12.40625zm0 0" fill="#fbe067"/><path d="m185.78125 0h-20.601562c-6.851563 0-12.40625 5.554688-12.40625 12.40625v151.617188h20.605468v-151.617188c0-6.851562 5.554688-12.40625 12.402344-12.40625zm0 0" fill="#e7ce5f"/><path d="m243.957031 213.460938h-125.3125v-87.433594c0-8.789063 7.125-15.914063 15.914063-15.914063h93.484375c8.789062 0 15.914062 7.125 15.914062 15.914063zm0 0" fill="#535860"/><path d="m165.464844 110.113281h-30.90625c-8.789063 0-15.914063 7.125-15.914063 15.914063v87.433594h30.90625v-87.433594c0-8.789063 7.125-15.914063 15.914063-15.914063zm0 0" fill="#494f57"/><path d="m362.601562 330.699219c0 100.128906-81.171874 181.300781-181.300781 181.300781-100.128906 0-181.300781-81.171875-181.300781-181.300781 0-100.128907 81.171875-181.300781 181.300781-181.300781 100.128907 0 181.300781 81.171874 181.300781 181.300781zm0 0" fill="#5c626b"/><path d="m30.90625 330.699219c0-94.921875 72.953125-172.796875 165.847656-180.640625-5.09375-.429688-10.246094-.660156-15.453125-.660156-100.128906 0-181.300781 81.171874-181.300781 181.300781 0 100.128906 81.171875 181.300781 181.300781 181.300781 5.207031 0 10.359375-.230469 15.453125-.660156-92.894531-7.84375-165.847656-85.71875-165.847656-180.640625zm0 0" fill="#535860"/><g fill="#dfe0e0"><path d="m181.300781 359.128906c-9.78125 0-18.886719-5.269531-23.765625-13.757812-2.0625-3.59375-.828125-8.175782 2.765625-10.238282 3.589844-2.066406 8.171875-.828124 10.238281 2.761719 2.210938 3.847657 6.332032 6.234375 10.761719 6.234375 4.429688 0 8.550781-2.390625 10.761719-6.234375 2.066406-3.589843 6.648438-4.828125 10.242188-2.761719 3.589843 2.0625 4.828124 6.648438 2.761718 10.238282-4.878906 8.484375-13.984375 13.757812-23.765625 13.757812zm0 0"/><path d="m246.914062 328.96875c-4.144531 0-7.5-3.359375-7.5-7.5v-11.699219c0-4.140625 3.355469-7.5 7.5-7.5 4.140626 0 7.5 3.359375 7.5 7.5v11.699219c0 4.140625-3.359374 7.5-7.5 7.5zm0 0"/><path d="m115.6875 328.96875c-4.140625 0-7.5-3.359375-7.5-7.5v-11.699219c0-4.140625 3.359375-7.5 7.5-7.5 4.144531 0 7.5 3.359375 7.5 7.5v11.699219c0 4.140625-3.355469 7.5-7.5 7.5zm0 0"/><path d="m252.761719 351.082031h-11.699219c-4.140625 0-7.5-3.355469-7.5-7.5s3.359375-7.5 7.5-7.5h11.699219c4.140625 0 7.5 3.355469 7.5 7.5s-3.359375 7.5-7.5 7.5zm0 0"/><path d="m121.539062 351.082031h-11.699218c-4.140625 0-7.5-3.355469-7.5-7.5s3.359375-7.5 7.5-7.5h11.699218c4.140626 0 7.5 3.355469 7.5 7.5s-3.359374 7.5-7.5 7.5zm0 0"/></g><path d="m152.773438 29.875h57.050781v15.453125h-57.050781zm0 0" fill="#d3ba50"/><path d="m152.773438 72.113281h57.050781v15.453125h-57.050781zm0 0" fill="#d3ba50"/></svg>