<svg viewBox="0 -3 512.00077 512" xmlns="http://www.w3.org/2000/svg"><path d="m468.042969 190.421875h-424.082031c-1.40625 0-2.648438-.902344-3.082032-2.234375l-8.664062-26.574219c-.683594-2.09375.875-4.246093 3.078125-4.246093h441.414062c2.203125 0 3.761719 2.152343 3.082031 4.246093l-8.667968 26.574219c-.433594 1.332031-1.675782 2.234375-3.078125 2.234375zm0 0" fill="#bf5164"/><path d="m64.671875 64.941406h68.601563v403.929688h-68.601563zm0 0" fill="#e15f76"/><path d="m64.671875 64.941406h30.90625v403.929688h-30.90625zm0 0" fill="#cb556a"/><path d="m146.9375 117.28125h-95.929688c-3.085937 0-5.589843-2.503906-5.589843-5.589844v-25.472656c0-3.085938 2.503906-5.585938 5.589843-5.585938h95.929688c3.085938 0 5.585938 2.5 5.585938 5.585938v25.472656c0 3.085938-2.5 5.589844-5.585938 5.589844zm0 0" fill="#cb556a"/><path d="m76.324219 111.691406v-25.472656c0-3.085938 2.5-5.585938 5.585937-5.585938h-30.902344c-3.085937 0-5.589843 2.5-5.589843 5.585938v25.472656c0 3.085938 2.503906 5.589844 5.589843 5.589844h30.902344c-3.085937 0-5.585937-2.503906-5.585937-5.589844zm0 0" fill="#bf5164"/><path d="m378.726562 64.941406h68.601563v403.929688h-68.601563zm0 0" fill="#e15f76"/><path d="m378.726562 64.941406h30.90625v403.929688h-30.90625zm0 0" fill="#cb556a"/><path d="m460.992188 117.28125h-95.929688c-3.085938 0-5.585938-2.503906-5.585938-5.589844v-25.472656c0-3.085938 2.5-5.585938 5.585938-5.585938h95.929688c3.085937 0 5.589843 2.5 5.589843 5.585938v25.472656c0 3.085938-2.503906 5.589844-5.589843 5.589844zm0 0" fill="#cb556a"/><path d="m390.382812 111.691406v-25.472656c0-3.085938 2.5-5.585938 5.585938-5.585938h-30.90625c-3.085938 0-5.585938 2.5-5.585938 5.585938v25.472656c0 3.085938 2.5 5.589844 5.585938 5.589844h30.90625c-3.085938 0-5.585938-2.503906-5.585938-5.589844zm0 0" fill="#bf5164"/><path d="m465.195312 88.65625h-418.390624c-3.03125 0-5.648438-2.121094-6.28125-5.085938l-8.046876-37.820312c-.847656-3.992188 2.199219-7.753906 6.28125-7.753906h434.484376c4.082031 0 7.128906 3.761718 6.277343 7.753906l-8.046875 37.820312c-.628906 2.964844-3.246094 5.085938-6.277344 5.085938zm0 0" fill="#e15f76"/><path d="m71.429688 83.570312-8.046876-37.820312c-.847656-3.992188 2.195313-7.753906 6.28125-7.753906h-30.90625c-4.082031 0-7.128906 3.761718-6.277343 7.753906l8.046875 37.820312c.628906 2.964844 3.246094 5.085938 6.277344 5.085938h30.90625c-3.03125 0-5.648438-2.121094-6.28125-5.085938zm0 0" fill="#cb556a"/><path d="m497.53125 50.660156h-483.0625c-3.03125 0-5.648438-2.121094-6.28125-5.085937l-8.042969-37.816407c-.851562-3.996093 2.195313-7.757812 6.277344-7.757812h499.15625c4.082031 0 7.128906 3.761719 6.28125 7.757812l-8.046875 37.816407c-.632812 2.964843-3.25 5.085937-6.28125 5.085937zm0 0" fill="#5c626b"/><path d="m39.09375 45.574219-8.046875-37.816407c-.847656-3.996093 2.195313-7.757812 6.28125-7.757812h-30.90625c-4.082031 0-7.128906 3.761719-6.277344 7.757812l8.046875 37.816407c.628906 2.964843 3.246094 5.085937 6.277344 5.085937h30.90625c-3.03125 0-5.648438-2.121094-6.28125-5.085937zm0 0" fill="#535860"/><path d="m146.9375 487.195312h-95.929688c-3.085937 0-5.589843-2.5-5.589843-5.589843v-25.46875c0-3.085938 2.503906-5.589844 5.589843-5.589844h95.929688c3.085938 0 5.585938 2.503906 5.585938 5.589844v25.46875c0 3.089843-2.5 5.589843-5.585938 5.589843zm0 0" fill="#c9caca"/><path d="m76.324219 481.605469v-25.46875c0-3.085938 2.5-5.589844 5.585937-5.589844h-30.902344c-3.085937 0-5.589843 2.503906-5.589843 5.589844v25.46875c0 3.089843 2.503906 5.589843 5.589843 5.589843h30.902344c-3.085937 0-5.585937-2.5-5.585937-5.589843zm0 0" fill="#b7b7b7"/><path d="m157.175781 505.519531h-116.410156c-2.785156 0-5.046875-2.261719-5.046875-5.050781v-26.546875c0-2.789063 2.261719-5.050781 5.046875-5.050781h116.410156c2.789063 0 5.050781 2.261718 5.050781 5.050781v26.546875c0 2.789062-2.261718 5.050781-5.050781 5.050781zm0 0" fill="#dfe0e0"/><path d="m66.625 500.46875v-26.546875c0-2.789063 2.257812-5.050781 5.046875-5.050781h-30.90625c-2.785156 0-5.046875 2.261718-5.046875 5.050781v26.546875c0 2.789062 2.261719 5.050781 5.046875 5.050781h30.90625c-2.789063 0-5.046875-2.261719-5.046875-5.050781zm0 0" fill="#c9caca"/><path d="m460.992188 487.195312h-95.929688c-3.085938 0-5.585938-2.5-5.585938-5.589843v-25.46875c0-3.085938 2.5-5.589844 5.585938-5.589844h95.929688c3.085937 0 5.589843 2.503906 5.589843 5.589844v25.46875c0 3.089843-2.503906 5.589843-5.589843 5.589843zm0 0" fill="#c9caca"/><path d="m390.382812 481.605469v-25.46875c0-3.085938 2.5-5.589844 5.585938-5.589844h-30.90625c-3.085938 0-5.585938 2.503906-5.585938 5.589844v25.46875c0 3.089843 2.5 5.589843 5.585938 5.589843h30.90625c-3.085938 0-5.585938-2.5-5.585938-5.589843zm0 0" fill="#b7b7b7"/><path d="m471.234375 505.519531h-116.410156c-2.789063 0-5.050781-2.261719-5.050781-5.050781v-26.546875c0-2.789063 2.261718-5.050781 5.050781-5.050781h116.40625c2.789062 0 5.050781 2.261718 5.050781 5.050781v26.546875c0 2.789062-2.261719 5.050781-5.046875 5.050781zm0 0" fill="#dfe0e0"/><path d="m380.679688 500.46875v-26.546875c0-2.789063 2.261718-5.050781 5.050781-5.050781h-30.90625c-2.789063 0-5.050781 2.261718-5.050781 5.050781v26.546875c0 2.789062 2.261718 5.050781 5.050781 5.050781h30.90625c-2.789063 0-5.050781-2.261719-5.050781-5.050781zm0 0" fill="#c9caca"/><path d="m288.9375 173.894531h-65.875c-2.644531 0-4.789062-2.144531-4.789062-4.789062v-94.660157c0-2.644531 2.144531-4.789062 4.789062-4.789062h65.875c2.644531 0 4.789062 2.144531 4.789062 4.789062v94.660157c0 2.644531-2.144531 4.789062-4.789062 4.789062zm0 0" fill="#dfe0e0"/><path d="m249.179688 169.105469v-94.660157c0-2.644531 2.144531-4.789062 4.789062-4.789062h-30.90625c-2.644531 0-4.789062 2.144531-4.789062 4.789062v94.660157c0 2.644531 2.144531 4.789062 4.789062 4.789062h30.90625c-2.644531 0-4.789062-2.144531-4.789062-4.789062zm0 0" fill="#c9caca"/></svg>