<svg viewBox="-75 0 512 512" xmlns="http://www.w3.org/2000/svg"><path d="m209.828125 164.023438h-57.054687v-151.617188c0-6.851562 5.554687-12.40625 12.40625-12.40625h32.242187c6.851563 0 12.40625 5.554688 12.40625 12.40625zm0 0" fill="#fbe067"/><path d="m209.828125 12.402344v151.621094h-57.050781v-151.621094c-.003906-6.847656 5.550781-12.402344 12.402344-12.402344h32.246093c6.847657 0 12.402344 5.554688 12.402344 12.402344zm0 0" fill="#fbe067"/><path d="m185.78125 0h-20.601562c-6.851563 0-12.40625 5.554688-12.40625 12.40625v151.617188h20.605468v-151.617188c0-6.851562 5.554688-12.40625 12.402344-12.40625zm0 0" fill="#e7ce5f"/><path d="m243.957031 213.460938h-125.3125v-87.433594c0-8.789063 7.125-15.914063 15.914063-15.914063h93.484375c8.789062 0 15.914062 7.125 15.914062 15.914063zm0 0" fill="#c9caca"/><path d="m165.464844 110.113281h-30.90625c-8.789063 0-15.914063 7.125-15.914063 15.914063v87.433594h30.90625v-87.433594c0-8.789063 7.125-15.914063 15.914063-15.914063zm0 0" fill="#b7b7b7"/><path d="m362.601562 330.699219c0 100.128906-81.171874 181.300781-181.300781 181.300781-100.128906 0-181.300781-81.171875-181.300781-181.300781 0-100.128907 81.171875-181.300781 181.300781-181.300781 100.128907 0 181.300781 81.171874 181.300781 181.300781zm0 0" fill="#dfe0e0"/><path d="m30.90625 330.699219c0-94.921875 72.953125-172.796875 165.847656-180.640625-5.09375-.429688-10.246094-.660156-15.453125-.660156-100.128906 0-181.300781 81.171874-181.300781 181.300781 0 100.128906 81.171875 181.300781 181.300781 181.300781 5.207031 0 10.359375-.230469 15.453125-.660156-92.894531-7.84375-165.847656-85.71875-165.847656-180.640625zm0 0" fill="#c9caca"/><g fill="#b7b7b7"><path d="m23.730469 245.851562c-.582031-.582031-1.238281-1.050781-1.933594-1.410156-2.527344 4.667969-4.847656 9.460938-6.96875 14.363282l190.066406 190-121.191406 34.710937c6.105469 3.90625 12.457031 7.457031 19.03125 10.621094l114.660156-32.835938 35.859375 35.847657c5.019532-2.171876 9.925782-4.558594 14.695313-7.160157zm0 0"/><path d="m361.90625 346.535156-76.632812-18.96875c-3.445313-.851562-6.921876.757813-8.582032 3.710938l-148.511718-148.371094 205.769531 49.9375c-4.359375-6.785156-9.167969-13.257812-14.371094-19.386719l-207.503906-50.359375c-7.460938 3.085938-14.671875 6.648438-21.589844 10.660156l8.816406 2.140626 241.429688 241.199218c2.59375-4.777344 4.972656-9.691406 7.136719-14.714844l-57.757813-57.699218 69.796875 17.277344c.882812-5.074219 1.546875-10.21875 2-15.425782zm0 0"/><path d="m85.699219 360.085938-78.230469 22.230468c1.472656 4.96875 3.140625 9.855469 5.019531 14.636719l77.433594-22.003906c4.105469-1.167969 6.488281-5.4375 5.320313-9.542969-1.164063-4.105469-5.441407-6.488281-9.542969-5.320312zm0 0"/></g><path d="m306.261719 330.699219c0 69.015625-55.945313 124.960937-124.960938 124.960937s-124.960937-55.945312-124.960937-124.960937 55.945312-124.960938 124.960937-124.960938 124.960938 55.945313 124.960938 124.960938zm0 0" fill="#e15f76"/><path d="m181.300781 351.628906c-9.785156 0-17.71875-7.933594-17.71875-17.71875v-13.289062h35.4375v13.289062c0 9.785156-7.933593 17.71875-17.71875 17.71875zm0 0" fill="#494f57"/><path d="m152.773438 29.875h57.050781v15.453125h-57.050781zm0 0" fill="#d3ba50"/><path d="m152.773438 72.113281h57.050781v15.453125h-57.050781zm0 0" fill="#d3ba50"/><path d="m246.910156 328.96875c-4.140625 0-7.5-3.359375-7.5-7.5v-11.699219c0-4.140625 3.359375-7.5 7.5-7.5 4.144532 0 7.5 3.359375 7.5 7.5v11.699219c0 4.140625-3.355468 7.5-7.5 7.5zm0 0" fill="#494f57"/><path d="m115.691406 328.96875c-4.144531 0-7.5-3.359375-7.5-7.5v-11.699219c0-4.140625 3.355469-7.5 7.5-7.5 4.140625 0 7.5 3.359375 7.5 7.5v11.699219c0 4.140625-3.359375 7.5-7.5 7.5zm0 0" fill="#494f57"/><path d="m252.761719 351.082031h-11.699219c-4.140625 0-7.5-3.355469-7.5-7.5s3.359375-7.5 7.5-7.5h11.699219c4.144531 0 7.5 3.355469 7.5 7.5s-3.355469 7.5-7.5 7.5zm0 0" fill="#dfe0e0"/><path d="m121.539062 351.082031h-11.699218c-4.144532 0-7.5-3.355469-7.5-7.5s3.355468-7.5 7.5-7.5h11.699218c4.140626 0 7.5 3.355469 7.5 7.5s-3.359374 7.5-7.5 7.5zm0 0" fill="#dfe0e0"/></svg>