<svg viewBox="0 0 512 512" xmlns="http://www.w3.org/2000/svg"><path d="m502.898438 512h-493.796876c-5.027343 0-9.101562-4.074219-9.101562-9.101562v-493.796876c0-5.027343 4.074219-9.101562 9.101562-9.101562h493.796876c5.027343 0 9.101562 4.074219 9.101562 9.101562v493.796876c0 5.027343-4.074219 9.101562-9.101562 9.101562zm0 0" fill="#9b6a57"/><path d="m0 9.101562v493.796876c0 5.027343 4.074219 9.101562 9.101562 9.101562h42.40625v-512h-42.40625c-5.027343 0-9.101562 4.074219-9.101562 9.101562zm0 0" fill="#8b5f4e"/><path d="m51.507812 453.109375v-394.21875c0-4.074219 3.304688-7.382813 7.382813-7.382813h394.21875c4.078125 0 7.382813 3.304688 7.382813 7.382813v394.21875c0 4.078125-3.304688 7.382813-7.382813 7.382813h-394.21875c-4.074219 0-7.382813-3.308594-7.382813-7.382813zm0 0" fill="#e7ce5f"/><path d="m453.109375 460.492188h-121.390625v-280.210938h128.773438v272.828125c0 4.074219-3.308594 7.382813-7.382813 7.382813zm0 0" fill="#fbe067"/><path d="m180.28125 331.71875h-128.773438v-272.828125c0-4.074219 3.304688-7.382813 7.382813-7.382813h121.390625zm0 0" fill="#fbe067"/><path d="m180.28125 180.28125h151.4375v151.4375h-151.4375zm0 0" fill="#d3ba50"/><path d="m51.507812 58.890625v272.828125h30.90625v-280.210938h-23.523437c-4.074219 0-7.382813 3.308594-7.382813 7.382813zm0 0" fill="#e7ce5f"/><path d="m331.71875 180.28125h30.902344v280.210938h-30.902344zm0 0" fill="#e7ce5f"/><g fill="#d3ba50"><path d="m180.28125 51.507812h30.90625v128.773438h-30.90625zm0 0"/><path d="m51.507812 331.71875v121.390625c0 4.078125 3.304688 7.382813 7.382813 7.382813h23.523437v-128.773438zm0 0"/></g></svg>