<svg viewBox="-17 0 511 512" xmlns="http://www.w3.org/2000/svg"><path d="m90.039062 281.96875c-2.28125 0-4.535156-1.039062-6.011718-3.007812l-76.394532-102.105469c-2.480468-3.316407-1.804687-8.015625 1.511719-10.496094 3.316407-2.484375 8.019531-1.804687 10.5 1.511719l76.394531 102.105468c2.480469 3.3125 1.804688 8.015626-1.511718 10.496094-1.347656 1.007813-2.925782 1.496094-4.488282 1.496094zm0 0" fill="#494f57"/><path d="m387.449219 281.96875c-1.5625 0-3.140625-.488281-4.488281-1.496094-3.316407-2.480468-3.992188-7.183594-1.511719-10.496094l68.929687-92.128906c2.480469-3.316406 7.179688-3.992187 10.5-1.511718 3.316406 2.480468 3.992188 7.183593 1.511719 10.5l-68.929687 92.125c-1.476563 1.96875-3.730469 3.007812-6.011719 3.007812zm0 0" fill="#494f57"/><path d="m67.210938 512c0-94.734375 76.796874-171.535156 171.535156-171.535156 94.734375 0 171.53125 76.800781 171.53125 171.535156zm0 0" fill="#5c626b"/><path d="m204.0625 343.976562v168.023438h69.363281v-168.023438c-11.199219-2.300781-22.800781-3.511718-34.679687-3.511718-11.882813 0-23.484375 1.210937-34.683594 3.511718zm0 0" fill="#f7c2ad"/><path d="m194.96875 512h87.550781v-117.726562l-87.550781 87.582031zm0 0" fill="#c9caca"/><path d="m194.96875 512h87.550781v-30.144531l-87.550781-87.582031zm0 0" fill="#dfe0e0"/><path d="m194.96875 357.546875-8.84375-8.847656c-68.992188 22.214843-118.914062 86.921875-118.914062 163.300781h30.902343c0-67.964844 39.535157-126.6875 96.855469-154.453125zm0 0" fill="#535860"/><path d="m427.71875 340.464844h-377.949219c-3.097656 0-5.613281 2.515625-5.613281 5.613281 0 34.484375 27.953125 62.4375 62.4375 62.4375h264.300781c34.484375 0 62.4375-27.953125 62.4375-62.4375 0-3.101563-2.511719-5.613281-5.613281-5.613281zm0 0" fill="#e15f76"/><path d="m75.0625 346.078125c0-3.097656 2.511719-5.613281 5.613281-5.613281h-30.90625c-3.097656 0-5.613281 2.515625-5.613281 5.613281 0 34.484375 27.953125 62.4375 62.4375 62.4375h30.90625c-34.484375 0-62.4375-27.953125-62.4375-62.4375zm0 0" fill="#cb556a"/><path d="m415.539062 197.601562c0 97.640626-79.152343 176.796876-176.792968 176.796876-97.644532 0-176.796875-79.15625-176.796875-176.796876 0-97.640624 79.152343-176.796874 176.796875-176.796874 97.640625 0 176.792968 79.15625 176.792968 176.796874zm0 0" fill="#5c626b"/><path d="m91.949219 197.601562c0-92.589843 71.175781-168.542968 161.796875-176.15625-4.949219-.417968-9.949219-.640624-15-.640624-97.644532 0-176.796875 79.15625-176.796875 176.796874 0 97.640626 79.152343 176.796876 176.796875 176.796876 5.050781 0 10.050781-.226563 15-.640626-90.621094-7.617187-161.796875-83.566406-161.796875-176.15625zm0 0" fill="#535860"/><path d="m8.269531 182.34375c-6.011719 0-9.738281-6.535156-6.671875-11.707031 23.855469-40.269531 110.839844-170.636719 237.148438-170.636719 126.304687 0 213.289062 130.367188 237.148437 170.636719 3.0625 5.171875-.664062 11.707031-6.671875 11.707031zm0 0" fill="#fbe067"/><path d="m32.5 170.636719c22.871094-38.605469 103.765625-159.992188 221.695312-169.964844-5.082031-.429687-10.230468-.671875-15.449218-.671875-126.308594 0-213.292969 130.367188-237.152344 170.636719-3.0625 5.171875.664062 11.707031 6.671875 11.707031h30.90625c-6.007813 0-9.734375-6.535156-6.671875-11.707031zm0 0" fill="#e7ce5f"/><path d="m386.792969 180.132812c-1.925781-6.453124-41.046875-134.945312-107.519531-175.617187-13.003907-2.90625-26.523438-4.515625-40.527344-4.515625-14.007813 0-27.527344 1.609375-40.53125 4.515625-66.472656 40.671875-105.59375 169.164063-107.519532 175.617187l-.660156 2.210938h16.15625c3.039063-9.609375 16.050782-48.941406 36.828125-87.726562 19.875-37.097657 50.792969-80.863282 88-86.320313v174.046875h15.453125v-174.046875c37.203125 5.457031 68.125 49.21875 88 86.320313 20.777344 38.785156 33.785156 78.117187 36.828125 87.722656h16.15625zm0 0" fill="#d3ba50"/><path d="m306.273438 262.648438-22.980469-9.566407c-28.511719-11.871093-60.585938-11.871093-89.101563 0l-22.976562 9.566407c-27.503906 11.453124-57.808594-8.753907-57.808594-38.546876 0-23.066406 18.695312-41.757812 41.757812-41.757812h167.160157c23.0625 0 41.757812 18.695312 41.757812 41.757812 0 29.792969-30.304687 50-57.808593 38.546876zm0 0" fill="#f7c2ad"/><path d="m322.324219 182.339844h-167.160157c-23.0625 0-41.757812 18.695312-41.757812 41.757812 0 29.574219 29.855469 49.6875 57.195312 38.785156-15.019531-6.039062-26.289062-20.621093-26.289062-38.785156 0-.097656 0-.199218 0-.296875.101562-14.449219 12.074219-26.007812 26.523438-26.007812h183.914062c-7.65625-9.425781-19.335938-15.453125-32.425781-15.453125zm0 0" fill="#efb5a0"/><g fill="#494f57"><path d="m304.355469 229.101562c-4.140625 0-7.5-3.355468-7.5-7.5v-11.695312c0-4.144531 3.359375-7.5 7.5-7.5 4.144531 0 7.5 3.355469 7.5 7.5v11.695312c0 4.144532-3.355469 7.5-7.5 7.5zm0 0"/><path d="m173.132812 229.101562c-4.144531 0-7.5-3.355468-7.5-7.5v-11.695312c0-4.144531 3.355469-7.5 7.5-7.5 4.140626 0 7.5 3.355469 7.5 7.5v11.695312c0 4.144532-3.359374 7.5-7.5 7.5zm0 0"/></g></svg>