<svg viewBox="-79 0 512 512.001" xmlns="http://www.w3.org/2000/svg"><path d="m256.207031 512h-242.871093c-7.367188 0-13.335938-5.96875-13.335938-13.335938v-485.328124c0-7.367188 5.972656-13.335938 13.335938-13.335938h242.871093c7.363281 0 13.335938 5.96875 13.335938 13.335938v485.328124c0 7.367188-5.972657 13.335938-13.335938 13.335938zm0 0" fill="#9b6a57"/><path d="m44.050781 498.664062v-485.328124c0-7.367188 5.96875-13.335938 13.335938-13.335938h-44.050781c-7.363282 0-13.335938 5.96875-13.335938 13.335938v485.328124c0 7.367188 5.96875 13.335938 13.335938 13.335938h44.050781c-7.367188 0-13.335938-5.96875-13.335938-13.335938zm0 0" fill="#8b5f4e"/><g fill="#7a4f42"><path d="m71.042969 197.085938c-19.144531 0-34.71875 15.574218-34.71875 34.71875v280.195312h15.453125v-280.195312c0-10.621094 8.640625-19.265626 19.265625-19.265626s19.265625 8.644532 19.265625 19.265626v280.195312h15.453125v-280.195312c0-19.144532-15.574219-34.71875-34.71875-34.71875zm0 0"/><path d="m188.140625 343.121094c-19.140625 0-34.714844 15.574218-34.714844 34.71875v134.160156h15.453125v-134.160156c0-10.621094 8.640625-19.265625 19.265625-19.265625 10.621094 0 19.265625 8.644531 19.265625 19.265625v134.160156h15.453125v-134.160156c0-19.144532-15.578125-34.71875-34.722656-34.71875zm0 0"/><path d="m161.152344 304.71875c19.140625 0 34.714844-15.574219 34.714844-34.71875v-270h-15.453126v270c0 10.621094-8.640624 19.265625-19.265624 19.265625-10.621094 0-19.265626-8.644531-19.265626-19.265625v-270h-15.453124v270c.003906 19.144531 15.578124 34.71875 34.722656 34.71875zm0 0"/><path d="m71.042969 118.320312c-19.144531 0-34.71875-15.574218-34.71875-34.71875 0-19.140624 15.574219-34.71875 34.71875-34.71875s34.71875 15.578126 34.71875 34.71875c0 19.144532-15.574219 34.71875-34.71875 34.71875zm0-53.984374c-10.625 0-19.265625 8.644531-19.265625 19.265624 0 10.625 8.640625 19.265626 19.265625 19.265626 10.621093 0 19.265625-8.640626 19.265625-19.265626 0-10.621093-8.640625-19.265624-19.265625-19.265624zm0 0"/><path d="m269.542969 332.503906v-43.605468c-6.371094-7.871094-16.101563-12.917969-26.992188-12.917969-19.144531 0-34.71875 15.574219-34.71875 34.71875s15.574219 34.71875 34.71875 34.71875c10.890625 0 20.621094-5.042969 26.992188-12.914063zm-26.992188-2.539062c-10.625 0-19.265625-8.640625-19.265625-19.265625 0-10.621094 8.640625-19.265625 19.265625-19.265625 10.621094 0 19.265625 8.644531 19.265625 19.265625 0 10.625-8.644531 19.265625-19.265625 19.265625zm0 0"/></g><path d="m329.992188 74.230469h-56.148438c-4.140625 0-7.5-3.359375-7.5-7.5 0-4.144531 3.359375-7.5 7.5-7.5h56.148438c4.144531 0 7.5 3.355469 7.5 7.5 0 4.140625-3.355469 7.5-7.5 7.5zm0 0" fill="#494f57"/><path d="m329.992188 365.90625h-56.148438c-4.140625 0-7.5-3.355469-7.5-7.5s3.359375-7.5 7.5-7.5h56.148438c4.144531 0 7.5 3.355469 7.5 7.5s-3.355469 7.5-7.5 7.5zm0 0" fill="#494f57"/><path d="m200.601562 234.996094h-56.148437c-4.140625 0-7.5-3.355469-7.5-7.5 0-4.140625 3.359375-7.5 7.5-7.5h56.148437c4.144532 0 7.5 3.359375 7.5 7.5 0 4.144531-3.355468 7.5-7.5 7.5zm0 0" fill="#494f57"/><path d="m235.921875 27.949219-74.769531 29.382812v18.792969l74.769531 29.382812 43.253906-38.78125zm0 0" fill="#5c626b"/><path d="m161.152344 76.125 74.769531 29.382812 43.253906-38.78125h-118.023437zm0 0" fill="#535860"/><path d="m354.328125 66.726562c0 13.441407-10.894531 24.335938-24.335937 24.335938-13.4375 0-24.332032-10.894531-24.332032-24.335938 0-13.4375 10.894532-24.332031 24.332032-24.332031 13.441406 0 24.335937 10.894531 24.335937 24.332031zm0 0" fill="#5c626b"/><path d="m235.921875 319.628906-74.769531 29.382813v18.792969l74.769531 29.382812 43.253906-38.78125zm0 0" fill="#5c626b"/><path d="m161.152344 367.804688 74.769531 29.382812 43.253906-38.78125h-118.023437zm0 0" fill="#535860"/><path d="m354.328125 358.40625c0 13.4375-10.894531 24.332031-24.335937 24.332031-13.4375 0-24.332032-10.894531-24.332032-24.332031s10.894532-24.332031 24.332032-24.332031c13.441406 0 24.335937 10.894531 24.335937 24.332031zm0 0" fill="#5c626b"/><path d="m118.824219 188.71875-74.773438 29.382812v18.792969l74.773438 29.382813 43.253906-38.78125zm0 0" fill="#5c626b"/><path d="m44.050781 236.894531 74.773438 29.382813 43.253906-38.78125h-118.027344zm0 0" fill="#535860"/><path d="m237.226562 227.496094c0 13.441406-10.894531 24.335937-24.332031 24.335937-13.441406 0-24.335937-10.894531-24.335937-24.335937 0-13.4375 10.894531-24.332032 24.335937-24.332032 13.4375 0 24.332031 10.894532 24.332031 24.332032zm0 0" fill="#5c626b"/><path d="m161.152344 113.007812c-4.144532 0-7.5-3.355468-7.5-7.5v-77.558593c0-4.144531 3.355468-7.5 7.5-7.5 4.140625 0 7.5 3.355469 7.5 7.5v77.558593c0 4.140626-3.359375 7.5-7.5 7.5zm0 0" fill="#7a4f42"/><path d="m161.152344 404.6875c-4.144532 0-7.5-3.359375-7.5-7.5v-77.558594c0-4.144531 3.355468-7.5 7.5-7.5 4.140625 0 7.5 3.355469 7.5 7.5v77.558594c0 4.140625-3.359375 7.5-7.5 7.5zm0 0" fill="#7a4f42"/><path d="m44.050781 273.777344c-4.140625 0-7.5-3.355469-7.5-7.5v-77.558594c0-4.144531 3.359375-7.5 7.5-7.5s7.5 3.355469 7.5 7.5v77.558594c0 4.144531-3.359375 7.5-7.5 7.5zm0 0" fill="#7a4f42"/></svg>