<svg viewBox="-79 0 512 512.00016" xmlns="http://www.w3.org/2000/svg"><path d="m5.261719 512c0-94.734375 76.796875-171.535156 171.535156-171.535156 94.734375 0 171.535156 76.800781 171.535156 171.535156zm0 0" fill="#fbe067"/><path d="m348.332031 512h-282.160156l163.246094-163.300781c68.988281 22.21875 118.914062 86.925781 118.914062 163.300781zm0 0" fill="#535860"/><path d="m5.261719 512h282.160156l-163.246094-163.300781c-68.992187 22.21875-118.914062 86.925781-118.914062 163.300781zm0 0" fill="#5c626b"/><path d="m133.019531 357.546875-8.84375-8.847656c-68.992187 22.21875-118.914062 86.925781-118.914062 163.300781h30.90625c0-67.964844 39.53125-126.6875 96.851562-154.453125zm0 0" fill="#535860"/><path d="m353.59375 197.601562c0 97.640626-79.15625 176.796876-176.796875 176.796876s-176.796875-79.15625-176.796875-176.796876c0-97.640624 79.15625-176.796874 176.796875-176.796874s176.796875 79.15625 176.796875 176.796874zm0 0" fill="#5c626b"/><path d="m176.796875 351.71875c-72.808594 0-131.828125-59.019531-131.828125-131.828125v-44.578125c0-72.808594 59.019531-131.828125 131.828125-131.828125 72.804687 0 131.828125 59.023437 131.828125 131.828125v44.578125c0 72.808594-59.023438 131.828125-131.828125 131.828125zm0 0" fill="#dfe0e0"/><path d="m75.875 219.890625v-44.578125c0-67.578125 50.851562-123.269531 116.375-130.921875-5.070312-.59375-10.226562-.90625-15.453125-.90625-72.808594 0-131.828125 59.023437-131.828125 131.828125v44.578125c0 72.808594 59.019531 131.828125 131.828125 131.828125 5.226563 0 10.382813-.3125 15.453125-.90625-65.523438-7.648438-116.375-63.34375-116.375-130.921875zm0 0" fill="#c9caca"/><path d="m176.796875 224.566406h-78.742187c-5.09375 0-8.507813 5.230469-6.460938 9.890625l27.375 62.390625c1.125 2.5625 3.664062 4.21875 6.460938 4.21875h102.730468c2.800782 0 5.335938-1.652344 6.460938-4.21875l27.378906-62.390625c2.046875-4.664062-1.367188-9.890625-6.460938-9.890625zm0 0" fill="#494f57"/><path d="m129.3125 301.066406s2.054688-31.007812 28.558594-31.007812c0 0-8.355469 9.960937-.929688 28.792968.417969 1.0625-.378906 2.214844-1.523437 2.214844zm0 0" fill="#fbe067"/><path d="m224.28125 301.066406s-2.054688-31.007812-28.558594-31.007812c0 0 8.355469 9.960937.929688 28.792968-.421875 1.0625.375 2.214844 1.519531 2.214844zm0 0" fill="#fbe067"/><path d="m30 197.601562c0-92.589843 71.175781-168.542968 161.796875-176.15625-4.945313-.417968-9.949219-.640624-15-.640624-97.644531 0-176.796875 79.15625-176.796875 176.796874 0 97.640626 79.152344 176.796876 176.796875 176.796876 5.050781 0 10.054687-.226563 15-.640626-90.621094-7.617187-161.796875-83.566406-161.796875-176.15625zm0 0" fill="#535860"/><path d="m219.757812 224.566406s3.390626 51.160156 47.121094 51.160156c0 0-13.785156-16.433593-1.535156-47.503906.691406-1.753906-.621094-3.65625-2.511719-3.65625zm0 0" fill="#fbe067"/><path d="m133.832031 224.566406s-3.390625 51.160156-47.117187 51.160156c0 0 13.785156-16.433593 1.535156-47.503906-.695312-1.753906.621094-3.65625 2.507812-3.65625zm0 0" fill="#fbe067"/><path d="m191.851562 213.40625c-1.171874 0-2.304687.144531-3.402343.398438l-.679688-23.292969c-3.621093.171875-7.285156.261719-10.988281.261719-3.691406 0-7.347656-.089844-10.960938-.261719l-.679687 23.292969c-1.09375-.25-2.230469-.398438-3.402344-.398438-8.3125 0-15.054687 6.742188-15.054687 15.054688 0 8.316406 6.742187 15.058593 15.054687 15.058593 1.328125 0 2.605469-.191406 3.832031-.511719 1.945313 4.25 6.222657 7.222657 11.226563 7.222657 5 0 9.277344-2.972657 11.222656-7.222657 1.226563.320313 2.503907.511719 3.832031.511719 8.316407 0 15.054688-6.742187 15.054688-15.058593 0-8.316407-6.738281-15.054688-15.054688-15.054688zm0 0" fill="#c9caca"/><path d="m296.328125 2.140625-5.289063 20.707031c-6.914062 27.082032-26.570312 49.101563-52.691406 59.042969-20.800781 7.917969-27.660156 33.941406-13.460937 51.082031 10.878906 13.136719 30.0625 15.621094 43.929687 5.691406l7.667969-5.492187c27.460937-19.664063 40.851563-53.59375 34.230469-86.710937l-8.835938-44.171876c-.59375-2.972656-4.800781-3.082031-5.550781-.148437zm0 0" fill="#fbe067"/><path d="m57.261719 2.140625 5.289062 20.707031c6.917969 27.082032 26.574219 49.101563 52.691407 59.042969 20.804687 7.917969 27.664062 33.941406 13.464843 51.082031-10.878906 13.136719-30.066406 15.621094-43.929687 5.691406l-7.667969-5.492187c-27.460937-19.664063-40.855469-53.59375-34.230469-86.710937l8.832032-44.171876c.597656-2.972656 4.804687-3.082031 5.550781-.148437zm0 0" fill="#fbe067"/><path d="m90.988281 110.746094c-30.601562-10.882813-36.222656-85.980469-37.246093-110.636719-.953126.25-1.785157.976563-2.027344 2.179687l-8.835938 44.171876c-6.621094 33.121093 6.769532 67.046874 34.230469 86.710937l7.667969 5.492187c10.4375 7.476563 23.890625 7.910157 34.542968 2.070313 0 0 8.367188-16.941406-28.332031-29.988281zm0 0" fill="#e7ce5f"/><path d="m262.601562 110.746094c30.605469-10.882813 36.222657-85.980469 37.246094-110.636719.957032.25 1.789063.976563 2.03125 2.179687l8.832032 44.171876c6.625 33.121093-6.769532 67.046874-34.230469 86.710937l-7.667969 5.492187c-10.4375 7.476563-23.886719 7.910157-34.539062 2.070313 0 0-8.371094-16.941406 28.328124-29.988281zm0 0" fill="#e7ce5f"/><g fill="#494f57"><path d="m242.40625 203.042969c-4.140625 0-7.5-3.359375-7.5-7.5v-11.699219c0-4.144531 3.359375-7.5 7.5-7.5 4.144531 0 7.5 3.355469 7.5 7.5v11.699219c0 4.140625-3.355469 7.5-7.5 7.5zm0 0"/><path d="m111.183594 203.042969c-4.140625 0-7.5-3.359375-7.5-7.5v-11.699219c0-4.144531 3.359375-7.5 7.5-7.5s7.5 3.355469 7.5 7.5v11.699219c0 4.140625-3.359375 7.5-7.5 7.5zm0 0"/><path d="m176.78125 198.273438c-38.074219 0-73.554688-8.894532-99.898438-25.054688-3.53125-2.164062-4.640624-6.78125-2.476562-10.3125 2.167969-3.53125 6.785156-4.636719 10.316406-2.472656 23.671875 14.515625 57.226563 22.839844 92.058594 22.839844 34.835938 0 68.390625-8.324219 92.0625-22.839844 3.53125-2.164063 8.148438-1.058594 10.3125 2.472656s1.058594 8.148438-2.472656 10.3125c-26.347656 16.160156-61.824219 25.054688-99.902344 25.054688zm0 0"/></g></svg>