<svg viewBox="-93 0 512 512.001" xmlns="http://www.w3.org/2000/svg"><path d="m313.265625 512h-242.871094c-7.367187 0-13.335937-5.96875-13.335937-13.335938v-485.328124c0-7.367188 5.972656-13.335938 13.335937-13.335938h242.871094c7.363281 0 13.335937 5.96875 13.335937 13.335938v485.328124c0 7.367188-5.972656 13.335938-13.335937 13.335938zm0 0" fill="#9b6a57"/><path d="m101.109375 498.664062v-485.328124c0-7.367188 5.96875-13.335938 13.335937-13.335938h-44.050781c-7.363281 0-13.335937 5.96875-13.335937 13.335938v485.328124c0 7.367188 5.96875 13.335938 13.335937 13.335938h44.050781c-7.367187 0-13.335937-5.96875-13.335937-13.335938zm0 0" fill="#8b5f4e"/><g fill="#7a4f42"><path d="m255.558594 197.085938c-19.144532 0-34.71875 15.574218-34.71875 34.71875v280.195312h15.453125v-280.195312c0-10.621094 8.644531-19.265626 19.265625-19.265626 10.625 0 19.265625 8.644532 19.265625 19.265626v280.195312h15.453125v-280.195312c0-19.144532-15.574219-34.71875-34.71875-34.71875zm0 0"/><path d="m138.457031 343.121094c-19.144531 0-34.71875 15.574218-34.71875 34.71875v134.160156h15.453125v-134.160156c0-10.621094 8.644532-19.265625 19.269532-19.265625 10.621093 0 19.265624 8.644531 19.265624 19.265625v134.160156h15.453126v-134.160156c-.003907-19.144532-15.578126-34.71875-34.722657-34.71875zm0 0"/><path d="m165.449219 304.71875c19.144531 0 34.71875-15.574219 34.71875-34.71875v-270h-15.453125v270c0 10.621094-8.640625 19.265625-19.265625 19.265625s-19.265625-8.644531-19.265625-19.265625v-270h-15.453125v270c0 19.144531 15.578125 34.71875 34.71875 34.71875zm0 0"/><path d="m255.558594 118.320312c-19.144532 0-34.71875-15.574218-34.71875-34.71875 0-19.140624 15.574218-34.71875 34.71875-34.71875 19.144531 0 34.71875 15.578126 34.71875 34.71875 0 19.144532-15.574219 34.71875-34.71875 34.71875zm0-53.984374c-10.625 0-19.265625 8.644531-19.265625 19.265624 0 10.625 8.640625 19.265626 19.265625 19.265626s19.265625-8.640626 19.265625-19.265626c0-10.621093-8.644531-19.265624-19.265625-19.265624zm0 0"/><path d="m84.050781 275.980469c-10.890625 0-20.621093 5.046875-26.992187 12.917969v43.605468c6.371094 7.867188 16.101562 12.914063 26.992187 12.914063 19.144531 0 34.71875-15.574219 34.71875-34.71875s-15.574219-34.71875-34.71875-34.71875zm0 53.984375c-10.621093 0-19.265625-8.640625-19.265625-19.265625 0-10.621094 8.644532-19.265625 19.265625-19.265625 10.625 0 19.265625 8.644531 19.265625 19.265625 0 10.625-8.640625 19.265625-19.265625 19.265625zm0 0"/></g><path d="m282.019531 341.507812-30.785156-30.785156c-14.480469-14.484375-37.96875-14.484375-52.457031 0l-7.785156 7.789063c-2.410157 2.410156-6.304688 2.410156-8.714844 0l-3.113282-3.109375c-5.570312-5.574219-9.21875-12.773438-10.425781-20.5625l-3.582031-23.148438c-.042969-.257812-.125-.472656-.25-.671875-.039062-.082031-.101562-.164062-.164062-.234375-.050782-.054687-.09375-.113281-.152344-.15625-.0625-.0625-.132813-.113281-.207032-.164062-.007812-.011719-.03125-.019532-.039062-.019532-.0625-.050781-.136719-.082031-.207031-.113281-.011719-.011719-.03125-.023437-.050781-.03125-.085938-.03125-.167969-.0625-.25-.082031-.09375-.023438-.195313-.042969-.285157-.054688-.515625-.058593-1.050781.09375-1.476562.515626l-30.78125 30.773437c-14.484375 14.496094-14.484375 37.984375 0 52.46875l7.800781 7.785156c2.398438 2.410157 2.398438 6.304688 0 8.707031l-3.121094 3.121094c-5.574218 5.570313-12.773437 9.21875-20.5625 10.425782l-23.148437 3.574218c-.90625.144532-1.484375.886719-1.535157 1.6875v.023438c-.007812.164062 0 .328125.042969.492187.019531.09375.050781.1875.082031.28125.082032.214844.214844.421875.402344.605469l30.78125 30.773438c14.484375 14.496093 37.972656 14.496093 52.457032 0l7.785156-7.789063c2.414062-2.398437 6.308594-2.398437 8.714844 0l3.113281 3.113281c5.574219 5.570313 9.21875 12.785156 10.425781 20.570313l3.585938 23.148437c.03125.226563.113281.433594.214843.617188.050781.09375.113281.1875.175781.257812.007813.011719.007813.023438.019532.03125.125.136719.257812.25.414062.351563.089844.0625.195313.101562.308594.15625.09375.03125.183594.058593.285156.082031.09375.019531.199219.039062.300782.039062.472656.03125.96875-.132812 1.359374-.523437l30.78125-30.78125c14.484376-14.484375 14.484376-37.972656 0-52.457031l-7.796874-7.800782c-2.398438-2.398437-2.398438-6.292968 0-8.703124l3.121093-3.113282c5.5625-5.570312 12.773438-9.230468 20.5625-10.421875l23.148438-3.585937c.894531-.136719 1.472656-.867188 1.535156-1.648438.039063-.5-.117187-1.023437-.527344-1.433594zm-81.078125 39.648438c-8.148437 7.738281-21.023437 7.613281-29.019531-.378906-.144531-.144532-.277344-.300782-.421875-.441406-.082031.058593-.175781.132812-.257812.195312-7.796876-8.285156-7.644532-21.316406.453124-29.414062.164063-.164063.339844-.339844.515626-.492188.0625.09375.125.175781.195312.265625 8.160156-7.652344 20.976562-7.507813 28.9375.464844.144531.144531.289062.289062.421875.445312.082031-.0625.175781-.136719.257813-.199219 7.800781 8.285157 7.644531 21.304688-.453126 29.402344-.140624.144532-.285156.277344-.429687.410156-.0625-.082031-.136719-.175781-.199219-.257812zm0 0" fill="#c9caca"/><path d="m282.542969 342.9375c-26.527344-12.527344-57.617188-8.960938-80.519531 8.664062-.082032.0625-.171876.132813-.257813.195313-.132813-.152344-.277344-.296875-.421875-.441406-7.960938-7.972657-20.777344-8.117188-28.9375-.464844-.070312-.09375-.132812-.175781-.195312-.269531-17.605469-22.890625-21.167969-53.949219-8.664063-80.457032.09375.011719.195313.03125.289063.054688.082031.019531.164062.050781.246093.082031.019531.007813.042969.019531.050781.03125.074219.03125.144532.0625.207032.113281.011718 0 .03125.007813.042968.019532.070313.050781.140626.101562.203126.164062.0625.042969.105468.105469.15625.15625.0625.070313.121093.152344.164062.234375.121094.199219.207031.414063.246094.671875l3.585937 23.148438c1.203125 7.789062 4.851563 14.988281 10.425781 20.5625l3.109376 3.109375c2.410156 2.410156 6.304687 2.410156 8.714843 0l7.789063-7.789063c14.484375-14.484375 37.972656-14.484375 52.457031 0l30.78125 30.785156c.414063.410157.570313.933594.527344 1.429688zm0 0" fill="#dfe0e0"/><path d="m209.835938 461.976562c-.105469 0-.207032-.023437-.300782-.042968-.101562-.019532-.195312-.050782-.289062-.082032-.113282-.050781-.214844-.09375-.308594-.15625-.15625-.101562-.289062-.214843-.410156-.347656-.011719-.011718-.011719-.023437-.023438-.03125-.0625-.074218-.121094-.164062-.171875-.257812-.105469-.1875-.1875-.390625-.21875-.617188l-3.585937-23.148437c-1.203125-7.789063-4.851563-15-10.425782-20.574219l-3.109374-3.109375c-2.410157-2.402344-6.304688-2.402344-8.714844 0l-7.789063 7.785156c-14.484375 14.496094-37.972656 14.496094-52.457031 0l-30.78125-30.769531c-.1875-.1875-.320312-.390625-.402344-.609375-.03125-.09375-.0625-.183594-.082031-.277344-.039063-.164062-.050781-.332031-.039063-.496093 0-.007813 0-.007813 0-.019532 26.527344 12.515625 57.625 8.941406 80.515626-8.695312.082031-.0625.175781-.132813.261718-.195313.140625.144531.277344.296875.421875.441407 7.992188 7.996093 20.871094 8.117187 29.019531.382812.0625.082031.132813.171875.195313.257812 17.65625 22.902344 21.230469 54.023438 8.695313 80.5625zm0 0" fill="#b7b7b7"/><path d="m191.296875 112.59375-30.78125-30.78125c-14.484375-14.484375-37.972656-14.484375-52.457031 0l-7.789063 7.789062c-2.410156 2.410157-6.304687 2.410157-8.714843 0l-3.109376-3.113281c-5.574218-5.574219-9.21875-12.773437-10.425781-20.5625l-3.585937-23.148437c-.039063-.257813-.121094-.472656-.246094-.667969-.039062-.082031-.101562-.164063-.164062-.238281-.050782-.050782-.09375-.113282-.15625-.152344-.058594-.0625-.132813-.113281-.203126-.164062-.011718-.011719-.03125-.023438-.042968-.023438-.0625-.050781-.132813-.082031-.203125-.113281-.011719-.007813-.03125-.019531-.054688-.03125-.082031-.03125-.164062-.0625-.246093-.082031-.09375-.019532-.195313-.039063-.289063-.050782-.515625-.0625-1.050781.09375-1.472656.515625l-30.78125 30.769531c-14.484375 14.496094-14.484375 37.984376 0 52.46875l7.800781 7.789063c2.398438 2.410156 2.398438 6.304687 0 8.703125l-3.121094 3.121094c-5.574218 5.574218-12.777344 9.222656-20.5625 10.425781l-23.148437 3.574219c-.90625.144531-1.4843752.886718-1.5351565 1.691406v.019531c-.01171875.164063 0 .332031.0390625.496094.0234375.09375.0507812.183594.082031.277344.082032.214843.21875.421875.402344.609375l30.78125 30.769531c14.484375 14.496094 37.972656 14.496094 52.457031 0l7.789063-7.789063c2.410156-2.398437 6.304687-2.398437 8.714844 0l3.113281 3.113282c5.570312 5.574218 9.21875 12.785156 10.425781 20.574218l3.582031 23.144532c.03125.230468.113281.433594.21875.621094.050781.089843.113281.183593.171875.257812.011719.007812.011719.019531.023438.03125.125.132812.257812.246094.410156.347656.09375.0625.199219.105469.308594.15625.09375.03125.1875.0625.289062.082032.09375.019531.195313.039062.300782.039062.472656.03125.96875-.132812 1.359374-.523438l30.78125-30.78125c14.484376-14.484374 14.484376-37.972656 0-52.457031l-7.796874-7.796875c-2.402344-2.402344-2.402344-6.296875 0-8.707031l3.121093-3.109375c5.5625-5.574219 12.773438-9.230469 20.5625-10.425781l23.148438-3.585938c.894531-.132812 1.472656-.863281 1.53125-1.648437.039062-.496094-.113281-1.019532-.527344-1.433594zm-81.074219 39.652344c-8.148437 7.738281-21.027344 7.613281-29.019531-.382813-.144531-.140625-.277344-.296875-.421875-.441406-.082031.0625-.175781.132813-.257812.195313-7.800782-8.28125-7.644532-21.3125.453124-29.410157.164063-.167969.339844-.339843.515626-.496093.0625.09375.121093.175781.195312.269531 8.160156-7.65625 20.972656-7.511719 28.9375.464843.144531.144532.289062.285157.421875.441407.082031-.0625.175781-.132813.257813-.195313 7.796874 8.28125 7.644531 21.304688-.453126 29.402344-.144531.140625-.289062.277344-.433593.410156-.0625-.082031-.132813-.175781-.195313-.257812zm0 0" fill="#c9caca"/><path d="m191.824219 114.027344c-26.527344-12.527344-57.617188-8.964844-80.519531 8.664062-.082032.0625-.175782.132813-.257813.195313-.136719-.15625-.277344-.300781-.421875-.445313-7.964844-7.972656-20.78125-8.117187-28.9375-.460937-.074219-.09375-.136719-.175781-.199219-.269531-17.605469-22.890626-21.167969-53.949219-8.664062-80.457032.09375.011719.199219.03125.289062.050782.082031.019531.164063.050781.246094.082031.023437.011719.042969.019531.054687.03125.070313.03125.144532.0625.203126.113281.011718 0 .03125.007812.042968.019531.070313.050781.144532.105469.207032.167969.0625.039062.101562.101562.152343.152344.0625.070312.125.15625.164063.238281.125.195313.207031.410156.25.667969l3.582031 23.148437c1.207031 7.789063 4.851563 14.988281 10.425781 20.5625l3.113282 3.109375c2.410156 2.414063 6.304687 2.414063 8.714843 0l7.785157-7.785156c14.484374-14.484375 37.972656-14.484375 52.457031 0l30.785156 30.78125c.414063.414062.566406.9375.527344 1.433594zm0 0" fill="#dfe0e0"/><path d="m119.113281 233.0625c-.101562 0-.207031-.019531-.300781-.039062-.101562-.019532-.195312-.050782-.285156-.082032-.113282-.050781-.21875-.09375-.308594-.15625-.15625-.101562-.289062-.214844-.414062-.347656-.007813-.011719-.007813-.023438-.019532-.03125-.0625-.074219-.125-.167969-.175781-.257812-.101563-.1875-.183594-.390626-.214844-.621094l-3.585937-23.144532c-1.207032-7.789062-4.851563-15-10.425782-20.574218l-3.113281-3.113282c-2.410156-2.398437-6.304687-2.398437-8.714843 0l-7.785157 7.789063c-14.484375 14.496094-37.972656 14.496094-52.457031 0l-30.785156-30.769531c-.183594-.1875-.316406-.390625-.398438-.609375-.0312498-.09375-.0624998-.183594-.082031-.277344-.04296875-.164063-.0546875-.332031-.04296875-.496094 0-.007812 0-.007812 0-.019531 26.52734375 12.515625 57.62890575 8.941406 80.51953175-8.695312.082031-.0625.175781-.132813.257812-.195313.144531.144531.277344.296875.421875.441406 7.992187 7.996094 20.871094 8.117188 29.019531.382813.0625.082031.132813.175781.195313.257812 17.65625 22.898438 21.230469 54.023438 8.695312 80.558594zm0 0" fill="#b7b7b7"/></svg>