<svg viewBox="-55 0 512 512.00002" xmlns="http://www.w3.org/2000/svg"><path d="m54.234375 213.335938c-16.371094 0-29.691406-13.316407-29.691406-29.691407 0-16.371093 13.320312-29.691406 29.691406-29.691406 16.375 0 29.691406 13.320313 29.691406 29.691406 0 16.375-13.320312 29.691407-29.691406 29.691407zm0-44.394532c-8.109375 0-14.703125 6.597656-14.703125 14.707032 0 8.105468 6.59375 14.703124 14.703125 14.703124s14.707031-6.597656 14.707031-14.703124c0-8.109376-6.597656-14.707032-14.707031-14.707032zm0 0" fill="#d3ba50"/><path d="m348.578125 213.335938c-16.371094 0-29.691406-13.316407-29.691406-29.691407 0-16.371093 13.320312-29.691406 29.691406-29.691406 16.375 0 29.691406 13.320313 29.691406 29.691406 0 16.375-13.320312 29.691407-29.691406 29.691407zm0-44.394532c-8.109375 0-14.703125 6.597656-14.703125 14.707032 0 8.105468 6.59375 14.703124 14.703125 14.703124s14.707031-6.597656 14.707031-14.703124c0-8.109376-6.597656-14.707032-14.707031-14.707032zm0 0" fill="#d3ba50"/><path d="m96.167969 244.425781h-83.867188v-30.277343c0-4.585938 3.714844-8.304688 8.300781-8.304688h67.265626c4.585937 0 8.300781 3.71875 8.300781 8.304688zm0 0" fill="#fbe067"/><path d="m50.777344 205.84375h-30.175782c-4.585937 0-8.300781 3.71875-8.300781 8.304688v30.277343h30.171875v-30.277343c0-4.585938 3.71875-8.304688 8.304688-8.304688zm0 0" fill="#e7ce5f"/><path d="m54.234375 512c-29.949219 0-54.23046875-24.28125-54.23046875-54.230469v-212.445312c0-5.597657 4.53515575-10.132813 10.13281275-10.132813h88.199219c5.59375 0 10.128906 4.535156 10.128906 10.132813v212.445312c0 29.949219-24.277344 54.230469-54.230469 54.230469zm0 0" fill="#9b6a57"/><path d="m30.179688 457.769531v-212.445312c0-5.597657 4.535156-10.132813 10.128906-10.132813h-30.175782c-5.59375 0-10.12890575 4.535156-10.12890575 10.132813v212.445312c0 29.949219 24.28124975 54.230469 54.23046875 54.230469 5.238281 0 10.296875-.757812 15.085937-2.144531-22.605468-6.535157-39.140624-27.371094-39.140624-52.085938zm0 0" fill="#8b5f4e"/><path d="m.00390625 281.023438h108.46093775v144.914062h-108.46093775zm0 0" fill="#dfe0e0"/><path d="m.00390625 281.023438h30.17187475v144.914062h-30.17187475zm0 0" fill="#c9caca"/><path d="m306.644531 244.425781h83.871094v-30.277343c0-4.585938-3.71875-8.304688-8.304687-8.304688h-67.265626c-4.582031 0-8.300781 3.71875-8.300781 8.304688zm0 0" fill="#fbe067"/><path d="m345.121094 205.84375h-30.175782c-4.582031 0-8.300781 3.71875-8.300781 8.304688v30.277343h30.171875v-30.277343c0-4.585938 3.71875-8.304688 8.304688-8.304688zm0 0" fill="#e7ce5f"/><path d="m348.578125 512c29.953125 0 54.230469-24.28125 54.230469-54.230469v-212.445312c0-5.597657-4.535156-10.132813-10.128906-10.132813h-88.199219c-5.597657 0-10.132813 4.535156-10.132813 10.132813v212.445312c0 29.949219 24.28125 54.230469 54.230469 54.230469zm0 0" fill="#9b6a57"/><path d="m324.523438 457.769531v-212.445312c0-5.597657 4.535156-10.132813 10.128906-10.132813h-30.171875c-5.59375 0-10.132813 4.535156-10.132813 10.132813v212.445312c0 29.949219 24.28125 54.230469 54.230469 54.230469 5.238281 0 10.296875-.757812 15.089844-2.144531-22.609375-6.535157-39.144531-27.371094-39.144531-52.085938zm0 0" fill="#8b5f4e"/><path d="m294.347656 281.023438h108.464844v144.914062h-108.464844zm0 0" fill="#dfe0e0"/><path d="m294.347656 281.023438h30.175782v144.914062h-30.175782zm0 0" fill="#c9caca"/><g fill="#b7b7b7"><path d="m108.464844 300.503906v15.753906l-108.464844 29.03125v-15.765624zm0 0"/><path d="m108.464844 361.683594v15.753906l-108.464844 29.03125v-15.761719zm0 0"/><path d="m402.8125 300.492188v15.765624l-108.460938 29.023438v-15.757812zm0 0"/><path d="m402.8125 361.671875v15.765625l-108.460938 29.023438v-15.753907zm0 0"/></g><path d="m54.234375 168.941406c-4.136719 0-7.492187-3.355468-7.492187-7.492187v-35.765625c0-4.136719 3.355468-7.492188 7.492187-7.492188 4.140625 0 7.492187 3.355469 7.492187 7.492188v35.765625c0 4.136719-3.351562 7.492187-7.492187 7.492187zm0 0" fill="#c9caca"/><path d="m73.476562 78.167969c-1.914062 0-3.832031-.730469-5.296874-2.191407-2.925782-2.929687-2.925782-7.671874 0-10.597656l40.984374-40.984375c2.925782-2.925781 7.671876-2.925781 10.597657 0s2.925781 7.667969 0 10.597657l-40.984375 40.984374c-1.464844 1.460938-3.382813 2.191407-5.300782 2.191407zm0 0" fill="#c9caca"/><path d="m230.386719 37.183594h-57.960938c-4.136719 0-7.492187-3.351563-7.492187-7.492188s3.355468-7.492187 7.492187-7.492187h57.960938c4.140625 0 7.496093 3.351562 7.496093 7.492187s-3.355468 7.492188-7.496093 7.492188zm0 0" fill="#c9caca"/><path d="m66.335938 133.175781h-24.203126c-9.699218 0-17.589843-7.890625-17.589843-17.589843v-37.765626c0-9.699218 7.890625-17.589843 17.589843-17.589843h24.203126c9.699218 0 17.589843 7.890625 17.589843 17.589843v37.765626c0 9.699218-7.890625 17.589843-17.589843 17.589843zm-24.203126-57.960937c-1.4375 0-2.601562 1.167968-2.601562 2.601562v37.769532c0 1.4375 1.164062 2.605468 2.601562 2.605468h24.203126c1.4375 0 2.605468-1.167968 2.605468-2.605468v-37.765626c0-1.4375-1.167968-2.605468-2.605468-2.605468zm0 0" fill="#dfe0e0"/><path d="m162.328125 59.382812h-37.769531c-9.695313 0-17.589844-7.890624-17.589844-17.589843v-24.203125c0-9.699219 7.894531-17.589844 17.589844-17.589844h37.769531c9.699219 0 17.589844 7.890625 17.589844 17.589844v24.203125c0 9.699219-7.890625 17.589843-17.589844 17.589843zm-37.769531-44.398437c-1.433594 0-2.601563 1.167969-2.601563 2.605469v24.203125c0 1.4375 1.167969 2.605469 2.601563 2.605469h37.769531c1.4375 0 2.605469-1.167969 2.605469-2.605469v-24.203125c0-1.4375-1.167969-2.605469-2.605469-2.605469zm0 0" fill="#dfe0e0"/><path d="m348.578125 168.941406c-4.136719 0-7.492187-3.355468-7.492187-7.492187v-35.765625c0-4.136719 3.355468-7.492188 7.492187-7.492188 4.140625 0 7.496094 3.355469 7.496094 7.492188v35.765625c0 4.136719-3.355469 7.492187-7.496094 7.492187zm0 0" fill="#c9caca"/><path d="m329.335938 78.167969c-1.914063 0-3.835938-.730469-5.296876-2.191407l-40.984374-40.984374c-2.925782-2.929688-2.925782-7.671876 0-10.597657 2.925781-2.925781 7.671874-2.925781 10.59375 0l40.988281 40.984375c2.925781 2.925782 2.925781 7.671875 0 10.597656-1.464844 1.460938-3.382813 2.191407-5.300781 2.191407zm0 0" fill="#c9caca"/><path d="m360.679688 133.175781h-24.203126c-9.699218 0-17.589843-7.890625-17.589843-17.589843v-37.765626c0-9.699218 7.890625-17.589843 17.589843-17.589843h24.203126c9.699218 0 17.589843 7.890625 17.589843 17.589843v37.765626c0 9.699218-7.890625 17.589843-17.589843 17.589843zm-24.203126-57.960937c-1.433593 0-2.601562 1.167968-2.601562 2.601562v37.769532c0 1.4375 1.167969 2.605468 2.601562 2.605468h24.203126c1.4375 0 2.605468-1.167968 2.605468-2.605468v-37.765626c0-1.4375-1.167968-2.605468-2.605468-2.605468zm0 0" fill="#dfe0e0"/><path d="m278.253906 59.382812h-37.769531c-9.699219 0-17.589844-7.890624-17.589844-17.589843v-24.203125c0-9.699219 7.890625-17.589844 17.589844-17.589844h37.769531c9.699219 0 17.589844 7.890625 17.589844 17.589844v24.203125c0 9.699219-7.890625 17.589843-17.589844 17.589843zm-37.769531-44.398437c-1.433594 0-2.601563 1.167969-2.601563 2.605469v24.203125c0 1.4375 1.167969 2.605469 2.601563 2.605469h37.769531c1.4375 0 2.605469-1.167969 2.605469-2.605469v-24.203125c0-1.4375-1.167969-2.605469-2.605469-2.605469zm0 0" fill="#dfe0e0"/></svg>