<svg viewBox="-18 0 512 512" xmlns="http://www.w3.org/2000/svg"><path d="m468.640625 221.921875h-461.964844c-3.6875 0-6.675781-2.992187-6.675781-6.675781v-31.800782c0-3.683593 2.988281-6.671874 6.675781-6.671874h461.964844c3.6875 0 6.675781 2.988281 6.675781 6.671874v31.800782c0 3.6875-2.988281 6.675781-6.675781 6.675781zm0 0" fill="#9b6a57"/><path d="m468.640625 201.316406h-461.964844c-3.6875 0-6.675781-2.988281-6.675781-6.675781v20.605469c0 3.6875 2.988281 6.675781 6.675781 6.675781h461.964844c3.6875 0 6.675781-2.988281 6.675781-6.675781v-20.605469c0 3.6875-2.988281 6.675781-6.675781 6.675781zm0 0" fill="#8b5f4e"/><path d="m215.085938 505.324219v-276.777344c0-3.6875 2.988281-6.675781 6.671874-6.675781h31.800782c3.683594 0 6.671875 2.988281 6.671875 6.675781v276.777344c0 3.6875-2.988281 6.675781-6.671875 6.675781h-31.800782c-3.6875 0-6.671874-2.988281-6.671874-6.675781zm0 0" fill="#9b6a57"/><path d="m235.6875 505.324219v-276.777344c0-3.6875 2.988281-6.675781 6.675781-6.675781h-20.605469c-3.6875 0-6.675781 2.988281-6.675781 6.675781v276.777344c0 3.6875 2.988281 6.675781 6.675781 6.675781h20.605469c-3.6875 0-6.675781-2.988281-6.675781-6.675781zm0 0" fill="#8b5f4e"/><path d="m287.945312 444.199219h-100.574218c-7.585938 0-13.019532-7.324219-10.820313-14.582031l26.445313-87.265626h69.320312l26.445313 87.265626c2.203125 7.257812-3.230469 14.582031-10.816407 14.582031zm0 0" fill="#e7ce5f"/><path d="m207.457031 429.617188 26.445313-87.265626h-30.90625l-26.441406 87.265626c-2.203126 7.257812 3.230468 14.582031 10.816406 14.582031h30.90625c-7.585938 0-13.019532-7.324219-10.820313-14.582031zm0 0" fill="#d3ba50"/><path d="m101.550781 276.527344c-29.425781 0-53.277343-23.851563-53.277343-53.277344v-20.285156c0-29.425782 23.851562-53.277344 53.277343-53.277344s53.277344 23.851562 53.277344 53.277344v20.285156c0 29.425781-23.851563 53.277344-53.277344 53.277344zm0 0" fill="#e7ce5f"/><path d="m154.828125 223.25v-20.285156c0-25.402344-17.78125-46.640625-41.578125-51.972656-.789062.855468-1.5625 1.734374-2.304688 2.648437-10.792968 13.253906-14.996093 30.460937-11.535156 47.199219l.109375.523437 20.15625 71.996094c20.5-7.414063 35.152344-27.046875 35.152344-50.109375zm0 0" fill="#d3ba50"/><path d="m373.765625 276.527344c-29.425781 0-53.277344-23.851563-53.277344-53.277344v-20.285156c0-29.425782 23.851563-53.277344 53.277344-53.277344 29.421875 0 53.277344 23.851562 53.277344 53.277344v20.285156c0 29.425781-23.855469 53.277344-53.277344 53.277344zm0 0" fill="#e7ce5f"/><path d="m362.066406 150.992188c-23.796875 5.332031-41.578125 26.570312-41.578125 51.972656v20.285156c0 23.0625 14.652344 42.695312 35.152344 50.109375l20.15625-71.996094.105469-.523437c3.464844-16.738282-.738282-33.945313-11.535156-47.199219-.738282-.914063-1.511719-1.792969-2.300782-2.648437zm0 0" fill="#d3ba50"/><path d="m327.207031 89.550781c0 49.453125-40.09375 89.546875-89.550781 89.546875-49.453125 0-89.546875-40.09375-89.546875-89.546875 0-49.457031 40.09375-89.550781 89.546875-89.550781 49.457031 0 89.550781 40.09375 89.550781 89.550781zm0 0" fill="#e7ce5f"/><path d="m179.015625 89.550781c0-44.1875 32.003906-80.894531 74.09375-88.21875-5.019531-.871093-10.179687-1.332031-15.453125-1.332031-49.453125 0-89.546875 40.09375-89.546875 89.550781 0 49.453125 40.089844 89.546875 89.546875 89.546875 5.273438 0 10.433594-.457031 15.453125-1.332031-42.089844-7.324219-74.09375-44.03125-74.09375-88.214844zm0 0" fill="#d3ba50"/><path d="m237.65625 381.636719c-42.34375 0-79.511719-28.191407-90.929688-68.96875l-32.183593-114.957031c-5.28125-25.535157 14.214843-49.480469 40.289062-49.480469h165.652344c26.074219 0 45.570313 23.945312 40.285156 49.480469l-32.179687 114.957031c-11.417969 40.777343-48.585938 68.96875-90.933594 68.96875zm0 0" fill="#fbe067"/><path d="m177.632812 312.667969-32.183593-114.957031c-5.28125-25.535157 14.214843-49.480469 40.289062-49.480469h-30.90625c-26.074219 0-45.570312 23.945312-40.285156 49.480469l32.179687 114.957031c11.417969 40.777343 48.585938 68.96875 90.929688 68.96875 5.246094 0 10.410156-.433594 15.453125-1.269531-35.703125-5.90625-65.472656-31.972657-75.476563-67.699219zm0 0" fill="#e7ce5f"/><path d="m263.183594 122.574219c-1.921875 0-3.839844-.734375-5.304688-2.195313l-51.050781-51.050781c-2.925781-2.929687-2.925781-7.679687 0-10.605469 2.929687-2.929687 7.679687-2.929687 10.609375 0l51.046875 51.046875c2.929687 2.929688 2.929687 7.679688 0 10.609375-1.464844 1.460938-3.382813 2.195313-5.300781 2.195313zm0 0" fill="#bf5164"/><path d="m212.132812 122.574219c-1.917968 0-3.835937-.734375-5.300781-2.195313-2.929687-2.933594-2.929687-7.679687 0-10.609375l51.046875-51.046875c2.929688-2.929687 7.679688-2.929687 10.605469 0 2.929687 2.929688 2.929687 7.675782 0 10.605469l-51.046875 51.050781c-1.464844 1.460938-3.382812 2.195313-5.304688 2.195313zm0 0" fill="#bf5164"/><g fill="#e15f76"><path d="m237.65625 317.945312c-39.3125 0-71.292969-31.980468-71.292969-71.296874 0-39.3125 31.984375-71.292969 71.292969-71.292969 39.3125 0 71.296875 31.980469 71.296875 71.292969 0 39.316406-31.980469 71.296874-71.296875 71.296874zm0-127.589843c-31.039062 0-56.292969 25.253906-56.292969 56.292969 0 31.042968 25.253907 56.296874 56.292969 56.296874 31.042969 0 56.296875-25.253906 56.296875-56.296874 0-31.039063-25.253906-56.292969-56.296875-56.292969zm0 0"/><path d="m237.65625 282.761719c-19.910156 0-36.109375-16.199219-36.109375-36.109375 0-19.914063 16.199219-36.113282 36.109375-36.113282 19.914062 0 36.113281 16.199219 36.113281 36.113282 0 19.910156-16.199219 36.109375-36.113281 36.109375zm0-57.222657c-11.636719 0-21.109375 9.472657-21.109375 21.109376 0 11.640624 9.472656 21.113281 21.109375 21.113281 11.640625 0 21.113281-9.472657 21.113281-21.113281 0-11.636719-9.472656-21.109376-21.113281-21.109376zm0 0"/></g></svg>