<svg viewBox="0 -84 512.001 512" xmlns="http://www.w3.org/2000/svg"><path d="m121.710938 24.957031v50.671875h-96.375c-13.992188 0-25.335938-11.34375-25.335938-25.335937 0-13.992188 11.34375-25.335938 25.335938-25.335938zm0 0" fill="#5c626b"/><path d="m121.707031 24.957031v50.671875h-96.375c-13.988281 0-25.332031-11.339844-25.332031-25.332031 0-7.003906 2.832031-13.328125 7.417969-17.921875 4.582031-4.585938 10.917969-7.417969 17.914062-7.417969zm0 0" fill="#5c626b"/><path d="m2.683594 38.949219c-1.714844 3.414062-2.683594 7.265625-2.683594 11.34375 0 13.992187 11.34375 25.335937 25.335938 25.335937h96.375v-22.6875h-96.375c-9.914063 0-18.492188-5.695312-22.652344-13.992187zm0 0" fill="#535860"/><path d="m512 71.089844c0 2.507812-2.03125 4.539062-4.539062 4.539062h-385.75v-50.671875h344.15625c25.480468 0 46.132812 20.65625 46.132812 46.132813zm0 0" fill="#c9caca"/><path d="m121.710938 49.015625h347.9375c17.9375 0 33.472656 10.242187 41.105468 25.195313.769532-.8125 1.246094-1.910157 1.246094-3.121094 0-25.476563-20.652344-46.132813-46.132812-46.132813h-344.15625zm0 0" fill="#dfe0e0"/><path d="m140.667969 7.238281v85.355469c0 3.996094-3.238281 7.234375-7.234375 7.234375h-23.445313c-3.996093 0-7.238281-3.238281-7.238281-7.234375v-85.355469c0-3.996093 3.242188-7.238281 7.238281-7.238281h23.445313c3.996094 0 7.234375 3.242188 7.234375 7.238281zm0 0" fill="#fbe067"/><path d="m133.433594 77.140625h-23.445313c-3.996093 0-7.238281-3.238281-7.238281-7.234375v22.6875c0 3.996094 3.238281 7.234375 7.238281 7.234375h23.445313c3.996094 0 7.234375-3.238281 7.234375-7.234375v-22.6875c0 3.996094-3.238281 7.234375-7.234375 7.234375zm0 0" fill="#e7ce5f"/><path d="m209.726562 175.597656h-28.175781c-2.921875 0-5.292969-2.371094-5.292969-5.296875v-115.988281c0-2.925781 2.371094-5.296875 5.292969-5.296875h28.175781c2.925782 0 5.296876 2.371094 5.296876 5.296875v115.988281c0 2.925781-2.371094 5.296875-5.296876 5.296875zm0 0" fill="#9b6a57"/><path d="m176.257812 54.3125v115.988281c0 2.925781 2.371094 5.296875 5.292969 5.296875h14.089844v-126.582031h-14.089844c-2.921875 0-5.292969 2.371094-5.292969 5.296875zm0 0" fill="#8b5f4e"/><path d="m330.449219 175.597656h-28.175781c-2.925782 0-5.296876-2.371094-5.296876-5.296875v-115.988281c0-2.925781 2.371094-5.296875 5.296876-5.296875h28.175781c2.921875 0 5.292969 2.371094 5.292969 5.296875v115.988281c0 2.925781-2.371094 5.296875-5.292969 5.296875zm0 0" fill="#9b6a57"/><path d="m296.976562 54.3125v115.988281c0 2.925781 2.371094 5.296875 5.296876 5.296875h14.085937v-126.582031h-14.085937c-2.925782 0-5.296876 2.371094-5.296876 5.296875zm0 0" fill="#8b5f4e"/><path d="m432.242188 205.664062h-352.484376c-5.164062 0-9.351562-4.1875-9.351562-9.351562v-31.96875c0-5.164062 4.1875-9.351562 9.351562-9.351562h352.484376c5.164062 0 9.351562 4.1875 9.351562 9.351562v31.96875c0 5.164062-4.1875 9.351562-9.351562 9.351562zm0 0" fill="#e15f76"/><path d="m432.242188 185.058594h-352.484376c-5.164062 0-9.351562-4.183594-9.351562-9.351563v20.605469c0 5.164062 4.1875 9.351562 9.351562 9.351562h352.484376c5.164062 0 9.351562-4.1875 9.351562-9.351562v-20.605469c0 5.167969-4.1875 9.351563-9.351562 9.351563zm0 0" fill="#cb556a"/><path d="m107.285156 154.992188h32.96875v50.671874h-32.96875zm0 0" fill="#dfe0e0"/><path d="m107.285156 185.058594h32.96875v20.605468h-32.96875zm0 0" fill="#c9caca"/><path d="m209.726562 286.308594h-28.175781c-2.921875 0-5.292969-2.371094-5.292969-5.296875v-95.386719c0-2.925781 2.371094-5.296875 5.292969-5.296875h28.175781c2.925782 0 5.296876 2.371094 5.296876 5.296875v95.386719c0 2.925781-2.371094 5.296875-5.296876 5.296875zm0 0" fill="#9b6a57"/><path d="m176.257812 185.625v95.386719c0 2.925781 2.371094 5.296875 5.292969 5.296875h14.089844v-105.980469h-14.089844c-2.921875 0-5.292969 2.371094-5.292969 5.296875zm0 0" fill="#8b5f4e"/><path d="m330.449219 286.308594h-28.175781c-2.925782 0-5.296876-2.371094-5.296876-5.296875v-95.386719c0-2.925781 2.371094-5.296875 5.296876-5.296875h28.175781c2.921875 0 5.292969 2.371094 5.292969 5.296875v95.386719c0 2.925781-2.371094 5.296875-5.292969 5.296875zm0 0" fill="#9b6a57"/><path d="m296.976562 185.625v95.386719c0 2.925781 2.371094 5.296875 5.296876 5.296875h14.085937v-105.980469h-14.085937c-2.925782 0-5.296876 2.371094-5.296876 5.296875zm0 0" fill="#8b5f4e"/><path d="m412.007812 272.21875v28.175781c0 2.925781-2.371093 5.296875-5.296874 5.296875h-301.421876c-2.925781 0-5.296874-2.371094-5.296874-5.296875v-28.175781c0-2.925781 2.371093-5.296875 5.296874-5.296875h301.421876c2.925781 0 5.296874 2.371094 5.296874 5.296875zm0 0" fill="#9b6a57"/><path d="m130.898438 300.394531v-28.175781c0-2.925781 2.371093-5.296875 5.296874-5.296875h-30.90625c-2.925781 0-5.296874 2.371094-5.296874 5.296875v28.175781c0 2.925781 2.371093 5.296875 5.296874 5.296875h30.90625c-2.925781 0-5.296874-2.371094-5.296874-5.296875zm0 0" fill="#8b5f4e"/><path d="m453.214844 310.988281v28.175781c0 2.925782-2.371094 5.296876-5.296875 5.296876h-383.835938c-2.925781 0-5.296875-2.371094-5.296875-5.296876v-28.175781c0-2.925781 2.371094-5.296875 5.296875-5.296875h383.835938c2.925781 0 5.296875 2.371094 5.296875 5.296875zm0 0" fill="#8b5f4e"/><path d="m89.691406 339.164062v-28.175781c0-2.925781 2.371094-5.296875 5.296875-5.296875h-30.90625c-2.925781 0-5.296875 2.371094-5.296875 5.296875v28.175781c0 2.925782 2.371094 5.296876 5.296875 5.296876h30.902344c-2.921875 0-5.292969-2.371094-5.292969-5.296876zm0 0" fill="#7a4f42"/><g fill="#494f57"><path d="m86.101562 50.289062v25.339844h-15.453124v-25.339844c0-4.265624 3.460937-7.726562 7.726562-7.726562s7.726562 3.460938 7.726562 7.726562zm0 0"/><path d="m59.101562 50.289062v25.339844h-15.453124v-25.339844c0-4.265624 3.460937-7.726562 7.726562-7.726562s7.726562 3.460938 7.726562 7.726562zm0 0"/></g></svg>