<svg viewBox="0 -2 512 511" xmlns="http://www.w3.org/2000/svg"><path d="m401.011719 142.5625c-4.144531 0-7.5-3.359375-7.5-7.5v-75.316406c0-32.667969 26.574219-59.246094 59.242187-59.246094 32.667969 0 59.246094 26.578125 59.246094 59.246094v49.25c0 3.035156-1.828125 5.769531-4.628906 6.929687-2.804688 1.164063-6.027344.519531-8.175782-1.625l-29.300781-29.300781c-2.925781-2.929688-2.925781-7.679688.003907-10.605469 2.925781-2.929687 7.675781-2.929687 10.605468 0l16.496094 16.496094v-31.144531c0-24.398438-19.847656-44.246094-44.246094-44.246094-24.394531 0-44.242187 19.847656-44.242187 44.246094v75.3125c0 4.144531-3.359375 7.503906-7.5 7.503906zm0 0" fill="#dfe0e0"/><path d="m401.011719 142.5625c-4.144531 0-7.5-3.359375-7.5-7.5v-75.316406c0-24.398438-19.851563-44.246094-44.246094-44.246094-24.398437 0-44.246094 19.847656-44.246094 44.246094v31.144531l16.496094-16.496094c2.929687-2.929687 7.679687-2.929687 10.605469 0 2.933594 2.925781 2.933594 7.675781.003906 10.605469l-29.300781 29.300781c-2.144531 2.144531-5.371094 2.789063-8.175781 1.625-2.800782-1.160156-4.628907-3.894531-4.628907-6.929687v-49.25c0-32.667969 26.578125-59.246094 59.246094-59.246094s59.242187 26.578125 59.242187 59.246094v75.3125c.003907 4.144531-3.355468 7.503906-7.496093 7.503906zm0 0" fill="#dfe0e0"/><path d="m354.484375 506.84375c-35.496094 0-64.371094-28.878906-64.371094-64.371094v-210.488281c0-15.816406-12.867187-28.683594-28.683593-28.683594h-243.585938c-9.855469 0-17.84375-7.988281-17.84375-17.84375 0-9.851562 7.988281-17.84375 17.84375-17.84375h243.585938c35.496093 0 64.371093 28.878907 64.371093 64.371094v210.488281c0 15.816406 12.867188 28.683594 28.683594 28.683594s28.683594-12.867188 28.683594-28.683594v-201.441406c0-9.851562 7.988281-17.84375 17.84375-17.84375 9.851562 0 17.839843 7.992188 17.839843 17.84375v201.441406c0 35.492188-28.875 64.371094-64.367187 64.371094zm0 0" fill="#fbe067"/><path d="m219.730469 238.984375h-201.886719c-9.855469 0-17.84375-7.988281-17.84375-17.84375 0-9.851563 7.988281-17.839844 17.84375-17.839844h201.886719c9.855469 0 17.84375 7.988281 17.84375 17.839844 0 9.855469-7.988281 17.84375-17.84375 17.84375zm0 0" fill="#e7ce5f"/><path d="m219.730469 274.671875h-201.886719c-9.855469 0-17.84375-7.988281-17.84375-17.84375 0-9.851563 7.988281-17.84375 17.84375-17.84375h201.886719c9.855469 0 17.84375 7.992187 17.84375 17.84375 0 9.855469-7.988281 17.84375-17.84375 17.84375zm0 0" fill="#fbe067"/><path d="m219.730469 310.359375h-201.886719c-9.855469 0-17.84375-7.992187-17.84375-17.84375 0-9.855469 7.988281-17.84375 17.84375-17.84375h201.886719c9.855469 0 17.84375 7.988281 17.84375 17.84375 0 9.851563-7.988281 17.84375-17.84375 17.84375zm0 0" fill="#e7ce5f"/><path d="m219.730469 346.042969h-201.886719c-9.855469 0-17.84375-7.988281-17.84375-17.84375 0-9.851563 7.988281-17.839844 17.84375-17.839844h201.886719c9.855469 0 17.84375 7.988281 17.84375 17.839844 0 9.855469-7.988281 17.84375-17.84375 17.84375zm0 0" fill="#fbe067"/><path d="m418.851562 241.03125h-35.683593c-7.628907 0-13.8125-6.183594-13.8125-13.808594v-78.351562c0-7.628906 6.183593-13.808594 13.8125-13.808594h35.683593c7.628907 0 13.8125 6.179688 13.8125 13.808594v78.351562c0 7.625-6.183593 13.808594-13.8125 13.808594zm0 0" fill="#5c626b"/><path d="m393.128906 227.222656v-78.351562c0-7.628906 6.183594-13.808594 13.808594-13.808594h-23.769531c-7.628907 0-13.8125 6.179688-13.8125 13.808594v78.351562c0 7.628906 6.183593 13.808594 13.8125 13.808594h23.769531c-7.625 0-13.808594-6.179688-13.808594-13.808594zm0 0" fill="#535860"/></svg>