<svg viewBox="0 0 512 512.00002" xmlns="http://www.w3.org/2000/svg"><path d="m153.839844 440.867188c-4.144532 0-7.5-3.355469-7.5-7.5v-75.207032c0-4.144531 3.355468-7.5 7.5-7.5 4.144531 0 7.5 3.355469 7.5 7.5v75.207032c0 4.144531-3.359375 7.5-7.5 7.5zm0 0" fill="#b7b7b7"/><path d="m161.847656 409.320312h-16.019531l-18.023437 75.101563c-2.570313 10.707031 10.535156 18.046875 18.320312 10.257813 4.261719-4.257813 11.167969-4.257813 15.429688 0 7.785156 7.789062 20.890624.449218 18.320312-10.257813zm0 0" fill="#dfe0e0"/><path d="m261.089844 250.910156c34.320312 34.316406 37.464844 88 9.445312 125.875l173.074219 127.714844c90.300781-122.058594 80.160156-295.066406-30.441406-405.667969-110.601563-110.601562-283.609375-120.742187-405.667969-30.441406l127.714844 173.074219c37.875-28.019532 91.554687-24.875 125.875 9.445312zm0 0" fill="#e15f76"/><path d="m261.089844 250.910156c34.320312 34.316406 37.464844 88 9.445312 125.875l173.074219 127.714844c90.300781-122.058594 80.160156-295.066406-30.441406-405.667969-110.601563-110.601562-283.609375-120.742187-405.667969-30.441406l127.714844 173.074219c37.875-28.019532 91.554687-24.875 125.875 9.445312zm0 0" fill="#e15f76"/><path d="m235.652344 79.484375 4.183594 22.957031c.074218.40625.320312.757813.675781.96875l19.777343 11.597656c.933594.546876.933594 1.894532 0 2.4375l-19.777343 11.601563c-.355469.207031-.601563.558594-.675781.960937l-4.21875 22.925782c-.175782.972656.671874 1.824218 1.648437 1.644531l22.957031-4.179687c.402344-.074219.757813-.320313.964844-.675782l11.597656-19.777344c.546875-.933593 1.894532-.933593 2.441406 0l11.597657 19.777344c.210937.355469.5625.601563.964843.675782l22.921876 4.214843c.976562.179688 1.828124-.671875 1.648437-1.644531l-4.179687-22.957031c-.074219-.40625-.324219-.757813-.679688-.96875l-19.777344-11.597657c-.929687-.546874-.929687-1.894531 0-2.441406l19.78125-11.597656c.355469-.207031.601563-.558594.675782-.964844l4.214843-22.921875c.179688-.972656-.671875-1.824219-1.644531-1.648437l-22.957031 4.183594c-.40625.074218-.757813.320312-.96875.675781l-11.597657 19.777343c-.546874.933594-1.894531.933594-2.441406 0l-11.597656-19.777343c-.207031-.355469-.558594-.601563-.964844-.675781l-22.921875-4.21875c-.972656-.175782-1.824219.675781-1.648437 1.648437zm0 0" fill="#dfe0e0"/><path d="m357.417969 201.25 4.183593 22.957031c.074219.40625.320313.757813.675782.964844l19.777344 11.601563c.933593.546874.933593 1.890624 0 2.4375l-19.777344 11.597656c-.355469.210937-.601563.5625-.675782.964844l-4.21875 22.925781c-.179687.972656.671876 1.824219 1.644532 1.644531l22.960937-4.179688c.402344-.074218.757813-.324218.964844-.675781l11.597656-19.78125c.546875-.929687 1.894531-.929687 2.441407 0l11.597656 19.78125c.207031.355469.5625.601563.964844.675781l22.921874 4.214844c.972657.179688 1.824219-.671875 1.648438-1.644531l-4.183594-22.957031c-.074218-.40625-.320312-.757813-.675781-.96875l-19.777344-11.597656c-.933593-.546876-.933593-1.894532 0-2.4375l19.777344-11.601563c.355469-.207031.601563-.558594.679687-.964844l4.214844-22.921875c.179688-.972656-.671875-1.824218-1.644531-1.648437l-22.960937 4.183593c-.402344.074219-.757813.320313-.964844.675782l-11.597656 19.777344c-.546876.933593-1.894532.933593-2.441407 0l-11.597656-19.777344c-.207031-.355469-.558594-.601563-.964844-.675782l-22.921875-4.214843c-.972656-.179688-1.824218.671875-1.648437 1.644531zm0 0" fill="#dfe0e0"/><path d="m372.449219 350.53125 4.183593 22.957031c.074219.40625.320313.757813.675782.96875l19.777344 11.597657c.933593.546874.933593 1.890624 0 2.4375l-19.777344 11.601562c-.355469.207031-.601563.558594-.675782.960938l-4.21875 22.925781c-.175781.972656.671876 1.824219 1.648438 1.644531l22.957031-4.179688c.402344-.074218.757813-.320312.964844-.675781l11.597656-19.78125c.546875-.929687 1.894531-.929687 2.441407 0l11.597656 19.78125c.210937.355469.5625.601563.964844.675781l22.921874 4.214844c.976563.179688 1.828126-.671875 1.648438-1.644531l-4.183594-22.957031c-.070312-.40625-.320312-.757813-.675781-.96875l-19.777344-11.597656c-.929687-.546876-.929687-1.894532 0-2.4375l19.78125-11.601563c.355469-.207031.601563-.558594.675781-.960937l4.214844-22.925782c.179688-.972656-.671875-1.824218-1.644531-1.644531l-22.957031 4.179687c-.40625.074219-.757813.320313-.96875.675782l-11.597656 19.777344c-.546876.933593-1.894532.933593-2.441407 0l-11.597656-19.777344c-.207031-.355469-.558594-.601563-.964844-.675782l-22.921875-4.214843c-.972656-.179688-1.824218.671875-1.648437 1.644531zm0 0" fill="#dfe0e0"/><path d="m433.933594 121.757812c-6.480469-7.894531-13.394532-15.550781-20.765625-22.925781-110.601563-110.601562-283.609375-120.742187-405.667969-30.441406l24.828125 33.644531c122.105469-82.234375 286.214844-75.664062 401.605469 19.722656zm0 0" fill="#cb556a"/><path d="m86.371094 64.453125 4.183594 22.957031c.074218.40625.320312.757813.675781.964844l19.777343 11.601562c.933594.546876.933594 1.890626 0 2.4375l-19.777343 11.601563c-.355469.207031-.601563.558594-.675781.960937l-4.21875 22.925782c-.175782.972656.671874 1.824218 1.644531 1.644531l22.960937-4.179687c.402344-.074219.757813-.324219.964844-.675782l11.597656-19.78125c.546875-.929687 1.894532-.929687 2.441406 0l11.597657 19.78125c.210937.355469.5625.601563.964843.675782l22.921876 4.214843c.972656.179688 1.828124-.671875 1.648437-1.644531l-4.183594-22.957031c-.074219-.40625-.320312-.757813-.675781-.96875l-19.777344-11.597657c-.929687-.546874-.929687-1.894531 0-2.4375l19.78125-11.601562c.351563-.207031.597656-.558594.675782-.964844l4.214843-22.921875c.179688-.972656-.671875-1.824219-1.644531-1.644531l-22.957031 4.179688c-.40625.074218-.757813.320312-.96875.675781l-11.597657 19.777343c-.546874.933594-1.894531.933594-2.441406 0l-11.597656-19.777343c-.207031-.355469-.558594-.601563-.964844-.675781l-22.921875-4.214844c-.972656-.179688-1.824219.667968-1.648437 1.644531zm0 0" fill="#dfe0e0"/><g fill="#bf5164"><path d="m192.671875 326.828125c-1.921875 0-3.839844-.730469-5.304687-2.195313-2.929688-2.929687-2.929688-7.675781 0-10.605468l220.496093-220.5c2.929688-2.925782 7.675781-2.925782 10.605469 0 2.929688 2.929687 2.929688 7.679687 0 10.609375l-220.496094 220.496093c-1.464844 1.464844-3.382812 2.195313-5.300781 2.195313zm0 0"/><path d="m192.671875 326.828125c-4.144531 0-7.5-3.355469-7.5-7.5v-311.828125c0-4.144531 3.355469-7.5 7.5-7.5 4.140625 0 7.5 3.355469 7.5 7.5v311.828125c0 4.144531-3.359375 7.5-7.5 7.5zm0 0"/><path d="m504.5 326.828125h-311.828125c-4.144531 0-7.5-3.355469-7.5-7.5 0-4.140625 3.355469-7.5 7.5-7.5h311.828125c4.140625 0 7.5 3.359375 7.5 7.5 0 4.144531-3.359375 7.5-7.5 7.5zm0 0"/><path d="m443.601562 512c-1.546874 0-3.109374-.476562-4.449218-1.464844l-250.933594-185.171875c-.605469-.445312-1.140625-.976562-1.582031-1.582031l-185.171875-250.933594c-2.457032-3.335937-1.75-8.03125 1.582031-10.488281 3.332031-2.460937 8.027344-1.753906 10.488281 1.582031l184.496094 250.023438 250.027344 184.5c3.332031 2.460937 4.042968 7.152344 1.582031 10.488281-1.46875 1.992187-3.738281 3.046875-6.039063 3.046875zm0 0"/></g><path d="m171.878906 340.117188c-9.964844-9.964844-26.121094-9.964844-36.085937 0-9.960938 9.964843-9.960938 26.121093 0 36.082031 9.964843 9.964843 26.121093 9.964843 36.085937 0 9.960938-9.960938 9.960938-26.117188 0-36.082031zm0 0" fill="#e15f76"/><path d="m176.699219 369.90625-34.605469-34.605469c-3.511719-3.511719-3.511719-9.207031 0-12.71875l13.785156-13.785156 47.324219 47.324219-13.789063 13.785156c-3.511718 3.511719-9.203124 3.511719-12.714843 0zm0 0" fill="#e7ce5f"/><path d="m197.5 359.621094-45.121094-45.121094c-5.671875-5.671875-5.671875-14.867188 0-20.539062l14.921875-14.921876c5.671875-5.671874 14.867188-5.671874 20.539063 0l45.121094 45.121094c5.671874 5.671875 5.671874 14.867188 0 20.539063l-14.921876 14.921875c-5.671874 5.671875-14.867187 5.671875-20.539062 0zm0 0" fill="#fbe067"/></svg>