<svg viewBox="0 0 512 512" xmlns="http://www.w3.org/2000/svg"><path d="m410.539062 104.628906c-2.828124-43.433594-38.929687-77.792968-83.078124-77.792968-36.625 0-67.703126 23.652343-78.855469 56.507812-17.199219-14.816406-39.585938-23.777344-64.066407-23.777344-54.242187 0-98.214843 43.972656-98.214843 98.21875 0 54.242188 43.972656 98.214844 98.214843 98.214844 47.003907 0 86.289063-33.023438 95.941407-77.128906 2.589843 1.773437 5.289062 3.398437 8.082031 4.878906-.839844 5.164062-1.28125 10.464844-1.28125 15.867188 0 54.242187 43.972656 98.214843 98.214844 98.214843 54.242187 0 98.214844-43.972656 98.214844-98.214843 0-45.589844-31.0625-83.917969-73.171876-94.988282zm0 0" fill="#c9caca"/><path d="m284.527344 164.023438h-57.054688v-151.617188c0-6.851562 5.554688-12.40625 12.40625-12.40625h32.242188c6.851562 0 12.40625 5.554688 12.40625 12.40625zm0 0" fill="#fbe067"/><path d="m260.480469 0h-20.601563c-6.851562 0-12.40625 5.554688-12.40625 12.40625v151.617188h20.605469v-151.617188c0-6.851562 5.554687-12.40625 12.402344-12.40625zm0 0" fill="#e7ce5f"/><path d="m318.65625 213.460938h-125.3125v-87.433594c0-8.789063 7.125-15.914063 15.914062-15.914063h93.484376c8.789062 0 15.914062 7.125 15.914062 15.914063zm0 0" fill="#535860"/><path d="m240.164062 110.113281h-30.90625c-8.789062 0-15.914062 7.125-15.914062 15.914063v87.433594h30.90625v-87.433594c0-8.789063 7.125-15.914063 15.914062-15.914063zm0 0" fill="#494f57"/><path d="m437.300781 330.699219c0 100.128906-81.171875 181.300781-181.300781 181.300781s-181.300781-81.171875-181.300781-181.300781c0-100.128907 81.171875-181.300781 181.300781-181.300781s181.300781 81.171874 181.300781 181.300781zm0 0" fill="#5c626b"/><path d="m105.605469 330.699219c0-94.921875 72.953125-172.796875 165.847656-180.640625-5.09375-.429688-10.246094-.660156-15.453125-.660156-100.128906 0-181.300781 81.171874-181.300781 181.300781 0 100.128906 81.171875 181.300781 181.300781 181.300781 5.207031 0 10.359375-.230469 15.453125-.660156-92.894531-7.84375-165.847656-85.71875-165.847656-180.640625zm0 0" fill="#535860"/><path d="m415.835938 512c53.109374 0 96.164062-43.054688 96.164062-96.164062 0-53.109376-43.054688-96.164063-96.164062-96.164063-2.921876 0-5.808594.136719-8.660157.394531-20.066406-54.503906-72.449219-93.375-133.910156-93.375-24.960937 0-48.417969 6.417969-68.828125 17.679688-13.90625-26.59375-41.738281-44.753906-73.828125-44.753906-45.992187 0-83.277344 37.285156-83.277344 83.277343 0 9.109375 1.484375 17.867188 4.1875 26.070313-30.945312 19.445312-51.519531 53.878906-51.519531 93.125 0 60.699218 49.210938 109.910156 109.910156 109.910156zm0 0" fill="#dfe0e0"/><path d="m437.300781 330.699219c0-2.90625-.074219-5.792969-.210937-8.664063-6.835938-1.542968-13.949219-2.363281-21.253906-2.363281-2.921876 0-5.808594.136719-8.660157.394531-20.066406-54.503906-72.449219-93.375-133.910156-93.375-24.960937 0-48.417969 6.417969-68.828125 17.679688-13.886719-26.554688-41.65625-44.699219-73.683594-44.753906-34.539062 33.011718-56.054687 79.535156-56.054687 131.082031 0 100.128906 81.171875 181.300781 181.300781 181.300781s181.300781-81.171875 181.300781-181.300781zm0 0" fill="#c9caca"/><g fill="#d3ba50"><path d="m227.472656 29.875h57.050782v15.453125h-57.050782zm0 0"/><path d="m227.472656 72.113281h57.050782v15.453125h-57.050782zm0 0"/></g></svg>