<svg viewBox="1 -5 511.999 511" xmlns="http://www.w3.org/2000/svg"><path d="m225.773438 18.191406h60.449218v403.109375h-60.449218zm0 0" fill="#5abc8b"/><path d="m225.773438 18.191406h26.46875v403.109375h-26.46875zm0 0" fill="#51af7e"/><path d="m286.273438 170.257812h-60.546876c-9.773437 0-17.695312-7.921874-17.695312-17.695312s7.921875-17.695312 17.695312-17.695312h60.546876c9.773437 0 17.695312 7.921874 17.695312 17.695312s-7.921875 17.695312-17.695312 17.695312zm0 0" fill="#64d19b"/><path d="m286.273438 35.886719h-60.546876c-9.773437 0-17.695312-7.921875-17.695312-17.691407 0-9.773437 7.921875-17.695312 17.695312-17.695312h60.546876c9.773437 0 17.695312 7.921875 17.695312 17.695312 0 9.769532-7.921875 17.691407-17.695312 17.691407zm0 0" fill="#64d19b"/><path d="m286.273438 304.625h-60.546876c-9.773437 0-17.695312-7.921875-17.695312-17.695312 0-9.769532 7.921875-17.691407 17.695312-17.691407h60.546876c9.773437 0 17.695312 7.921875 17.695312 17.691407 0 9.773437-7.921875 17.695312-17.695312 17.695312zm0 0" fill="#64d19b"/><path d="m286.273438 438.996094h-60.546876c-9.773437 0-17.695312-7.921875-17.695312-17.695313 0-9.769531 7.921875-17.691406 17.695312-17.691406h60.546876c9.773437 0 17.695312 7.921875 17.695312 17.691406 0 9.773438-7.921875 17.695313-17.695312 17.695313zm0 0" fill="#64d19b"/><g fill="#5abc8b"><path d="m234.5 18.195312c0-9.773437 7.921875-17.695312 17.691406-17.695312h-26.46875c-9.769531 0-17.691406 7.921875-17.691406 17.695312 0 9.769532 7.921875 17.691407 17.691406 17.691407h26.46875c-9.769531 0-17.691406-7.921875-17.691406-17.691407zm0 0"/><path d="m234.5 152.5625c0-9.773438 7.921875-17.695312 17.691406-17.695312h-26.46875c-9.769531 0-17.691406 7.921874-17.691406 17.695312s7.921875 17.695312 17.691406 17.695312h26.46875c-9.769531 0-17.691406-7.921874-17.691406-17.695312zm0 0"/><path d="m234.5 286.929688c0-9.769532 7.921875-17.691407 17.691406-17.691407h-26.46875c-9.769531 0-17.691406 7.921875-17.691406 17.691407 0 9.773437 7.921875 17.695312 17.691406 17.695312h26.46875c-9.769531 0-17.691406-7.921875-17.691406-17.695312zm0 0"/><path d="m234.5 421.300781c0-9.769531 7.921875-17.691406 17.691406-17.691406h-26.46875c-9.769531 0-17.691406 7.921875-17.691406 17.691406 0 9.773438 7.921875 17.695313 17.691406 17.695313h26.46875c-9.769531 0-17.691406-7.921875-17.691406-17.695313zm0 0"/></g><path d="m512 245.085938c-25.605469 0-25.605469 17.449218-51.207031 17.449218-25.605469 0-25.605469-17.449218-51.207031-17.449218-25.601563 0-25.601563 17.449218-51.199219 17.449218-25.601563 0-25.601563-17.449218-51.203125-17.449218-25.597656 0-25.597656 17.449218-51.199219 17.449218-25.597656 0-25.597656-17.449218-51.199219-17.449218-25.59375 0-25.59375 17.449218-51.191406 17.449218s-25.597656-17.449218-51.195312-17.449218c-25.601563 0-25.601563 17.449218-51.199219 17.449218-25.601563 0-25.601563-17.449218-51.199219-17.449218v239.023437c25.597656 0 25.597656 17.445313 51.199219 17.445313 25.597656 0 25.597656-17.445313 51.199219-17.445313 25.597656 0 25.597656 17.445313 51.195312 17.445313s25.597656-17.445313 51.191406-17.445313c25.601563 0 25.601563 17.445313 51.199219 17.445313 25.601563 0 25.601563-17.445313 51.199219-17.445313 25.601562 0 25.601562 17.445313 51.203125 17.445313 25.597656 0 25.597656-17.445313 51.199219-17.445313 25.601562 0 25.601562 17.445313 51.207031 17.445313 25.601562 0 25.601562-17.445313 51.207031-17.445313zm0 0" fill="#52b4de"/><path d="m409.585938 433.492188c-25.601563 0-25.601563 17.449218-51.199219 17.449218-25.601563 0-25.601563-17.449218-51.203125-17.449218-25.597656 0-25.597656 17.449218-51.199219 17.449218-25.597656 0-25.597656-17.449218-51.199219-17.449218-25.59375 0-25.59375 17.449218-51.191406 17.449218s-25.597656-17.449218-51.195312-17.449218c-25.601563 0-25.601563 17.449218-51.199219 17.449218-25.601563 0-25.601563-17.449218-51.199219-17.449218v50.617187c25.597656 0 25.597656 17.445313 51.199219 17.445313 25.597656 0 25.597656-17.445313 51.199219-17.445313 25.597656 0 25.597656 17.445313 51.195312 17.445313s25.597656-17.445313 51.191406-17.445313c25.601563 0 25.601563 17.445313 51.199219 17.445313 25.601563 0 25.601563-17.445313 51.199219-17.445313 25.601562 0 25.601562 17.445313 51.203125 17.445313 25.597656 0 25.597656-17.445313 51.199219-17.445313 25.601562 0 25.601562 17.445313 51.207031 17.445313 25.601562 0 25.601562-17.445313 51.207031-17.445313v-50.617187c-25.605469 0-25.605469 17.449218-51.207031 17.449218-25.605469 0-25.605469-17.449218-51.207031-17.449218zm0 0" fill="#4aa2c8"/><path d="m409.585938 313.984375c-25.601563 0-25.601563 17.445313-51.199219 17.445313-25.601563 0-25.601563-17.445313-51.203125-17.445313-25.597656 0-25.597656 17.445313-51.199219 17.445313-25.597656 0-25.597656-17.445313-51.199219-17.445313-25.59375 0-25.59375 17.445313-51.191406 17.445313s-25.597656-17.445313-51.195312-17.445313c-25.601563 0-25.601563 17.445313-51.199219 17.445313-25.601563 0-25.601563-17.445313-51.199219-17.445313v50.613281c25.597656 0 25.597656 17.449219 51.199219 17.449219 25.597656 0 25.597656-17.449219 51.199219-17.449219 25.597656 0 25.597656 17.449219 51.195312 17.449219s25.597656-17.449219 51.191406-17.449219c25.601563 0 25.601563 17.449219 51.199219 17.449219 25.601563 0 25.601563-17.449219 51.199219-17.449219 25.601562 0 25.601562 17.449219 51.203125 17.449219 25.597656 0 25.597656-17.449219 51.199219-17.449219 25.601562 0 25.601562 17.449219 51.207031 17.449219 25.601562 0 25.601562-17.449219 51.207031-17.449219v-50.613281c-25.605469 0-25.605469 17.445313-51.207031 17.445313-25.605469 0-25.605469-17.445313-51.207031-17.445313zm0 0" fill="#4aa2c8"/></svg>