<svg viewBox="-67 0 512 512.00025" xmlns="http://www.w3.org/2000/svg"><path d="m375.921875 376.382812c-18.25-126.140624-187.101563-227.058593-187.101563-227.058593s-168.851562 100.917969-187.101562 227.058593c-18.253906 126.136719 113.410156 135.617188 187.101562 135.617188 73.691407 0 205.355469-9.480469 187.101563-135.617188zm0 0" fill="#fbe067"/><path d="m188.820312 351.589844c-9.785156 0-17.71875-7.929688-17.71875-17.714844v-13.289062h35.433594v13.289062c.003906 9.785156-7.929687 17.714844-17.714844 17.714844zm0 0" fill="#494f57"/><g fill="#e7ce5f"><path d="m32.625 376.382812c14.859375-102.695312 129.53125-188.667968 171.648438-217.082031-9.617188-6.488281-15.453126-9.980469-15.453126-9.980469s-168.851562 100.921876-187.101562 227.0625c-18.253906 126.136719 113.410156 135.617188 187.101562 135.617188 4.910157 0 10.085938-.042969 15.453126-.160156-75.132813-1.625-188.6875-17.726563-171.648438-135.457032zm0 0"/><path d="m29.472656 145.699219c-1.492187 5.441406 1.648438 11.070312 7.0625 12.660156l140.433594 41.269531c7.011719 2.0625 13.523438-4.453125 11.464844-11.460937l-41.269532-140.4375c-1.589843-5.410157-7.222656-8.550781-12.660156-7.0625-51.105468 14.003906-91.027344 53.929687-105.03125 105.03125zm0 0"/><path d="m348.167969 145.699219c1.492187 5.441406-1.648438 11.070312-7.0625 12.660156l-140.433594 41.269531c-7.011719 2.0625-13.527344-4.453125-11.464844-11.460937l41.269531-140.4375c1.589844-5.410157 7.222657-8.550781 12.660157-7.0625 51.101562 14.003906 91.027343 53.929687 105.03125 105.03125zm0 0"/></g><path d="m100.136719 23.496094c-5.855469 3.335937-7.957031 10.738281-4.730469 16.652344l83.734375 153.425781c4.179687 7.660156 15.179687 7.660156 19.359375 0l83.734375-153.425781c3.226563-5.914063 1.125-13.320313-4.726563-16.652344-54.976562-31.328125-122.398437-31.328125-177.371093 0zm0 0" fill="#fbe067"/><path d="m291.976562 229.402344h-206.3125c-5.382812 0-9.746093-4.363282-9.746093-9.75v-39.265625c0-5.382813 4.363281-9.746094 9.746093-9.746094h206.3125c5.382813 0 9.75 4.363281 9.75 9.746094v39.265625c-.003906 5.386718-4.367187 9.75-9.75 9.75zm0 0" fill="#5c626b"/><path d="m106.820312 219.652344v-39.265625c0-5.382813 4.363282-9.746094 9.75-9.746094h-30.90625c-5.382812 0-9.746093 4.363281-9.746093 9.746094v39.265625c0 5.386718 4.363281 9.75 9.746093 9.75h30.90625c-5.386718 0-9.75-4.363282-9.75-9.75zm0 0" fill="#535860"/><path d="m254.429688 328.929688c-4.140626 0-7.5-3.355469-7.5-7.5v-11.699219c0-4.140625 3.359374-7.5 7.5-7.5 4.144531 0 7.5 3.359375 7.5 7.5v11.699219c0 4.140624-3.355469 7.5-7.5 7.5zm0 0" fill="#494f57"/><path d="m123.210938 328.929688c-4.144532 0-7.5-3.355469-7.5-7.5v-11.699219c0-4.140625 3.355468-7.5 7.5-7.5 4.140624 0 7.5 3.359375 7.5 7.5v11.699219c0 4.140624-3.359376 7.5-7.5 7.5zm0 0" fill="#494f57"/><path d="m260.28125 351.042969h-11.699219c-4.140625 0-7.5-3.355469-7.5-7.5 0-4.140625 3.359375-7.5 7.5-7.5h11.699219c4.144531 0 7.5 3.359375 7.5 7.5 0 4.144531-3.355469 7.5-7.5 7.5zm0 0" fill="#e15f76"/><path d="m129.058594 351.042969h-11.699219c-4.144531 0-7.5-3.355469-7.5-7.5 0-4.140625 3.355469-7.5 7.5-7.5h11.699219c4.140625 0 7.5 3.359375 7.5 7.5 0 4.144531-3.359375 7.5-7.5 7.5zm0 0" fill="#e15f76"/></svg>