<svg viewBox="-2 0 512 512" xmlns="http://www.w3.org/2000/svg"><path d="m496.175781 241.234375c0-12.078125-4.195312-23.171875-11.199219-31.921875 15.09375-21.585938 23.953126-47.847656 23.953126-76.183594 0-73.523437-59.605469-133.128906-133.128907-133.128906-73.527343 0-133.128906 59.605469-133.128906 133.128906 0 23.828125 6.269531 46.191406 17.234375 65.542969-31.933594 24.320313-52.554688 62.738281-52.554688 105.976563 0 73.523437 59.601563 133.128906 133.128907 133.128906 6.851562 0 13.582031-.519532 20.15625-1.519532-.464844 3.15625-.710938 6.382813-.710938 9.667969 0 36.492188 29.582031 66.074219 66.074219 66.074219 36.488281 0 66.074219-29.582031 66.074219-66.074219 0-28.878906-18.535157-53.410156-44.347657-62.398437 16.261719-22.078125 25.882813-49.351563 25.882813-78.878906 0-6.808594-.515625-13.496094-1.5-20.027344 14.449219-9.039063 24.066406-25.085938 24.066406-43.386719zm0 0" fill="#c9caca"/><path d="m341.808594 511.566406-214.703125-58.519531c-6.507813-1.777344-10.347657-8.492187-8.574219-15l116.945312-429.039063c1.773438-6.511718 8.488282-10.347656 15-8.574218l214.699219 58.519531c6.511719 1.777344 10.347657 8.492187 8.574219 15l-116.941406 429.039063c-1.777344 6.511718-8.492188 10.347656-15 8.574218zm0 0" fill="#9b6a57"/><g fill="#7a4f42"><path d="m254.171875 187.941406c-8.367187-2.28125-17.117187-1.167968-24.644531 3.136719-7.527344 4.300781-12.929688 11.277344-15.207032 19.640625l-67.515624 247.695312 14.910156 4.0625 67.515625-247.695312c1.191406-4.378906 4.023437-8.035156 7.964843-10.289062 3.941407-2.253907 8.527344-2.839844 12.910157-1.644532 4.382812 1.195313 8.039062 4.023438 10.292969 7.96875 2.253906 3.945313 2.839843 8.527344 1.644531 12.910156l-67.515625 247.695313 14.910156 4.0625 67.515625-247.695313c2.277344-8.363281 1.164063-17.113281-3.136719-24.640624-4.304687-7.527344-11.28125-12.929688-19.644531-15.207032zm0 0"/><path d="m298.042969 499.636719 14.910156 4.066406 32.324219-118.597656c4.707031-17.269531-5.511719-35.144531-22.78125-39.851563-8.363282-2.28125-17.113282-1.167968-24.640625 3.136719-7.527344 4.300781-12.929688 11.277344-15.207031 19.640625l-32.328126 118.597656 14.910157 4.066406 32.328125-118.597656c1.195312-4.382812 4.023437-8.039062 7.964844-10.292968 3.945312-2.253907 8.53125-2.835938 12.914062-1.644532 9.042969 2.46875 14.398438 11.832032 11.933594 20.878906zm0 0"/><path d="m412.460938 44.585938-14.90625-4.0625-65.0625 238.679687c-2.464844 9.046875-11.828126 14.402344-20.875 11.9375-4.382813-1.195313-8.039063-4.027344-10.292969-7.96875-2.253907-3.945313-2.839844-8.527344-1.644531-12.910156l65.058593-238.683594-14.910156-4.0625-65.054687 238.679687c-2.28125 8.367188-1.167969 17.117188 3.136718 24.644532 4.300782 7.527344 11.277344 12.929687 19.644532 15.210937 2.84375.773438 5.707031 1.144531 8.523437 1.144531 14.277344 0 27.394531-9.507812 31.324219-23.925781zm0 0"/><path d="m281.359375 120.707031c-2.878906 0-5.753906-.386719-8.550781-1.148437-17.265625-4.707032-27.484375-22.585938-22.78125-39.851563 3.84375-14.089843 16.714844-23.929687 31.304687-23.929687 2.875 0 5.753907.386718 8.546875 1.148437 17.269532 4.707031 27.488282 22.585938 22.78125 39.851563-3.839844 14.089844-16.710937 23.929687-31.300781 23.929687zm-.027344-49.476562c-7.640625 0-14.382812 5.15625-16.394531 12.539062-2.464844 9.046875 2.890625 18.414063 11.9375 20.878907 1.472656.402343 2.980469.605468 4.484375.605468 7.640625 0 14.378906-5.15625 16.394531-12.539062 2.464844-9.046875-2.890625-18.414063-11.9375-20.878906-1.472656-.402344-2.980468-.605469-4.484375-.605469zm0 0"/><path d="m406.417969 314.21875c-4.304688-7.527344-11.28125-12.929688-19.644531-15.210938-2.796876-.761718-5.671876-1.148437-8.550782-1.148437-14.589844 0-27.460937 9.839844-31.300781 23.929687-2.28125 8.363282-1.164063 17.117188 3.136719 24.644532 4.304687 7.527344 11.28125 12.929687 19.644531 15.207031 2.796875.761719 5.671875 1.148437 8.550781 1.148437 6.71875 0 13.058594-2.105468 18.332032-5.730468l11.039062-40.5c-.371094-.789063-.769531-1.574219-1.207031-2.339844zm-11.773438 20.578125c-2.011719 7.382813-8.753906 12.539063-16.390625 12.539063-1.507812 0-3.015625-.203126-4.488281-.605469-4.382813-1.195313-8.035156-4.023438-10.292969-7.964844-2.253906-3.945313-2.835937-8.53125-1.640625-12.914063 2.011719-7.382812 8.753907-12.539062 16.390625-12.539062 1.503906 0 3.015625.203125 4.488282.605469 4.378906 1.195312 8.035156 4.023437 10.289062 7.96875 2.257812 3.941406 2.839844 8.527343 1.644531 12.910156zm0 0"/></g><path d="m284.917969 512c36.492187 0 66.074219-29.582031 66.074219-66.074219 0-34.980469-27.1875-63.59375-61.578126-65.90625-6.984374-32.449219-28.414062-59.527343-57.230468-74.164062 4.257812-8.414063 6.671875-17.921875 6.671875-27.996094 0-10.835937-2.78125-21.015625-7.65625-29.882813 28.949219-17.011718 50.894531-44.65625 60.476562-77.566406 1.75.136719 3.515625.230469 5.300781.230469 36.492188 0 66.074219-29.582031 66.074219-66.074219 0-36.492187-29.582031-66.074218-66.074219-66.074218-11.566406 0-22.433593 2.976562-31.886718 8.199218-24.417969-28.574218-60.710938-46.691406-101.242188-46.691406-73.523437 0-133.128906 59.605469-133.128906 133.128906 0 36.21875 14.472656 69.054688 37.9375 93.054688-25.6875 9.054687-44.105469 33.53125-44.105469 62.320312 0 25.996094 15.019531 48.476563 36.847657 59.261719-35.390626 9.734375-61.398438 42.128906-61.398438 80.613281 0 46.183594 37.4375 83.621094 83.621094 83.621094zm0 0" fill="#dfe0e0"/><path d="m291.675781 170.40625c1.75.140625 3.515625.230469 5.300781.230469 36.492188 0 66.074219-29.582031 66.074219-66.074219s-29.582031-66.074219-66.074219-66.074219c-11.566406 0-22.433593 2.980469-31.886718 8.203125-9.234375-10.804687-20.167969-20.113281-32.386719-27.511718l-114.171875 418.863281c-1.773438 6.511719 2.066406 13.226562 8.574219 15.003906l188.515625 51.382813c21.027344-11.058594 35.371094-33.101563 35.371094-58.503907 0-34.980469-27.183594-63.59375-61.578126-65.90625-6.984374-32.449219-28.414062-59.527343-57.230468-74.164062 4.257812-8.414063 6.671875-17.921875 6.671875-27.996094 0-10.835937-2.777344-21.015625-7.65625-29.882813 28.949219-17.015624 50.894531-44.65625 60.476562-77.570312zm0 0" fill="#c9caca"/></svg>