<svg viewBox="-25 0 512 512.00001" xmlns="http://www.w3.org/2000/svg"><path d="m379.953125 115.390625c-1.921875 0-3.839844-.734375-5.304687-2.199219-2.929688-2.925781-2.929688-7.675781 0-10.605468l14.742187-14.738282c2.257813-2.261718 2.257813-5.9375 0-8.195312l-62.953125-62.953125c-1.097656-1.097657-2.550781-1.699219-4.097656-1.699219-1.550782 0-3.003906.601562-4.097656 1.695312l-14.742188 14.742188c-2.929688 2.929688-7.679688 2.929688-10.605469 0-2.929687-2.929688-2.929687-7.675781 0-10.605469l14.742188-14.742187c3.925781-3.925782 9.148437-6.089844 14.703125-6.089844 5.554687 0 10.777344 2.164062 14.703125 6.089844l62.953125 62.953125c8.109375 8.109375 8.109375 21.300781 0 29.40625l-14.742188 14.742187c-1.464844 1.464844-3.382812 2.199219-5.300781 2.199219zm0 0" fill="#c9caca"/><path d="m140.480469 512c-5.324219 0-10.648438-2.027344-14.703125-6.082031l-62.953125-62.953125c-8.105469-8.105469-8.105469-21.296875 0-29.40625l14.742187-14.742188c2.929688-2.925781 7.675782-2.925781 10.605469 0 2.929687 2.929688 2.929687 7.679688 0 10.609375l-14.742187 14.742188c-2.257813 2.257812-2.257813 5.933593 0 8.191406l62.957031 62.953125c2.257812 2.257812 5.933593 2.261719 8.191406 0l14.742187-14.742188c2.929688-2.929687 7.675782-2.929687 10.605469 0 2.929688 2.929688 2.929688 7.679688 0 10.605469l-14.742187 14.742188c-4.054688 4.054687-9.378906 6.082031-14.703125 6.082031zm0 0" fill="#c9caca"/><path d="m164.800781 455.050781 30.238281 30.234375-12.34375 12.34375c-1.746093 1.746094-4.574218 1.746094-6.320312 0l-23.914062-23.917968c-1.746094-1.742188-1.746094-4.574219 0-6.316407zm0 0" fill="#fbe067"/><path d="m164.984375 455.230469 29.871094 29.875c3.105469 3.101562 8.136719 3.101562 11.238281 0l254.417969-254.414063c3.101562-3.105468 3.101562-8.136718 0-11.238281l-29.875-29.875c-3.101563-3.101563-8.132813-3.101563-11.238281 0l-254.414063 254.417969c-3.105469 3.101562-3.105469 8.132812 0 11.234375zm0 0" fill="#9b6a57"/><path d="m185.980469 464.992188 254.417969-254.417969c3.101562-3.101563 3.101562-8.132813 0-11.234375l20.113281 20.113281c3.101562 3.101563 3.101562 8.132813 0 11.234375l-254.417969 254.417969c-3.101562 3.101562-8.132812 3.101562-11.238281 0l-20.109375-20.113281c3.101562 3.105468 8.132812 3.105468 11.234375 0zm0 0" fill="#8b5f4e"/><path d="m256.855469 352.117188 69.164062-69.164063 41.113281 41.109375-69.164062 69.164062zm0 0" fill="#dfe0e0"/><path d="m277.855469 373.117188 69.164062-69.164063 20.113281 20.113281-69.164062 69.160156zm0 0" fill="#c9caca"/><path d="m113.691406 403.941406-30.234375-30.234375-12.34375 12.339844c-1.742187 1.746094-1.742187 4.574219 0 6.320313l23.917969 23.914062c1.746094 1.746094 4.574219 1.746094 6.320312 0zm0 0" fill="#fbe067"/><path d="m298.035156 56.976562-30.234375-30.234374 12.339844-12.34375c1.746094-1.746094 4.574219-1.746094 6.320313 0l23.917968 23.917968c1.742188 1.742188 1.742188 4.574219 0 6.316406zm0 0" fill="#fbe067"/><path d="m349.109375 108.050781 30.234375 30.238281 12.34375-12.34375c1.746094-1.746093 1.746094-4.574218 0-6.320312l-23.917969-23.914062c-1.742187-1.746094-4.570312-1.746094-6.316406 0zm0 0" fill="#fbe067"/><path d="m83.636719 373.886719 29.875 29.875c3.101562 3.101562 8.132812 3.101562 11.238281 0l254.414062-254.417969c3.105469-3.101562 3.105469-8.132812 0-11.238281l-29.871093-29.871094c-3.105469-3.105469-8.136719-3.105469-11.238281 0l-254.417969 254.414063c-3.101563 3.105468-3.101563 8.136718 0 11.238281zm0 0" fill="#9b6a57"/><path d="m104.636719 383.648438 254.414062-254.417969c3.105469-3.101563 3.105469-8.132813 0-11.234375l20.113281 20.109375c3.105469 3.105469 3.105469 8.136719 0 11.238281l-254.414062 254.417969c-3.105469 3.101562-8.136719 3.101562-11.238281 0l-20.113281-20.113281c3.105468 3.101562 8.136718 3.101562 11.238281 0zm0 0" fill="#8b5f4e"/><path d="m175.511719 270.769531 69.164062-69.160156 41.109375 41.109375-69.164062 69.164062zm0 0" fill="#dfe0e0"/><path d="m196.511719 291.769531 69.164062-69.164062 20.109375 20.113281-69.160156 69.164062zm0 0" fill="#c9caca"/><path d="m2.328125 292.574219 29.871094 29.875c3.105469 3.101562 8.136719 3.101562 11.238281 0l254.417969-254.417969c3.101562-3.101562 3.101562-8.132812 0-11.234375l-29.875-29.875c-3.101563-3.101563-8.132813-3.101563-11.238281 0l-254.414063 254.417969c-3.105469 3.101562-3.105469 8.132812 0 11.234375zm0 0" fill="#9b6a57"/><path d="m23.324219 302.335938 254.417969-254.414063c3.101562-3.105469 3.101562-8.136719 0-11.238281l20.113281 20.113281c3.101562 3.101563 3.101562 8.132813 0 11.234375l-254.417969 254.417969c-3.101562 3.101562-8.132812 3.101562-11.238281 0l-20.109375-20.113281c3.101562 3.101562 8.132812 3.101562 11.234375 0zm0 0" fill="#8b5f4e"/><path d="m94.203125 189.460938 69.164063-69.164063 41.109374 41.109375-69.164062 69.164062zm0 0" fill="#dfe0e0"/><path d="m115.199219 210.457031 69.164062-69.160156 20.113281 20.109375-69.164062 69.164062zm0 0" fill="#c9caca"/><g fill="#b7b7b7"><path d="m360.269531 330.925781-11.546875 11.550781-58.84375-23.378906 11.550782-11.550781zm0 0"/><path d="m334.109375 357.085938-11.546875 11.550781-58.84375-23.378907 11.550781-11.550781zm0 0"/><path d="m278.929688 249.574219-11.550782 11.5625-58.839844-23.390625 11.550782-11.550782zm0 0"/><path d="m252.769531 275.746094-11.550781 11.550781-58.839844-23.382813 11.550782-11.558593zm0 0"/><path d="m197.617188 168.261719-11.550782 11.5625-58.839844-23.390625 11.550782-11.550782zm0 0"/><path d="m171.457031 194.433594-11.550781 11.550781-58.839844-23.378906 11.550782-11.5625zm0 0"/></g></svg>