<svg viewBox="0 0 512 512.0005" xmlns="http://www.w3.org/2000/svg"><path d="m302.972656 171.753906 93.015625-93.011718 37.269531 37.269531-93.015624 93.011719zm0 0" fill="#dfe0e0"/><path d="m302.972656 171.753906 93.015625-93.015625 21.597657 21.597657-93.015626 93.015624zm0 0" fill="#c9caca"/><path d="m493.480469 18.519531c-24.695313-24.691406-64.730469-24.691406-89.425781 0-24.691407 24.695313-24.691407 64.730469 0 89.425781 24.695312 24.691407 64.730468 24.691407 89.425781 0 24.691406-24.695312 24.691406-64.730468 0-89.425781zm-64.480469 64.484375c-10.921875-10.921875-10.921875-28.621094 0-39.542968 10.917969-10.917969 28.621094-10.917969 39.539062 0 10.917969 10.921874 10.917969 28.621093 0 39.542968-10.917968 10.917969-28.621093 10.917969-39.539062 0zm0 0" fill="#5c626b"/><path d="m425.652344 40.117188c20.96875-20.96875 53-24.121094 77.304687-9.476563-2.601562-4.316406-5.753906-8.394531-9.476562-12.117187-24.695313-24.695313-64.730469-24.695313-89.421875 0-24.695313 24.691406-24.695313 64.726562 0 89.421874 3.722656 3.722657 7.800781 6.875 12.117187 9.476563-14.644531-24.304687-11.492187-56.335937 9.476563-77.304687zm0 0" fill="#535860"/><path d="m188.386719 257.472656.292969-.21875-155.351563 155.351563-33.328125 99.394531 99.394531-33.328125 155.351563-155.351563-.21875.292969v113.816407l85.71875-85.722657v-142.683593l-37.269532-37.269532h-142.683593l-85.722657 85.71875zm0 0" fill="#5c626b"/><path d="m188.679688 257.253906-155.351563 155.351563-33.328125 99.394531 321.609375-321.609375-18.632813-18.636719h-142.683593l-85.722657 85.71875h113.816407zm0 0" fill="#535860"/><path d="m316.148438 184.925781-26.503907 26.503907-108.367187-12.269532c-1.441406-.160156-2.898438.082032-4.207032.707032l-86.074218 41.183593-16.425782 16.421875h17.902344l89.269532-42.707031 93.929687 10.632813-270.160156 270.160156-5.511719 16.441406 16.4375-5.511719 270.164062-270.160156 10.632813 93.933594-42.707031 89.265625v17.902344l16.421875-16.421876 41.183593-86.078124c.625-1.308594.871094-2.765626.707032-4.203126l-12.269532-108.367187 26.503907-26.507813zm0 0" fill="#494f57"/><g fill="#b7b7b7"><path d="m357.730469 191.542969-11.515625 11.515625-24.878906-49.664063 11.515624-11.515625zm0 0"/><path d="m381.125 168.148438-11.515625 11.515624-24.878906-49.664062 11.515625-11.519531zm0 0"/><path d="m404.519531 144.75-11.503906 11.507812-24.878906-49.664062 11.503906-11.507812zm0 0"/></g></svg>