<svg viewBox="0 0 511.99923 511.99923" xmlns="http://www.w3.org/2000/svg"><g fill="#7a4f42"><path d="m212.210938 70.773438h87.578124v27h-87.578124zm0 0"/><path d="m212.210938 20.792969h87.578124v27h-87.578124zm0 0"/><path d="m20.792969 212.210938h27v87.578124h-27zm0 0"/><path d="m70.773438 212.210938h27v87.578124h-27zm0 0"/><path d="m414.226562 212.210938h27v87.578124h-27zm0 0"/><path d="m464.207031 212.210938h26.996094v87.578124h-26.996094zm0 0"/><path d="m212.210938 464.207031h87.578124v26.996094h-87.578124zm0 0"/><path d="m212.210938 414.226562h87.578124v27h-87.578124zm0 0"/></g><path d="m312.914062 353.4375h-113.828124c-7.804688 0-14.136719-6.328125-14.136719-14.136719v-166.601562c0-7.808594 6.328125-14.136719 14.136719-14.136719h113.828124c7.804688 0 14.136719 6.328125 14.136719 14.136719v166.601562c0 7.808594-6.332031 14.136719-14.136719 14.136719zm0 0" fill="#9b6a57"/><path d="m216.144531 339.300781v-166.601562c0-7.808594 6.328125-14.136719 14.136719-14.136719h-31.195312c-7.804688 0-14.136719 6.328125-14.136719 14.136719v166.601562c0 7.808594 6.328125 14.136719 14.136719 14.136719h31.195312c-7.808594 0-14.136719-6.328125-14.136719-14.136719zm0 0" fill="#8b5f4e"/><path d="m287.824219 118.082031c52.601562 12.089844 94.003906 53.492188 106.09375 106.089844 1.183593 5.152344 5.71875 8.832031 11.003906 8.832031h95.789063c6.859374 0 12.121093-6.070312 11.179687-12.863281-15.832031-114-106.03125-204.199219-220.03125-220.03125-6.792969-.941406-12.863281 4.316406-12.863281 11.179687v95.785157c0 5.289062 3.679687 9.824219 8.828125 11.007812zm0 0" fill="#9b6a57"/><path d="m118.082031 224.171875c12.089844-52.597656 53.492188-94 106.089844-106.089844 5.152344-1.183593 8.832031-5.71875 8.832031-11.007812v-95.785157c0-6.863281-6.070312-12.121093-12.863281-11.179687-114 15.832031-204.199219 106.03125-220.03125 220.03125-.941406 6.792969 4.316406 12.863281 11.179687 12.863281h95.785157c5.289062 0 9.824219-3.679687 11.007812-8.832031zm0 0" fill="#9b6a57"/><path d="m31.300781 220.140625c14.84375-106.878906 95.050781-192.839844 198.957031-216.207031-2.40625-2.785156-6.132812-4.378906-10.117187-3.824219-114 15.832031-204.199219 106.03125-220.03125 220.03125-.941406 6.792969 4.316406 12.863281 11.179687 12.863281h31.191407c-6.859375 0-12.121094-6.070312-11.179688-12.863281zm0 0" fill="#8b5f4e"/><path d="m224.171875 393.917969c-52.597656-12.089844-94-53.492188-106.089844-106.09375-1.183593-5.148438-5.71875-8.828125-11.007812-8.828125h-95.785157c-6.863281 0-12.121093 6.070312-11.179687 12.863281 15.832031 114 106.03125 204.199219 220.03125 220.03125 6.792969.941406 12.863281-4.320313 12.863281-11.179687v-95.789063c0-5.285156-3.679687-9.820313-8.832031-11.003906zm0 0" fill="#9b6a57"/><path d="m31.300781 291.859375c-.941406-6.792969 4.320313-12.863281 11.179688-12.863281h-31.191407c-6.863281 0-12.121093 6.070312-11.179687 12.863281 15.832031 114 106.03125 204.199219 220.03125 220.03125 3.984375.550781 7.710937-1.039063 10.117187-3.824219-103.90625-23.367187-184.113281-109.328125-198.957031-216.207031zm0 0" fill="#8b5f4e"/><path d="m393.917969 287.824219c-12.089844 52.601562-53.492188 94.003906-106.09375 106.09375-5.148438 1.183593-8.828125 5.71875-8.828125 11.003906v95.789063c0 6.859374 6.070312 12.121093 12.863281 11.179687 114-15.832031 204.199219-106.03125 220.03125-220.03125.941406-6.792969-4.320313-12.863281-11.179687-12.863281h-95.789063c-5.285156 0-9.820313 3.679687-11.003906 8.828125zm0 0" fill="#9b6a57"/><path d="m216.769531 197.878906c-1.917969 0-3.839843-.730468-5.304687-2.195312l-63.011719-63.011719c-2.925781-2.929687-2.925781-7.675781 0-10.605469 2.929687-2.929687 7.679687-2.929687 10.609375 0l63.011719 63.011719c2.925781 2.929687 2.925781 7.675781 0 10.605469-1.464844 1.464844-3.386719 2.195312-5.304688 2.195312zm0 0" fill="#dfe0e0"/><path d="m295.230469 197.878906c-1.917969 0-3.839844-.730468-5.304688-2.195312-2.929687-2.929688-2.929687-7.675782 0-10.605469l63.015625-63.011719c2.929688-2.929687 7.675782-2.929687 10.605469 0 2.929687 2.929688 2.929687 7.675782 0 10.605469l-63.011719 63.011719c-1.464844 1.464844-3.386718 2.195312-5.304687 2.195312zm0 0" fill="#dfe0e0"/><path d="m358.242188 392.128906c-1.917969 0-3.839844-.730468-5.304688-2.195312l-63.011719-63.011719c-2.929687-2.929687-2.929687-7.675781 0-10.605469 2.929688-2.929687 7.679688-2.929687 10.605469 0l63.015625 63.011719c2.929687 2.929687 2.929687 7.675781 0 10.605469-1.464844 1.464844-3.386719 2.195312-5.304687 2.195312zm0 0" fill="#dfe0e0"/><path d="m153.757812 392.128906c-1.921874 0-3.839843-.730468-5.304687-2.195312-2.929687-2.929688-2.929687-7.675782 0-10.605469l63.011719-63.011719c2.929687-2.929687 7.679687-2.929687 10.605468 0 2.929688 2.929688 2.929688 7.675782 0 10.605469l-63.011718 63.011719c-1.464844 1.464844-3.382813 2.195312-5.300782 2.195312zm0 0" fill="#dfe0e0"/></svg>