<svg viewBox="-88 0 512 512" xmlns="http://www.w3.org/2000/svg"><path d="m181.304688 66.558594-42.457032-24.003906v56.117187l42.457032-24.003906c3.152343-1.78125 3.152343-6.328125 0-8.109375zm0 0" fill="#dfe0e0"/><path d="m183.667969 70.613281c0-1.582031-.789063-3.164062-2.367188-4.054687l-42.453125-24.003906v28.058593zm0 0" fill="#c9caca"/><path d="m181.304688 112.441406-42.457032-24.003906v56.117188l42.457032-24c3.152343-1.785157 3.152343-6.328126 0-8.113282zm0 0" fill="#dfe0e0"/><path d="m183.667969 116.496094c0-1.582032-.789063-3.164063-2.367188-4.054688l-42.453125-24.003906v28.058594zm0 0" fill="#c9caca"/><path d="m181.304688 158.324219-42.457032-24.003907v56.117188l42.457032-24c3.152343-1.785156 3.152343-6.328125 0-8.113281zm0 0" fill="#dfe0e0"/><path d="m183.667969 162.382812c0-1.582031-.789063-3.167968-2.367188-4.058593l-42.453125-24.003907v28.058594h44.820313zm0 0" fill="#c9caca"/><path d="m12.078125 511.339844c70.703125-54.636719 112.101563-138.941406 112.101563-228.292969v-67.648437c14.6875-12.933594 23.964843-31.863282 23.964843-52.96875v-91.867188c0-38.96875-31.589843-70.5625-70.5625-70.5625-38.972656 0-70.566406 31.59375-70.566406 70.5625v438.289062c0 2.609376 3 4.082032 5.0625 2.488282zm34.882813-440.777344c0-16.882812 13.734374-30.621094 30.617187-30.621094 16.886719 0 30.625 13.738282 30.625 30.621094v91.867188c0 16.886718-13.738281 30.621093-30.625 30.621093-16.882813 0-30.617187-13.734375-30.617187-30.621093zm0 0" fill="#5c626b"/><path d="m129.550781 70.5625v91.867188c0 35.816406-26.691406 65.382812-61.265625 69.933593 3.042969.402344 6.144532.628907 9.296875.628907 38.972657 0 70.5625-31.589844 70.5625-70.5625v-91.867188c0-38.96875-31.589843-70.5625-70.5625-70.5625-3.15625 0-6.253906.226562-9.296875.628906 34.574219 4.554688 61.265625 34.117188 61.265625 69.933594zm0 0" fill="#535860"/><path d="m12.078125 511.339844c70.703125-54.636719 112.101563-138.941406 112.101563-228.292969v-67.648437c-12.429688 10.945312-28.734376 17.597656-46.597657 17.597656v50.050781c0 70.078125-25.46875 137.050781-70.566406 189.042969v36.765625c0 2.605469 3 4.078125 5.0625 2.484375zm0 0" fill="#dfe0e0"/><path d="m6.753906 169.132812h40.46875c3.730469 0 6.753906-3.023437 6.753906-6.75v-91.769531c0-3.730469-3.023437-6.753906-6.753906-6.753906h-40.46875c-3.726562 0-6.74999975 3.023437-6.74999975 6.753906v91.769531c0 3.726563 3.02343775 6.75 6.74999975 6.75zm0 0" fill="#e15f76"/><path d="m26.082031 70.613281v91.769531c0 3.726563-3.023437 6.75-6.75 6.75h27.890625c3.726563 0 6.75-3.023437 6.75-6.75v-91.769531c0-3.730469-3.023437-6.753906-6.75-6.753906h-27.890625c3.726563 0 6.75 3.023437 6.75 6.753906zm0 0" fill="#cb556a"/><path d="m155.628906 445.441406 42.453125 24.003906v-56.117187l-42.453125 24.003906c-3.15625 1.78125-3.15625 6.328125 0 8.109375zm0 0" fill="#dfe0e0"/><path d="m153.261719 441.386719c0 1.582031.789062 3.164062 2.367187 4.054687l42.457032 24.003906v-28.058593zm0 0" fill="#c9caca"/><path d="m155.628906 399.558594 42.453125 24.003906v-56.117188l-42.453125 24c-3.15625 1.785157-3.15625 6.328126 0 8.113282zm0 0" fill="#dfe0e0"/><path d="m153.261719 395.503906c0 1.582032.789062 3.164063 2.367187 4.054688l42.457032 24.003906v-28.058594zm0 0" fill="#c9caca"/><path d="m155.628906 353.675781 42.453125 24.003907v-56.117188l-42.453125 24c-3.15625 1.785156-3.15625 6.328125 0 8.113281zm0 0" fill="#dfe0e0"/><path d="m153.261719 349.617188c0 1.582031.789062 3.167968 2.367187 4.058593l42.457032 24.003907v-28.058594h-44.824219zm0 0" fill="#c9caca"/><path d="m324.851562.660156c-70.703124 54.636719-112.097656 138.941406-112.097656 228.292969v67.648437c-14.6875 12.933594-23.96875 31.863282-23.96875 52.96875v91.863282c0 38.972656 31.59375 70.566406 70.566406 70.566406 38.96875 0 70.5625-31.59375 70.5625-70.566406v-438.285156c0-2.609376-2.996093-4.082032-5.0625-2.488282zm-34.878906 440.777344c0 16.882812-13.734375 30.621094-30.621094 30.621094-16.882812 0-30.621093-13.738282-30.621093-30.621094v-91.867188c0-16.886718 13.738281-30.621093 30.621093-30.621093 16.886719 0 30.621094 13.734375 30.621094 30.621093zm0 0" fill="#5c626b"/><path d="m207.378906 441.4375v-91.867188c0-35.816406 26.695313-65.382812 61.269532-69.933593-3.046876-.402344-6.144532-.628907-9.296876-.628907-38.972656 0-70.566406 31.589844-70.566406 70.5625v91.867188c0 38.96875 31.59375 70.5625 70.566406 70.5625 3.152344 0 6.25-.226562 9.296876-.628906-34.574219-4.554688-61.269532-34.117188-61.269532-69.933594zm0 0" fill="#535860"/><path d="m324.851562.660156c-70.703124 54.636719-112.097656 138.941406-112.097656 228.292969v67.648437c12.429688-10.945312 28.730469-17.597656 46.597656-17.597656v-50.050781c0-70.078125 25.46875-137.050781 70.5625-189.042969v-36.761718c0-2.609376-2.996093-4.082032-5.0625-2.488282zm0 0" fill="#dfe0e0"/><path d="m330.175781 342.867188h-40.464843c-3.730469 0-6.753907 3.023437-6.753907 6.75v91.769531c0 3.730469 3.023438 6.753906 6.753907 6.753906h40.464843c3.730469 0 6.753907-3.023437 6.753907-6.753906v-91.769531c0-3.726563-3.023438-6.75-6.753907-6.75zm0 0" fill="#e15f76"/><path d="m310.847656 441.386719v-91.769531c0-3.726563 3.023438-6.75 6.753906-6.75h-27.890624c-3.730469 0-6.753907 3.023437-6.753907 6.75v91.769531c0 3.730469 3.023438 6.753906 6.753907 6.753906h27.890624c-3.730468 0-6.753906-3.023437-6.753906-6.753906zm0 0" fill="#cb556a"/><g fill="#bf5164"><path d="m53.972656 70.609375v10.910156l-53.972656 18.078125v-16.296875l52.023438-17.421875c1.214843 1.21875 1.949218 2.886719 1.949218 4.730469zm0 0"/><path d="m53.972656 99.320312v16.285157l-53.972656 18.082031v-16.296875zm0 0"/><path d="m53.972656 133.40625v16.289062l-52.023437 17.417969c-1.21875-1.214843-1.949219-2.894531-1.949219-4.738281v-10.910156zm0 0"/><path d="m336.933594 412.402344v16.296875l-52.027344 17.421875c-1.214844-1.21875-1.945312-2.886719-1.945312-4.730469v-10.910156zm0 0"/><path d="m336.933594 378.3125v16.296875l-53.972656 18.070313v-16.285157zm0 0"/><path d="m336.933594 349.621094v10.910156l-53.972656 18.0625v-16.289062l52.023437-17.417969c1.214844 1.214843 1.949219 2.890625 1.949219 4.734375zm0 0"/></g></svg>