<svg viewBox="0 0 511.99981 511" xmlns="http://www.w3.org/2000/svg"><path d="m503.148438 510.902344c-1.921876 0-3.839844-.730469-5.304688-2.195313l-492.039062-492.042969c-2.929688-2.929687-2.929688-7.675781 0-10.605468 2.929687-2.929688 7.675781-2.929688 10.605468 0l492.042969 492.039062c2.925781 2.933594 2.925781 7.679688 0 10.609375-1.46875 1.464844-3.386719 2.195313-5.304687 2.195313zm0 0" fill="#c9caca"/><path d="m161.421875 337.960938-32.167969-6.085938c-5.113281-.964844-10.371094.65625-14.050781 4.335938l-51.769531 51.769531c-4.398438 4.398437-2.074219 11.929687 4.039062 13.085937l36.957032 6.992188 6.992187 36.957031c1.15625 6.113281 8.683594 8.4375 13.085937 4.035156l51.769532-51.769531c3.679687-3.679688 5.300781-8.9375 4.332031-14.046875l-6.085937-32.167969c-1.257813-6.648437-6.457032-11.847656-13.101563-13.105468zm0 0" fill="#e15f76"/><path d="m129.253906 331.878906c-5.113281-.96875-10.371094.652344-14.050781 4.332032l-51.769531 51.769531c-4.398438 4.398437-2.074219 11.929687 4.039062 13.085937l36.957032 6.992188 65.5625-65.566406c-2.289063-2.285157-5.25-3.902344-8.574219-4.53125zm0 0" fill="#cb556a"/><path d="m104.429688 415.558594c-1.921876 0-3.839844-.730469-5.304688-2.195313-2.929688-2.929687-2.929688-7.679687 0-10.609375l340.386719-340.386718c2.929687-2.929688 7.679687-2.933594 10.609375 0 2.929687 2.929687 2.929687 7.675781 0 10.605468l-340.390625 340.390625c-1.464844 1.464844-3.382813 2.195313-5.300781 2.195313zm0 0" fill="#7a4f42"/><path d="m199.398438 35.660156h-85.578126c-34.65625 0-68.34375-11.425781-95.851562-32.511718l-.441406-.335938c-4.433594-3.398438-10.519532-2.996094-14.355469.84375-4.230469 4.226562-4.230469 11.082031 0 15.308594l4.957031 4.960937c29.546875 29.546875 69.617188 46.144531 111.402344 46.144531h74.761719c7.390625 0 14.480469 2.9375 19.710937 8.164063l220.25 220.25c5.226563 5.226563 8.164063 12.316406 8.164063 19.710937v74.761719c0 41.78125 16.597656 81.851563 46.140625 111.398438l4.960937 4.960937c4.226563 4.226563 11.082031 4.226563 15.308594 0 3.839844-3.839844 4.242187-9.929687.9375-14.238281l-.433594-.566406c-21.078125-27.503907-32.503906-61.1875-32.503906-95.839844v-85.585937c0-13.246094-5.265625-25.953126-14.632813-35.320313l-113.738281-113.738281-113.734375-113.738282c-9.367187-9.367187-22.074218-14.628906-35.324218-14.628906zm0 0" fill="#9b6a57"/><path d="m507.398438 495.4375-4.960938-4.960938c-29.542969-29.546874-46.140625-69.617187-46.140625-111.402343v-74.761719c0-7.390625-2.9375-14.480469-8.164063-19.710938l-110.125-110.121093-110.125-110.125c-5.226562-5.226563-12.316406-8.164063-19.710937-8.164063h-74.761719c-41.78125 0-81.855468-16.597656-111.398437-46.144531l-4.960938-4.960937c-1.144531-1.140626-1.964843-2.480469-2.492187-3.902344-3.917969-1.441406-8.351563-.5625-11.386719 2.472656-4.230469 4.226562-4.230469 11.082031 0 15.308594l4.957031 4.960937c29.546875 29.546875 69.617188 46.144531 111.402344 46.144531h74.761719c7.390625 0 14.480469 2.9375 19.710937 8.164063l220.25 220.25c5.226563 5.226563 8.164063 12.316406 8.164063 19.710937v74.761719c0 41.78125 16.597656 81.851563 46.140625 111.398438l4.960937 4.960937c4.226563 4.226563 11.082031 4.226563 15.308594 0 3.050781-3.046875 3.921875-7.511718 2.503906-11.378906-1.433593-.523438-2.78125-1.351562-3.933593-2.5zm0 0" fill="#8b5f4e"/><path d="m400.140625 215.054688-24.984375 24.984374c-3.449219 3.453126-9.042969 3.453126-12.492188 0l-90.21875-90.21875c-3.449218-3.449218-3.449218-9.039062 0-12.492187l24.984376-24.984375c3.449218-3.449219 9.042968-3.449219 12.492187 0l90.21875 90.21875c3.449219 3.453125 3.449219 9.042969 0 12.492188zm0 0" fill="#f9993e"/><path d="m376.542969 226.160156-90.21875-90.21875c-3.449219-3.449218-3.449219-9.042968 0-12.492187l-13.878907 13.878906c-3.449218 3.453125-3.449218 9.042969 0 12.492187l90.21875 90.21875c3.449219 3.453126 9.042969 3.453126 12.492188 0l13.878906-13.878906c-3.449218 3.449219-9.039062 3.449219-12.492187 0zm0 0" fill="#e58d39"/><path d="m489.9375 14.40625-80.449219 30.449219c-4.292969 1.625-5.476562 7.132812-2.230469 10.375l24.996094 25 25 25c3.242188 3.242187 8.753906 2.058593 10.375-2.230469l30.453125-80.449219c1.925781-5.089843-3.054687-10.074219-8.144531-8.144531zm0 0" fill="#c9caca"/><path d="m489.9375 14.40625-80.449219 30.449219c-4.292969 1.625-5.476562 7.132812-2.230469 10.375l24.996094 25 64.386719-64.382813c-1.640625-1.644531-4.160156-2.40625-6.703125-1.441406zm0 0" fill="#b7b7b7"/><g fill="#d3792f"><path d="m400.933594 203.480469-54.15625 20.675781-11.960938-11.960938 54.230469-20.726562 11.09375 11.09375c.289063.289062.558594.597656.792969.917969zm0 0"/><path d="m369.390625 171.8125-54.226563 20.726562-11.972656-11.96875 54.230469-20.71875zm0 0"/><path d="m337.765625 140.195312-54.230469 20.71875-11.09375-11.09375c-.289062-.289062-.546875-.589843-.78125-.90625l54.132813-20.6875zm0 0"/></g></svg>