<svg viewBox="0 0 512.001 512.001" xmlns="http://www.w3.org/2000/svg"><path d="m2.503906 477.363281 32.132813 32.132813c3.339843 3.339844 8.75 3.339844 12.085937 0l462.773438-462.773438c3.339844-3.335937 3.339844-8.746094 0-12.085937l-32.132813-32.132813c-3.335937-3.339844-8.75-3.339844-12.085937 0l-462.773438 462.773438c-3.335937 3.335937-3.335937 8.75 0 12.085937zm0 0" fill="#9b6a57"/><path d="m25.089844 487.863281 462.773437-462.773437c3.339844-3.335938 3.339844-8.75 0-12.085938l21.632813 21.632813c3.339844 3.339843 3.339844 8.75 0 12.085937l-462.773438 462.773438c-3.335937 3.339844-8.746094 3.339844-12.085937 0l-21.632813-21.632813c3.335938 3.335938 8.75 3.335938 12.085938 0zm0 0" fill="#8b5f4e"/><path d="m165.960938 301.816406 135.851562-135.855468 44.222656 44.222656-135.855468 135.855468zm0 0" fill="#dfe0e0"/><path d="m188.546875 324.40625 135.855469-135.855469 21.632812 21.632813-135.855468 135.855468zm0 0" fill="#c9caca"/><path d="m509.496094 477.363281-32.132813 32.132813c-3.335937 3.339844-8.75 3.339844-12.085937 0l-462.773438-462.773438c-3.339844-3.335937-3.339844-8.746094 0-12.085937l32.132813-32.132813c3.339843-3.339844 8.75-3.339844 12.085937 0l462.773438 462.773438c3.339844 3.335937 3.339844 8.75 0 12.085937zm0 0" fill="#9b6a57"/><path d="m486.910156 487.863281-462.773437-462.773437c-3.335938-3.335938-3.335938-8.75 0-12.085938l-21.632813 21.632813c-3.339844 3.339843-3.339844 8.75 0 12.085937l462.773438 462.773438c3.335937 3.339844 8.746094 3.339844 12.085937 0l21.632813-21.632813c-3.335938 3.335938-8.746094 3.335938-12.085938 0zm0 0" fill="#8b5f4e"/><path d="m165.960938 210.183594 44.21875-44.21875 135.855468 135.851562-44.222656 44.222656zm0 0" fill="#dfe0e0"/><path d="m165.960938 210.183594 21.632812-21.632813 135.855469 135.851563-21.636719 21.636718zm0 0" fill="#c9caca"/><g fill="#b7b7b7"><path d="m265.457031 221.242188-63.292969 25.136718-11.898437-11.898437 63.292969-25.136719zm0 0"/><path d="m293.589844 249.375-63.28125 25.148438-11.898438-11.898438 63.285156-25.148438zm0 0"/><path d="m321.738281 277.523438-63.296875 25.132812-11.898437-11.898438 63.292969-25.136718zm0 0"/></g></svg>