<svg viewBox="-13 0 512 512" xmlns="http://www.w3.org/2000/svg"><path d="m70.640625 317.917969c-3.445313 3.140625-6.859375 6.386719-10.226563 9.753906-97.484374 97.488281-47.707031 174.90625-47.707031 174.90625s.695313-49.6875 73.355469-122.347656c8.015625-8.015625 16.246094-15.457031 24.589844-22.300781zm0 0" fill="#dfe0e0"/><path d="m12.707031 502.539062c.042969-1.578124 1.875-50.824218 73.355469-122.308593 8.015625-8.011719 16.246094-15.453125 24.589844-22.300781l-18.742188-18.742188-25.660156 27.992188c-33.914062 36.984374-52.976562 85.183593-53.542969 135.359374zm0 0" fill="#c9caca"/><path d="m58.375 303.757812c6.410156-6.410156 16.800781-6.410156 23.210938 0l173.433593 173.433594c6.410157 6.410156 6.410157 16.804688 0 23.214844-6.410156 6.410156-16.800781 6.410156-23.210937 0l-173.433594-173.433594c-6.410156-6.410156-6.410156-16.804687 0-23.214844zm0 0" fill="#9b6a57"/><path d="m244.359375 487.851562-173.433594-173.433593c-4.488281-4.488281-10.925781-5.828125-16.585937-4.03125.769531-2.425781 2.113281-4.707031 4.035156-6.628907 6.410156-6.410156 16.800781-6.410156 23.210938 0l173.433593 173.433594c6.410157 6.410156 6.410157 16.800782 0 23.210938-1.921875 1.921875-4.203125 3.265625-6.625 4.035156 1.792969-5.660156.453125-12.097656-4.035156-16.585938zm0 0" fill="#8b5f4e"/><path d="m341.164062 31.324219s49.457032-33.023438 93.183594-15.707031c43.726563 17.3125 68.710938 120.726562 38.867188 258.839843 0 0-116.960938-87.191406-132.050782-243.132812zm0 0" fill="#535860"/><path d="m405.984375 56.4375c-21.753906-37.488281-57.429687-57.40625-79.6875-44.492188-22.253906 12.914063-22.660156 53.773438-.90625 91.257813 21.753906 37.488281 57.429687 57.40625 79.683594 44.492187 22.257812-12.914062 22.664062-53.773437.910156-91.257812zm0 0" fill="#e15f76"/><path d="m78.558594 512c0-90.886719 73.679687-164.5625 164.5625-164.5625 90.886718 0 164.566406 73.675781 164.566406 164.5625zm0 0" fill="#f7c2ad"/><path d="m258.121094 348.125c-4.9375-.449219-9.941406-.6875-15-.6875-90.882813 0-164.5625 73.675781-164.5625 164.5625h30c0-85.828125 65.710937-156.296875 149.5625-163.875zm0 0" fill="#efb5a0"/><path d="m351.636719 512v-30.253906c0-4.761719-3.863281-8.621094-8.621094-8.621094-18.945313 0-34.304687-15.359375-34.304687-34.304688v-77.78125c-20.097657-8.746093-42.273438-13.601562-65.589844-13.601562-23.3125 0-45.488282 4.859375-65.585938 13.601562v77.78125c0 18.945313-15.359375 34.304688-34.304687 34.304688-4.761719 0-8.621094 3.859375-8.621094 8.621094v30.253906zm0 0" fill="#cb556a"/><path d="m177.535156 361.039062v17.28125c20.476563 7.457032 42.566406 11.527344 65.585938 11.527344 23.023437 0 45.113281-4.070312 65.589844-11.527344v-17.28125c-20.097657-8.742187-42.273438-13.601562-65.589844-13.601562-23.3125 0-45.488282 4.859375-65.585938 13.601562zm0 0" fill="#bf5164"/><path d="m446.625 207.441406c0 19.355469-15.691406 35.042969-35.046875 35.042969s-35.046875-15.6875-35.046875-35.042969c0-19.355468 15.691406-35.046875 35.046875-35.046875s35.046875 15.691407 35.046875 35.046875zm0 0" fill="#efb5a0"/><path d="m109.710938 207.441406c0 19.355469-15.6875 35.042969-35.042969 35.042969s-35.046875-15.6875-35.046875-35.042969c0-19.355468 15.691406-35.046875 35.046875-35.046875s35.042969 15.691407 35.042969 35.046875zm0 0" fill="#eaaa96"/><path d="m419.917969 197.601562c0 97.640626-79.152344 176.792969-176.796875 176.792969-97.640625 0-176.792969-79.152343-176.792969-176.792969 0-97.640624 79.152344-176.796874 176.792969-176.796874 97.644531 0 176.796875 79.15625 176.796875 176.796874zm0 0" fill="#f7c2ad"/><path d="m97.234375 197.601562c0-92.433593 70.9375-168.285156 161.339844-176.117187-5.09375-.441406-10.242188-.679687-15.453125-.679687-97.640625 0-176.792969 79.15625-176.792969 176.796874 0 97.640626 79.152344 176.796876 176.792969 176.796876 5.210937 0 10.359375-.242188 15.453125-.679688-90.402344-7.832031-161.339844-83.683594-161.339844-176.117188zm0 0" fill="#efb5a0"/><path d="m330.175781 250.136719c-41.667969 0-70.054687-29.875-87.054687-29.875-16.996094 0-45.382813 29.875-87.046875 29.875-23.214844 0-56.699219 0-81.808594 0 22.371094 71.988281 89.511719 124.257812 168.859375 124.257812s146.484375-52.273437 168.859375-124.257812c-25.117187 0-58.597656 0-81.808594 0zm0 0" fill="#e15f76"/><path d="m105.167969 250.136719c-10.824219 0-21.457031 0-30.902344 0 22.371094 71.988281 89.511719 124.257812 168.859375 124.257812 5.222656 0 10.386719-.230469 15.496094-.675781-72.535156-6.261719-132.542969-56.308594-153.453125-123.582031zm0 0" fill="#cb556a"/><path d="m243.121094 0c-105.78125 0-192.148438 83.121094-197.347656 187.613281 0 0 25.304687.394531 63.9375-48.539062l14.132812 24.070312c.847656 1.445313 2.234375 2.496094 3.855469 2.917969 75.671875 19.828125 155.175781 19.828125 230.847656 0 1.621094-.421875 3.007813-1.472656 3.855469-2.917969l14.128906-24.070312c38.632812 48.933593 63.941406 48.539062 63.941406 48.539062-5.199218-104.492187-91.566406-187.613281-197.351562-187.613281zm0 0" fill="#5c626b"/><path d="m258.574219.601562c-5.097657-.394531-10.25-.601562-15.453125-.601562-105.78125 0-192.148438 83.121094-197.347656 187.613281 0 0 12.101562.183594 32.347656-15.882812 12.015625-91.882813 87.144531-163.910157 180.453125-171.128907zm0 0" fill="#535860"/><g fill="#494f57"><path d="m306.8125 230.109375c-4.144531 0-7.5-3.355469-7.5-7.5v-11.351563c0-4.144531 3.355469-7.5 7.5-7.5 4.140625 0 7.5 3.355469 7.5 7.5v11.351563c0 4.144531-3.359375 7.5-7.5 7.5zm0 0"/><path d="m179.433594 230.109375c-4.140625 0-7.5-3.355469-7.5-7.5v-11.351563c0-4.144531 3.359375-7.5 7.5-7.5s7.5 3.355469 7.5 7.5v11.351563c0 4.144531-3.359375 7.5-7.5 7.5zm0 0"/></g></svg>