<svg viewBox="0 -16 511.99904 511" xmlns="http://www.w3.org/2000/svg"><path d="m62.019531 282.238281h387.027344v173.769531h-387.027344zm0 0" fill="#dfe0e0"/><path d="m62.019531 282.238281h27.910157v173.769531h-27.910157zm0 0" fill="#c9caca"/><path d="m255.53125 330.464844c-25.691406 0-46.515625 20.824218-46.515625 46.515625v74.375h93.035156v-74.375c0-25.691407-20.828125-46.515625-46.519531-46.515625zm0 0" fill="#9b6a57"/><path d="m265.53125 331.550781c-3.222656-.703125-6.566406-1.085937-10-1.085937-25.691406 0-46.515625 20.824218-46.515625 46.515625v74.375h20v-74.375c0-22.257813 15.632813-40.851563 36.515625-45.429688zm0 0" fill="#8b5f4e"/><path d="m248.03125 451.355469h15v-120.28125c-2.441406-.398438-4.945312-.609375-7.5-.609375s-5.054688.210937-7.5.609375zm0 0" fill="#7a4f42"/><path d="m106.675781 103.5625h297.710938v144.808594h-297.710938zm0 0" fill="#dfe0e0"/><path d="m106.675781 103.5625h27.910157v144.808594h-27.910157zm0 0" fill="#c9caca"/><path d="m475.792969 480.195312h-440.523438c-6.035156 0-10.929687-4.894531-10.929687-10.929687v-26.515625c0-6.039062 4.894531-10.933594 10.929687-10.933594h440.523438c6.039062 0 10.933593 4.894532 10.933593 10.933594v26.515625c0 6.035156-4.894531 10.929687-10.933593 10.929687zm0 0" fill="#535860"/><path d="m52.25 469.265625v-26.515625c0-6.039062 4.894531-10.933594 10.933594-10.933594h-27.914063c-6.035156 0-10.929687 4.894532-10.929687 10.933594v26.515625c0 6.035156 4.894531 10.929687 10.929687 10.929687h27.914063c-6.039063 0-10.933594-4.894531-10.933594-10.929687zm0 0" fill="#494f57"/><path d="m400.167969 391.566406h-45.675781c-4.261719 0-7.714844-3.453125-7.714844-7.710937v-45.679688c0-4.257812 3.453125-7.714843 7.714844-7.714843h45.675781c4.261719 0 7.714843 3.453124 7.714843 7.714843v45.679688c0 4.257812-3.453124 7.710937-7.714843 7.710937zm0 0" fill="#fbe067"/><path d="m156.574219 391.566406h-45.679688c-4.257812 0-7.710937-3.453125-7.710937-7.710937v-45.679688c0-4.257812 3.453125-7.714843 7.710937-7.714843h45.679688c4.257812 0 7.714843 3.453124 7.714843 7.714843v45.679688c-.003906 4.257812-3.457031 7.710937-7.714843 7.710937zm0 0" fill="#fbe067"/><path d="m184.71875 194.9375h-45.675781c-4.257813 0-7.714844-3.453125-7.714844-7.714844v-45.675781c0-4.261719 3.453125-7.714844 7.714844-7.714844h45.675781c4.261719 0 7.714844 3.453125 7.714844 7.714844v45.675781c0 4.261719-3.453125 7.714844-7.714844 7.714844zm0 0" fill="#fbe067"/><path d="m373.109375 194.9375h-45.675781c-4.261719 0-7.714844-3.453125-7.714844-7.714844v-45.675781c0-4.261719 3.453125-7.714844 7.714844-7.714844h45.675781c4.261719 0 7.714844 3.453125 7.714844 7.714844v45.675781c0 4.261719-3.453125 7.714844-7.714844 7.714844zm0 0" fill="#fbe067"/><path d="m278.914062 194.9375h-45.675781c-4.261719 0-7.714843-3.453125-7.714843-7.714844v-45.675781c0-4.261719 3.453124-7.714844 7.714843-7.714844h45.675781c4.261719 0 7.714844 3.453125 7.714844 7.714844v45.675781c0 4.261719-3.453125 7.714844-7.714844 7.714844zm0 0" fill="#fbe067"/><path d="m413.816406 222.417969c-.246094-.453125-.71875-.730469-1.234375-.730469h-313.164062c-.511719 0-.988281.277344-1.234375.730469-3.304688 6.046875-27.382813 48.257812-69.089844 74.554687-1.199219.753906-.675781 2.605469.742188 2.605469h452.328124c1.417969 0 1.941407-1.851563.742188-2.605469-41.707031-26.296875-65.785156-68.507812-69.089844-74.554687zm0 0" fill="#5c626b"/><path d="m59.09375 296.972656c41.707031-26.296875 65.785156-68.507812 69.089844-74.554687.246094-.449219.722656-.726563 1.234375-.726563h-30c-.511719 0-.988281.277344-1.234375.726563-3.304688 6.046875-27.382813 48.257812-69.089844 74.554687-1.199219.753906-.675781 2.605469.742188 2.605469h30c-1.417969 0-1.941407-1.851563-.742188-2.605469zm0 0" fill="#535860"/><path d="m367.019531 31.742188c-.25-.453126-.722656-.730469-1.238281-.730469h-219.5625c-.515625 0-.988281.277343-1.238281.730469-3.304688 6.046874-27.378907 48.257812-69.089844 74.550781-1.199219.757812-.671875 2.605469.746094 2.605469h358.730469c1.417968 0 1.941406-1.847657.742187-2.605469-41.710937-26.292969-65.785156-68.503907-69.089844-74.550781zm0 0" fill="#5c626b"/><path d="m105.890625 106.292969c41.710937-26.292969 65.785156-68.503907 69.089844-74.550781.246093-.453126.722656-.730469 1.238281-.730469h-30c-.515625 0-.992188.277343-1.238281.730469-3.304688 6.046874-27.378907 48.257812-69.089844 74.550781-1.199219.757812-.671875 2.605469.746094 2.605469h30c-1.417969 0-1.945313-1.847657-.746094-2.605469zm0 0" fill="#535860"/><g fill="#494f57"><path d="m400.167969 399.066406h-45.675781c-8.390626 0-15.214844-6.824218-15.214844-15.210937v-45.679688c0-8.386719 6.824218-15.214843 15.214844-15.214843h45.675781c8.390625 0 15.214843 6.828124 15.214843 15.214843v45.679688c0 8.386719-6.824218 15.210937-15.214843 15.210937zm-45.675781-61.105468c-.117188 0-.214844.097656-.214844.214843v45.679688c0 .117187.097656.210937.214844.210937h45.675781c.117187 0 .214843-.09375.214843-.210937v-45.679688c0-.117187-.097656-.214843-.214843-.214843zm0 0"/><path d="m377.332031 399.066406c-4.144531 0-7.5-3.355468-7.5-7.5v-61.101562c0-4.144532 3.355469-7.5 7.5-7.5 4.140625 0 7.5 3.355468 7.5 7.5v61.101562c0 4.144532-3.359375 7.5-7.5 7.5zm0 0"/><path d="m407.882812 368.515625h-61.105468c-4.140625 0-7.5-3.359375-7.5-7.5s3.359375-7.5 7.5-7.5h61.105468c4.140626 0 7.5 3.359375 7.5 7.5s-3.359374 7.5-7.5 7.5zm0 0"/><path d="m156.574219 399.066406h-45.679688c-8.386719 0-15.210937-6.824218-15.210937-15.210937v-45.679688c0-8.386719 6.824218-15.214843 15.210937-15.214843h45.679688c8.386719 0 15.214843 6.828124 15.214843 15.214843v45.679688c0 8.386719-6.828124 15.210937-15.214843 15.210937zm-45.679688-61.105468c-.117187 0-.210937.097656-.210937.214843v45.679688c0 .117187.09375.210937.210937.210937h45.679688c.117187 0 .214843-.09375.214843-.210937v-45.679688c0-.117187-.097656-.214843-.214843-.214843zm0 0"/><path d="m133.734375 399.066406c-4.140625 0-7.5-3.355468-7.5-7.5v-61.101562c0-4.144532 3.359375-7.5 7.5-7.5s7.5 3.355468 7.5 7.5v61.101562c0 4.144532-3.359375 7.5-7.5 7.5zm0 0"/><path d="m164.289062 368.515625h-61.105468c-4.140625 0-7.5-3.359375-7.5-7.5s3.359375-7.5 7.5-7.5h61.105468c4.140626 0 7.5 3.359375 7.5 7.5s-3.359374 7.5-7.5 7.5zm0 0"/><path d="m184.71875 202.4375h-45.675781c-8.386719 0-15.214844-6.824219-15.214844-15.214844v-45.675781c0-8.390625 6.828125-15.214844 15.214844-15.214844h45.675781c8.390625 0 15.214844 6.828125 15.214844 15.214844v45.675781c0 8.390625-6.824219 15.214844-15.214844 15.214844zm-45.675781-61.105469c-.117188 0-.214844.097657-.214844.214844v45.675781c0 .117188.097656.214844.214844.214844h45.675781c.121094 0 .214844-.097656.214844-.214844v-45.675781c0-.117187-.097656-.214844-.214844-.214844zm0 0"/><path d="m161.882812 202.4375c-4.140624 0-7.5-3.359375-7.5-7.5v-61.105469c0-4.140625 3.359376-7.5 7.5-7.5 4.140626 0 7.5 3.359375 7.5 7.5v61.105469c0 4.140625-3.359374 7.5-7.5 7.5zm0 0"/><path d="m192.433594 171.882812h-61.101563c-4.144531 0-7.5-3.355468-7.5-7.5 0-4.140624 3.355469-7.5 7.5-7.5h61.101563c4.144531 0 7.5 3.359376 7.5 7.5 0 4.144532-3.355469 7.5-7.5 7.5zm0 0"/><path d="m373.109375 202.4375h-45.675781c-8.390625 0-15.214844-6.824219-15.214844-15.214844v-45.675781c0-8.390625 6.824219-15.214844 15.214844-15.214844h45.675781c8.390625 0 15.214844 6.828125 15.214844 15.214844v45.675781c0 8.390625-6.824219 15.214844-15.214844 15.214844zm-45.675781-61.105469c-.117188 0-.214844.097657-.214844.214844v45.675781c0 .117188.097656.214844.214844.214844h45.675781c.117187 0 .214844-.097656.214844-.214844v-45.675781c0-.117187-.097657-.214844-.214844-.214844zm0 0"/><path d="m350.269531 202.4375c-4.140625 0-7.5-3.359375-7.5-7.5v-61.105469c0-4.140625 3.359375-7.5 7.5-7.5 4.144531 0 7.5 3.359375 7.5 7.5v61.105469c0 4.140625-3.355469 7.5-7.5 7.5zm0 0"/><path d="m380.824219 171.882812h-61.105469c-4.144531 0-7.5-3.355468-7.5-7.5 0-4.140624 3.355469-7.5 7.5-7.5h61.105469c4.140625 0 7.5 3.359376 7.5 7.5 0 4.144532-3.359375 7.5-7.5 7.5zm0 0"/><path d="m278.914062 202.4375h-45.675781c-8.390625 0-15.214843-6.824219-15.214843-15.214844v-45.675781c0-8.390625 6.828124-15.214844 15.214843-15.214844h45.675781c8.390626 0 15.214844 6.828125 15.214844 15.214844v45.675781c0 8.390625-6.824218 15.214844-15.214844 15.214844zm-45.675781-61.105469c-.117187 0-.214843.097657-.214843.214844v45.675781c0 .117188.097656.214844.214843.214844h45.675781c.117188 0 .214844-.097656.214844-.214844v-45.675781c0-.117187-.097656-.214844-.214844-.214844zm0 0"/><path d="m256.078125 202.4375c-4.144531 0-7.5-3.359375-7.5-7.5v-61.105469c0-4.140625 3.355469-7.5 7.5-7.5 4.140625 0 7.5 3.359375 7.5 7.5v61.105469c0 4.140625-3.359375 7.5-7.5 7.5zm0 0"/><path d="m286.628906 171.882812h-61.105468c-4.140626 0-7.5-3.355468-7.5-7.5 0-4.140624 3.359374-7.5 7.5-7.5h61.105468c4.140625 0 7.5 3.359376 7.5 7.5 0 4.144532-3.359375 7.5-7.5 7.5zm0 0"/><path d="m482.273438 307.078125h-452.546876c-6.789062 0-13.226562-2.949219-17.667968-8.085937l-10.234375-11.851563c-2.707031-3.136719-2.359375-7.871094.773437-10.578125 3.132813-2.707031 7.871094-2.359375 10.578125.773438l10.234375 11.851562c1.585938 1.835938 3.890625 2.890625 6.316406 2.890625h452.546876c2.425781 0 4.730468-1.054687 6.3125-2.890625l10.238281-11.851562c2.707031-3.132813 7.445312-3.480469 10.578125-.773438 3.132812 2.707031 3.480468 7.445312.773437 10.578125l-10.238281 11.851563c-4.433594 5.136718-10.875 8.085937-17.664062 8.085937zm0 0"/><path d="m435.476562 116.398438h-358.953124c-6.785157 0-13.226563-2.945313-17.664063-8.082032l-10.238281-11.851562c-2.707032-3.136719-2.359375-7.871094.773437-10.578125 3.136719-2.707031 7.871094-2.359375 10.578125.773437l10.238282 11.851563c1.585937 1.835937 3.886718 2.890625 6.3125 2.890625h358.949218c2.429688 0 4.730469-1.054688 6.316406-2.890625l10.234376-11.851563c2.707031-3.132812 7.445312-3.480468 10.578124-.773437 3.136719 2.707031 3.480469 7.445312.773438 10.578125l-10.234375 11.851562c-4.4375 5.136719-10.875 8.082032-17.664063 8.082032zm0 0"/><path d="m365.78125 38.511719h-219.5625c-4.140625 0-7.5-3.359375-7.5-7.5v-23.011719c0-4.140625 3.359375-7.5 7.5-7.5s7.5 3.359375 7.5 7.5v15.511719h204.5625v-15.511719c0-4.140625 3.359375-7.5 7.5-7.5 4.144531 0 7.5 3.359375 7.5 7.5v23.011719c0 4.140625-3.355469 7.5-7.5 7.5zm0 0"/></g></svg>