<svg viewBox="0 -6 512 511" xmlns="http://www.w3.org/2000/svg"><path d="m499.789062 144.308594h-51.886718c-6.742188 0-12.210938-5.46875-12.210938-12.210938v-97.195312c0-6.742188 5.46875-12.210938 12.210938-12.210938h51.886718c6.742188 0 12.210938 5.46875 12.210938 12.210938v97.195312c0 6.742188-5.46875 12.210938-12.210938 12.210938zm0 0" fill="#9b6a57"/><path d="m64.097656 144.308594h-51.886718c-6.742188 0-12.210938-5.46875-12.210938-12.210938v-97.195312c0-6.742188 5.46875-12.210938 12.210938-12.210938h51.886718c6.742188 0 12.210938 5.46875 12.210938 12.210938v97.195312c0 6.742188-5.46875 12.210938-12.210938 12.210938zm0 0" fill="#9b6a57"/><path d="m455.460938 166.5h-398.921876c-10.152343 0-18.386718-8.230469-18.386718-18.382812v-129.230469c0-10.15625 8.234375-18.386719 18.386718-18.386719h398.921876c10.152343 0 18.386718 8.230469 18.386718 18.386719v129.230469c0 10.152343-8.234375 18.382812-18.386718 18.382812zm0 0" fill="#52b4de"/><path d="m71.265625 148.113281v-129.226562c0-10.15625 8.230469-18.386719 18.386719-18.386719h-33.113282c-10.152343 0-18.386718 8.230469-18.386718 18.386719v129.230469c0 10.152343 8.234375 18.382812 18.386718 18.382812h33.113282c-10.15625 0-18.386719-8.230469-18.386719-18.386719zm0 0" fill="#4aa2c8"/><path d="m112.511719.5h286.976562v166h-286.976562zm0 0" fill="#e15f76"/><path d="m112.511719.5h33.113281v166h-33.113281zm0 0" fill="#cb556a"/><path d="m499.789062 310.308594h-51.886718c-6.742188 0-12.210938-5.464844-12.210938-12.210938v-97.191406c0-6.746094 5.46875-12.214844 12.210938-12.214844h51.886718c6.742188 0 12.210938 5.46875 12.210938 12.214844v97.191406c0 6.742188-5.46875 12.210938-12.210938 12.210938zm0 0" fill="#9b6a57"/><path d="m64.097656 310.308594h-51.886718c-6.742188 0-12.210938-5.46875-12.210938-12.210938v-97.191406c0-6.746094 5.46875-12.214844 12.210938-12.214844h51.886718c6.742188 0 12.210938 5.46875 12.210938 12.214844v97.191406c0 6.742188-5.46875 12.210938-12.210938 12.210938zm0 0" fill="#9b6a57"/><path d="m455.460938 332.5h-398.921876c-10.152343 0-18.386718-8.230469-18.386718-18.382812v-129.230469c0-10.15625 8.234375-18.386719 18.386718-18.386719h398.921876c10.152343 0 18.386718 8.230469 18.386718 18.386719v129.230469c0 10.152343-8.234375 18.382812-18.386718 18.382812zm0 0" fill="#5c626b"/><path d="m71.265625 314.117188v-129.230469c0-10.15625 8.230469-18.386719 18.386719-18.386719h-33.113282c-10.152343 0-18.386718 8.230469-18.386718 18.386719v129.230469c0 10.152343 8.234375 18.386718 18.386718 18.386718h33.113282c-10.15625-.003906-18.386719-8.234375-18.386719-18.386718zm0 0" fill="#535860"/><path d="m112.511719 166.5h286.976562v166.003906h-286.976562zm0 0" fill="#dfe0e0"/><path d="m256 271.925781c-10.484375 0-18.984375-8.5-18.984375-18.984375v-14.238281h37.96875v14.238281c0 10.484375-8.5 18.984375-18.984375 18.984375zm0 0" fill="#494f57"/><path d="m112.511719 166.5h33.113281v166.003906h-33.113281zm0 0" fill="#c9caca"/><path d="m499.789062 476.308594h-51.886718c-6.742188 0-12.210938-5.464844-12.210938-12.210938v-97.191406c0-6.746094 5.46875-12.210938 12.210938-12.210938h51.886718c6.742188 0 12.210938 5.464844 12.210938 12.210938v97.191406c0 6.746094-5.46875 12.210938-12.210938 12.210938zm0 0" fill="#9b6a57"/><path d="m64.097656 476.308594h-51.886718c-6.742188 0-12.210938-5.464844-12.210938-12.210938v-97.191406c0-6.746094 5.46875-12.210938 12.210938-12.210938h51.886718c6.742188 0 12.210938 5.464844 12.210938 12.210938v97.191406c0 6.746094-5.46875 12.210938-12.210938 12.210938zm0 0" fill="#9b6a57"/><path d="m455.460938 498.503906h-398.921876c-10.152343 0-18.386718-8.234375-18.386718-18.386718v-129.230469c0-10.152344 8.234375-18.382813 18.386718-18.382813h398.921876c10.152343 0 18.386718 8.230469 18.386718 18.382813v129.230469c0 10.152343-8.234375 18.386718-18.386718 18.386718zm0 0" fill="#f9993e"/><path d="m71.265625 480.117188v-129.230469c0-10.15625 8.230469-18.386719 18.386719-18.386719h-33.113282c-10.152343 0-18.386718 8.230469-18.386718 18.386719v129.230469c0 10.152343 8.234375 18.386718 18.386718 18.386718h33.113282c-10.15625 0-18.386719-8.234375-18.386719-18.386718zm0 0" fill="#e58d39"/><path d="m112.511719 332.5h286.976562v166.003906h-286.976562zm0 0" fill="#fbe067"/><path d="m112.511719 332.5h33.113281v166.003906h-33.113281zm0 0" fill="#e7ce5f"/><g fill="#494f57"><path d="m256 437.253906c-10.484375 0-18.984375-8.5-18.984375-18.984375v-14.234375h37.96875v14.234375c0 10.484375-8.5 18.984375-18.984375 18.984375zm0 0"/><path d="m256 113.425781c-10.289062 0-19.867188-5.546875-25-14.476562-2.0625-3.589844-.824219-8.171875 2.765625-10.238281 3.589844-2.066407 8.175781-.828126 10.238281 2.765624 2.464844 4.285157 7.0625 6.949219 11.996094 6.949219s9.53125-2.664062 11.992188-6.949219c2.066406-3.589843 6.652343-4.828124 10.242187-2.761718 3.589844 2.0625 4.828125 6.644531 2.765625 10.238281-5.132812 8.925781-14.710938 14.472656-25 14.472656zm0 0"/><path d="m326.296875 81.109375c-4.140625 0-7.5-3.355469-7.5-7.5v-12.535156c0-4.140625 3.359375-7.5 7.5-7.5s7.5 3.359375 7.5 7.5v12.535156c0 4.144531-3.359375 7.5-7.5 7.5zm0 0"/><path d="m185.703125 81.109375c-4.140625 0-7.5-3.355469-7.5-7.5v-12.535156c0-4.140625 3.359375-7.5 7.5-7.5s7.5 3.359375 7.5 7.5v12.535156c0 4.144531-3.359375 7.5-7.5 7.5zm0 0"/></g><path d="m332.5625 104.804688h-12.53125c-4.144531 0-7.5-3.359376-7.5-7.5 0-4.144532 3.355469-7.5 7.5-7.5h12.53125c4.144531 0 7.5 3.355468 7.5 7.5 0 4.140624-3.355469 7.5-7.5 7.5zm0 0" fill="#dfe0e0"/><path d="m191.96875 104.804688h-12.535156c-4.140625 0-7.5-3.359376-7.5-7.5 0-4.144532 3.359375-7.5 7.5-7.5h12.535156c4.140625 0 7.5 3.355468 7.5 7.5 0 4.140624-3.359375 7.5-7.5 7.5zm0 0" fill="#dfe0e0"/><path d="m326.296875 247.109375c-4.140625 0-7.5-3.355469-7.5-7.5v-12.53125c0-4.144531 3.359375-7.5 7.5-7.5s7.5 3.355469 7.5 7.5v12.53125c0 4.144531-3.359375 7.5-7.5 7.5zm0 0" fill="#494f57"/><path d="m185.703125 247.109375c-4.140625 0-7.5-3.355469-7.5-7.5v-12.53125c0-4.144531 3.359375-7.5 7.5-7.5s7.5 3.355469 7.5 7.5v12.53125c0 4.144531-3.359375 7.5-7.5 7.5zm0 0" fill="#494f57"/><path d="m332.5625 270.804688h-12.53125c-4.144531 0-7.5-3.359376-7.5-7.5 0-4.144532 3.355469-7.5 7.5-7.5h12.53125c4.144531 0 7.5 3.355468 7.5 7.5 0 4.140624-3.355469 7.5-7.5 7.5zm0 0" fill="#e15f76"/><path d="m191.96875 270.804688h-12.535156c-4.140625 0-7.5-3.359376-7.5-7.5 0-4.144532 3.359375-7.5 7.5-7.5h12.535156c4.140625 0 7.5 3.355468 7.5 7.5 0 4.140624-3.359375 7.5-7.5 7.5zm0 0" fill="#e15f76"/><path d="m185.703125 411.09375c-9.671875 0-18.679687-5.210938-23.503906-13.605469-2.0625-3.589843-.828125-8.175781 2.765625-10.238281 3.589844-2.066406 8.171875-.828125 10.238281 2.761719 2.15625 3.753906 6.179687 6.085937 10.5 6.085937s8.34375-2.332031 10.5-6.082031c2.0625-3.59375 6.648437-4.832031 10.238281-2.765625 3.59375 2.0625 4.828125 6.648438 2.765625 10.238281-4.824219 8.394531-13.832031 13.605469-23.503906 13.605469zm0 0" fill="#494f57"/><path d="m326.296875 411.09375c-9.671875 0-18.679687-5.210938-23.503906-13.605469-2.0625-3.589843-.828125-8.175781 2.765625-10.238281 3.589844-2.066406 8.171875-.828125 10.238281 2.761719 2.15625 3.753906 6.179687 6.085937 10.5 6.085937s8.34375-2.332031 10.5-6.082031c2.0625-3.59375 6.648437-4.832031 10.238281-2.765625 3.59375 2.0625 4.828125 6.648438 2.765625 10.238281-4.824219 8.394531-13.832031 13.605469-23.503906 13.605469zm0 0" fill="#494f57"/><path d="m332.5625 436.132812h-12.53125c-4.140625 0-7.5-3.359374-7.5-7.5 0-4.144531 3.359375-7.5 7.5-7.5h12.53125c4.144531 0 7.5 3.355469 7.5 7.5 0 4.140626-3.355469 7.5-7.5 7.5zm0 0" fill="#e15f76"/><path d="m191.96875 436.132812h-12.535156c-4.140625 0-7.5-3.359374-7.5-7.5 0-4.144531 3.359375-7.5 7.5-7.5h12.535156c4.140625 0 7.5 3.355469 7.5 7.5 0 4.140626-3.359375 7.5-7.5 7.5zm0 0" fill="#e15f76"/></svg>