<svg viewBox="-17 0 511 512" xmlns="http://www.w3.org/2000/svg"><g fill="#494f57"><path d="m90.042969 281.96875c-2.285157 0-4.539063-1.039062-6.011719-3.007812l-76.398438-102.105469c-2.480468-3.316407-1.804687-8.015625 1.511719-10.496094 3.320313-2.480469 8.019531-1.804687 10.5 1.511719l76.394531 102.105468c2.480469 3.3125 1.804688 8.015626-1.511718 10.496094-1.347656 1.007813-2.925782 1.496094-4.484375 1.496094zm0 0"/><path d="m387.445312 281.96875c-1.5625 0-3.136718-.488281-4.484374-1.496094-3.316407-2.480468-3.992188-7.183594-1.511719-10.496094l68.929687-92.128906c2.480469-3.316406 7.183594-3.992187 10.5-1.511718 3.316406 2.480468 3.992188 7.183593 1.511719 10.5l-68.933594 92.125c-1.472656 1.96875-3.726562 3.007812-6.011719 3.007812zm0 0"/><path d="m415.539062 394.527344h-52.277343c-31.433594 0-56.921875-25.484375-56.921875-56.921875h52.277344c31.4375 0 56.921874 25.484375 56.921874 56.921875zm0 0"/><path d="m171.148438 337.605469h-52.277344c-31.4375 0-56.921875 25.484375-56.921875 56.921875h52.277343c31.4375 0 56.921876-25.484375 56.921876-56.921875zm0 0"/><path d="m67.210938 512c0-94.734375 76.796874-171.535156 171.535156-171.535156 94.734375 0 171.53125 76.800781 171.53125 171.535156zm0 0"/></g><path d="m410.277344 512h-282.160156l163.246093-163.300781c68.992188 22.214843 118.914063 86.921875 118.914063 163.300781zm0 0" fill="#4aa2c8"/><path d="m67.210938 512h282.160156l-163.246094-163.300781c-68.992188 22.214843-118.914062 86.921875-118.914062 163.300781zm0 0" fill="#52b4de"/><path d="m194.96875 357.546875-8.84375-8.847656c-68.992188 22.214843-118.914062 86.921875-118.914062 163.300781h30.902343c0-67.964844 39.535157-126.6875 96.855469-154.453125zm0 0" fill="#4aa2c8"/><path d="m415.539062 197.601562c0 97.640626-79.152343 176.796876-176.792968 176.796876-97.644532 0-176.796875-79.15625-176.796875-176.796876 0-97.640624 79.152343-176.796874 176.796875-176.796874 97.640625 0 176.792968 79.15625 176.792968 176.796874zm0 0" fill="#52b4de"/><path d="m238.746094 333.265625c-57.46875 0-104.050782-46.585937-104.050782-104.050781v-46.871094h208.097657v46.871094c0 57.464844-46.585938 104.050781-104.046875 104.050781zm0 0" fill="#f7c2ad"/><path d="m155.300781 229.214844v-46.871094h-20.605469v46.871094c0 57.464844 46.582032 104.050781 104.046876 104.050781 3.476562 0 6.914062-.175781 10.304687-.507813-52.628906-5.171874-93.746094-49.554687-93.746094-103.542968zm0 0" fill="#efb5a0"/><path d="m339.203125 256.378906-46.210937-15.996094c-35.152344-12.164062-73.371094-12.164062-108.523438.007813l-46.183594 15.988281c11.945313 44.292969 52.390625 76.886719 100.457032 76.886719 48.066406 0 88.515624-32.597656 100.460937-76.886719zm0 0" fill="#5c626b"/><path d="m157.335938 249.78125-19.050782 6.597656c11.945313 44.289063 52.394532 76.886719 100.460938 76.886719 3.445312 0 6.851562-.1875 10.214844-.515625-45.726563-4.53125-82.742188-38.664062-91.625-82.96875zm0 0" fill="#535860"/><path d="m91.949219 197.601562c0-92.589843 71.175781-168.542968 161.796875-176.15625-4.949219-.417968-9.949219-.640624-15-.640624-97.644532 0-176.796875 79.15625-176.796875 176.796874 0 97.640626 79.152343 176.796876 176.796875 176.796876 5.050781 0 10.050781-.226563 15-.640626-90.621094-7.617187-161.796875-83.566406-161.796875-176.15625zm0 0" fill="#4aa2c8"/><path d="m8.269531 182.34375c-6.011719 0-9.738281-6.535156-6.671875-11.707031 23.855469-40.269531 110.839844-170.636719 237.148438-170.636719 126.304687 0 213.289062 130.367188 237.148437 170.636719 3.0625 5.171875-.664062 11.707031-6.671875 11.707031zm0 0" fill="#fbe067"/><path d="m32.5 170.636719c22.871094-38.605469 103.765625-159.992188 221.695312-169.964844-5.082031-.429687-10.230468-.671875-15.449218-.671875-126.308594 0-213.292969 130.367188-237.152344 170.636719-3.0625 5.171875.664062 11.707031 6.671875 11.707031h30.90625c-6.007813 0-9.734375-6.535156-6.671875-11.707031zm0 0" fill="#e7ce5f"/><path d="m304.355469 229.101562c-4.144531 0-7.5-3.355468-7.5-7.5v-11.695312c0-4.144531 3.355469-7.5 7.5-7.5s7.5 3.355469 7.5 7.5v11.695312c0 4.144532-3.355469 7.5-7.5 7.5zm0 0" fill="#494f57"/><path d="m173.132812 229.101562c-4.144531 0-7.5-3.355468-7.5-7.5v-11.695312c0-4.144531 3.355469-7.5 7.5-7.5 4.144532 0 7.5 3.355469 7.5 7.5v11.695312c0 4.144532-3.359374 7.5-7.5 7.5zm0 0" fill="#494f57"/><path d="m386.792969 180.132812c-1.925781-6.453124-41.046875-134.945312-107.519531-175.617187-13.003907-2.90625-26.523438-4.515625-40.527344-4.515625-14.007813 0-27.527344 1.609375-40.53125 4.515625-66.472656 40.671875-105.59375 169.164063-107.519532 175.617187l-.660156 2.210938h16.15625c3.039063-9.609375 16.050782-48.941406 36.828125-87.726562 19.875-37.097657 50.792969-80.863282 88-86.320313v174.046875h15.453125v-174.046875c37.203125 5.457031 68.125 49.21875 88 86.320313 20.777344 38.785156 33.785156 78.117187 36.828125 87.722656h16.15625zm0 0" fill="#d3ba50"/></svg>