<svg viewBox="0 0 512.00053 512" xmlns="http://www.w3.org/2000/svg"><path d="m338.203125 211.507812 94.121094-94.121093-37.710938-37.710938-94.121093 94.121094-144.140626 42.050781c-6.003906 1.75-11.019531 5.902344-13.867187 11.472656l-141.945313 277.800782c-2.082031 4.070312 2.269532 8.421875 6.339844 6.339844l277.800782-141.945313c5.570312-2.847656 9.71875-7.863281 11.472656-13.867187zm0 0" fill="#5c626b"/><path d="m164.339844 249.171875c2.84375-5.570313 7.863281-9.71875 13.867187-11.472656l144.136719-42.050781 15.859375 15.859374 94.125-94.121093-37.714844-37.714844-94.121093 94.125-144.140626 42.050781c-6.003906 1.75-11.019531 5.902344-13.867187 11.472656l-141.945313 277.800782c-2.082031 4.070312 2.269532 8.421875 6.339844 6.339844l31.71875-16.207032zm0 0" fill="#535860"/><path d="m408.003906 93.066406-187.375 187.378906-64.511718-64.515624c-5.15625 1.566406-9.566407 4.898437-12.472657 9.382812l66.058594 66.058594-204.375 204.375-4.789063 9.375c-2.082031 4.070312 2.269532 8.421875 6.34375 6.339844l9.371094-4.789063 204.375-204.375 66.058594 66.058594c4.488281-2.902344 7.816406-7.316407 9.382812-12.472657l-64.511718-64.511718 187.375-187.375zm0 0" fill="#535860"/><path d="m300.488281 173.796875 94.121094-94.121094 37.710937 37.714844-94.121093 94.117187zm0 0" fill="#dfe0e0"/><path d="m432.328125 117.386719-29.15625 29.144531-11.507813 11.519531-12.164062 12.15625-11.519531 11.515625-12.15625 12.15625-11.515625 11.519532-6.109375 6.109374-37.707031-37.707031 18.648437-18.644531 11.515625-11.519531 12.15625-12.15625 11.507812-11.515625 12.167969-12.15625 11.507813-11.519532 16.613281-16.617187zm0 0" fill="#dfe0e0"/><path d="m300.488281 173.796875 94.121094-94.121094 21.851563 21.855469-94.121094 94.117188zm0 0" fill="#c9caca"/><path d="m493.261719 18.742188c-24.988281-24.988282-65.5-24.988282-90.488281 0-24.988282 24.984374-24.988282 65.5 0 90.484374 24.988281 24.988282 65.5 24.988282 90.488281 0 24.984375-24.988281 24.984375-65.5 0-90.484374zm-65.25 65.246093c-11.050781-11.046875-11.046875-28.960937 0-40.011719 11.046875-11.046874 28.960937-11.046874 40.007812 0 11.050781 11.050782 11.050781 28.964844 0 40.011719-11.046875 11.050781-28.960937 11.050781-40.007812 0zm0 0" fill="#5c626b"/><path d="m424.625 40.59375c21.21875-21.21875 53.628906-24.410156 78.226562-9.589844-2.632812-4.367187-5.824218-8.496094-9.589843-12.261718-24.988281-24.988282-65.5-24.988282-90.488281 0-24.988282 24.984374-24.988282 65.5 0 90.484374 3.769531 3.769532 7.894531 6.957032 12.261718 9.589844-14.816406-24.59375-11.628906-57.003906 9.589844-78.222656zm0 0" fill="#535860"/><g fill="#b7b7b7"><path d="m355.824219 193.878906-11.515625 11.519532-25.167969-50.242188 11.515625-11.519531zm0 0"/><path d="m379.5 170.207031-11.519531 11.515625-25.167969-50.242187 11.507812-11.515625zm0 0"/><path d="m403.171875 146.53125-11.507813 11.519531-25.175781-50.242187 11.507813-11.519532zm0 0"/></g></svg>