<svg viewBox="-69 0 511 512" xmlns="http://www.w3.org/2000/svg"><path d="m80.816406 3.632812-68.25 249.417969v27.382813h146.023438v-27.382813l-68.25-249.417969c-1.324219-4.84375-8.195313-4.84375-9.523438 0zm0 0" fill="#dfe0e0"/><path d="m80.816406 3.632812-68.25 249.417969v27.382813h73.011719v-280.433594c-2.050781 0-4.097656 1.210938-4.761719 3.632812zm0 0" fill="#c9caca"/><path d="m103.046875 420.683594h-34.9375l-12.78125-137.585938h60.5zm0 0" fill="#535860"/><path d="m55.328125 283.097656 12.78125 137.585938h22.6875l-12.78125-137.585938zm0 0" fill="#494f57"/><path d="m158.589844 307.8125h-146.023438c-6.664062 0-12.066406-5.402344-12.066406-12.066406v-30.628906c0-6.664063 5.402344-12.066407 12.066406-12.066407h146.023438c6.664062 0 12.066406 5.402344 12.066406 12.066407v30.628906c0 6.664062-5.402344 12.066406-12.066406 12.066406zm0 0" fill="#5c626b"/><path d="m34.53125 295.746094v-30.628906c0-6.664063 5.402344-12.066407 12.066406-12.066407h-34.03125c-6.664062 0-12.066406 5.402344-12.066406 12.066407v30.628906c0 6.664062 5.402344 12.066406 12.066406 12.066406h34.03125c-6.664062 0-12.066406-5.402344-12.066406-12.066406zm0 0" fill="#535860"/><path d="m85.578125 398.230469c-31.417969 0-56.886719 25.46875-56.886719 56.882812 0 31.417969 25.46875 56.886719 56.886719 56.886719s56.886719-25.46875 56.886719-56.886719-25.46875-56.882812-56.886719-56.882812zm0 83.285156c-14.582031 0-26.398437-11.820313-26.398437-26.402344 0-14.578125 11.816406-26.398437 26.398437-26.398437 14.578125 0 26.398437 11.820312 26.398437 26.398437 0 14.582031-11.820312 26.402344-26.398437 26.402344zm0 0" fill="#5c626b"/><path d="m51.378906 455.113281c0-27.53125 19.5625-50.492187 45.542969-55.75-3.664063-.742187-7.457031-1.136719-11.34375-1.136719-31.417969 0-56.886719 25.46875-56.886719 56.886719s25.46875 56.886719 56.886719 56.886719c3.886719 0 7.679687-.390625 11.34375-1.132812-25.980469-5.257813-45.542969-28.21875-45.542969-55.753907zm0 0" fill="#535860"/><path d="m284.320312 508.367188-68.25-249.417969v-27.382813h146.019532v27.382813l-68.25 249.417969c-1.324219 4.84375-8.195313 4.84375-9.519532 0zm0 0" fill="#dfe0e0"/><path d="m284.320312 508.367188-68.25-249.417969v-27.382813h73.007813v280.433594c-2.046875 0-4.097656-1.210938-4.757813-3.632812zm0 0" fill="#c9caca"/><path d="m306.546875 91.316406h-34.933594l-12.785156 137.585938h60.5zm0 0" fill="#535860"/><path d="m258.828125 228.902344 12.785156-137.585938h22.6875l-12.785156 137.585938zm0 0" fill="#494f57"/><path d="m362.089844 204.1875h-146.019532c-6.664062 0-12.066406 5.402344-12.066406 12.066406v30.628906c0 6.664063 5.398438 12.066407 12.066406 12.066407h146.019532c6.664062 0 12.066406-5.402344 12.066406-12.066407v-30.628906c0-6.664062-5.402344-12.066406-12.066406-12.066406zm0 0" fill="#5c626b"/><path d="m238.03125 216.253906v30.628906c0 6.664063 5.40625 12.066407 12.070312 12.066407h-34.03125c-6.664062 0-12.066406-5.402344-12.066406-12.066407v-30.628906c0-6.664062 5.402344-12.066406 12.066406-12.066406h34.03125c-6.664062 0-12.070312 5.402344-12.070312 12.066406zm0 0" fill="#535860"/><path d="m345.964844 56.886719c0-31.417969-25.46875-56.886719-56.886719-56.886719-31.414063 0-56.882813 25.46875-56.882813 56.886719s25.46875 56.886719 56.882813 56.886719c31.417969 0 56.886719-25.46875 56.886719-56.886719zm-30.484375 0c0 14.578125-11.820313 26.398437-26.402344 26.398437-14.578125 0-26.398437-11.820312-26.398437-26.398437 0-14.582031 11.820312-26.402344 26.398437-26.402344 14.582031 0 26.402344 11.820313 26.402344 26.402344zm0 0" fill="#5c626b"/><path d="m254.882812 56.886719c0 27.53125 19.558594 50.492187 45.539063 55.75-3.664063.742187-7.457031 1.136719-11.34375 1.136719-31.417969 0-56.886719-25.46875-56.886719-56.886719s25.472656-56.886719 56.886719-56.886719c3.886719 0 7.679687.390625 11.347656 1.132812-25.984375 5.257813-45.542969 28.21875-45.542969 55.753907zm0 0" fill="#535860"/></svg>