<svg viewBox="0 -17 512.0005 512" xmlns="http://www.w3.org/2000/svg"><path d="m134.222656 11.398438v48.425781c0 6.296875-5.101562 11.398437-11.398437 11.398437h-90.710938c-6.296875 0-11.398437-5.101562-11.398437-11.398437v-48.425781c0-6.296876 5.101562-11.398438 11.398437-11.398438h90.710938c6.296875 0 11.398437 5.101562 11.398437 11.398438zm0 0" fill="#9b6a57"/><path d="m134.222656 418.046875v48.425781c0 6.296875-5.101562 11.398438-11.398437 11.398438h-90.710938c-6.296875 0-11.398437-5.101563-11.398437-11.398438v-48.425781c0-6.292969 5.101562-11.398437 11.398437-11.398437h90.710938c6.296875.003906 11.398437 5.105468 11.398437 11.398437zm0 0" fill="#9b6a57"/><path d="m512 57.253906v363.363282c0 11.953124-9.691406 21.644531-21.644531 21.644531h-412.886719v-406.652344h412.886719c11.953125 0 21.644531 9.691406 21.644531 21.644531zm0 0" fill="#e15f76"/><path d="m77.46875 35.609375h108.371094v406.652344h-108.371094zm0 0" fill="#cb556a"/><path d="m77.46875 388.269531v-298.667969h434.53125v298.667969zm0 0" fill="#dfe0e0"/><path d="m77.46875 89.601562h108.371094v298.667969h-108.371094zm0 0" fill="#c9caca"/><path d="m154.9375 52.769531v372.332031c0 9.476563-7.683594 17.160157-17.160156 17.160157h-120.617188c-9.476562 0-17.160156-7.683594-17.160156-17.160157v-372.332031c0-9.476562 7.683594-17.160156 17.160156-17.160156h120.617188c9.476562 0 17.160156 7.683594 17.160156 17.160156zm0 0" fill="#e15f76"/><path d="m30.90625 425.101562v-372.332031c0-9.476562 7.683594-17.160156 17.160156-17.160156h-30.90625c-9.476562 0-17.160156 7.683594-17.160156 17.160156v372.332031c0 9.476563 7.683594 17.160157 17.160156 17.160157h30.90625c-9.476562 0-17.160156-7.683594-17.160156-17.160157zm0 0" fill="#cb556a"/><path d="m0 364.148438v-250.421876h154.9375v250.421876zm0 0" fill="#dfe0e0"/><path d="m0 113.722656h30.90625v250.425782h-30.90625zm0 0" fill="#c9caca"/><path d="m0 388.269531v-48.246093h154.9375v48.246093zm0 0" fill="#fbe067"/><path d="m0 340.023438h30.90625v48.246093h-30.90625zm0 0" fill="#e7ce5f"/><path d="m0 137.847656v-48.246094h154.9375v48.246094zm0 0" fill="#fbe067"/><path d="m0 89.601562h30.90625v48.246094h-30.90625zm0 0" fill="#e7ce5f"/><path d="m454.824219 263.976562h-242.742188c-4.140625 0-7.5-3.355468-7.5-7.5 0-4.144531 3.359375-7.5 7.5-7.5h242.742188c4.140625 0 7.5 3.355469 7.5 7.5 0 4.144532-3.355469 7.5-7.5 7.5zm0 0" fill="#b7b7b7"/><path d="m454.824219 318.800781h-242.742188c-4.140625 0-7.5-3.359375-7.5-7.5 0-4.144531 3.359375-7.5 7.5-7.5h242.742188c4.140625 0 7.5 3.355469 7.5 7.5 0 4.140625-3.355469 7.5-7.5 7.5zm0 0" fill="#b7b7b7"/><g fill="#494f57"><path d="m333.457031 215.929688c-9.78125 0-18.890625-5.269532-23.769531-13.757813-2.0625-3.589844-.824219-8.175781 2.765625-10.238281 3.589844-2.066406 8.175781-.828125 10.238281 2.761718 2.210938 3.847657 6.335938 6.234376 10.765625 6.234376 4.425781 0 8.550781-2.386719 10.761719-6.234376 2.0625-3.589843 6.648438-4.824218 10.238281-2.761718 3.59375 2.066406 4.828125 6.648437 2.765625 10.242187-4.882812 8.484375-13.988281 13.753907-23.765625 13.753907zm0 0"/><path d="m399.066406 185.769531c-4.140625 0-7.5-3.355469-7.5-7.5v-11.699219c0-4.140624 3.359375-7.5 7.5-7.5s7.5 3.359376 7.5 7.5v11.699219c0 4.144531-3.359375 7.5-7.5 7.5zm0 0"/><path d="m267.84375 185.769531c-4.140625 0-7.5-3.355469-7.5-7.5v-11.699219c0-4.140624 3.359375-7.5 7.5-7.5s7.5 3.359376 7.5 7.5v11.699219c0 4.144531-3.359375 7.5-7.5 7.5zm0 0"/></g><path d="m404.914062 207.882812h-11.695312c-4.144531 0-7.5-3.355468-7.5-7.5 0-4.140624 3.355469-7.5 7.5-7.5h11.695312c4.144532 0 7.5 3.359376 7.5 7.5 0 4.144532-3.355468 7.5-7.5 7.5zm0 0" fill="#e15f76"/><path d="m273.691406 207.882812h-11.695312c-4.144532 0-7.5-3.355468-7.5-7.5 0-4.140624 3.355468-7.5 7.5-7.5h11.695312c4.144532 0 7.5 3.359376 7.5 7.5 0 4.144532-3.355468 7.5-7.5 7.5zm0 0" fill="#e15f76"/></svg>